<svg version="1.1" id="Capa_1" xmlns="http://www.w3.org/2000/svg" x="0" y="0" viewBox="0 0 730 730" xml:space="preserve"><style>.st0{fill:#040006}.st1{fill:#070208}.st2{fill:#c13033}.st4{fill:#fff}.st7{fill:#f5f3f4}.st9{fill:#080208}.st10{fill:#09060a}.st13{fill:#c13233}</style><path class="st0" d="M666.9 476.1c1.7-2.5 3.1-5.3 4.9-7.8.5-.7 1-1.5 1.4-2.2 2.4-3.3 4.2-7.1 6.6-10.4.4-.5.8-1.1 1.1-1.7 2.4-3.5 4.4-7.1 6.8-10.6.8-1.3 1.7-2.6 2.5-3.9 1.2-1.9 2.5-3.8 3.8-5.6 2.4-4.6 5.9-9 .3-13.7-1.6-1.3-3.3-2.1-5.4-2.4-12.3-.3-24.7 0-37-.1l-25.8 1.3c-.3 0-.6.1-.8.2-1.7-1.3-.7-3-.8-4.5-.1-5.7 0-11.4 0-17l-8.2 3.7c-7.7 6.4-15.6 12.3-23.8 18.1-2.6 1.8-5.2 3.9-8.3 4.6-.4-.6-.5-.9-.5-1.3 0-1 .2-2 .4-3 3.5-21.6 2.1-42.9-3.4-64-2.5-9.4-2.3-9.2 6.9-12.8 5.3-2.1 11.2-3.4 14.7-8.6 2.5-3.3 7.5-3.2 9.7-6.6 9-14.4 17.5-29 14.5-47l-2.1-3.9c-4.3-7.8-14-11.4-21-7-3.9 2.5-7.4 2.3-11.4 2.2-5-.1-9.9-.4-14.9-.1-5.7.3-11.1-1.4-16-3.6-14.5-6.4-28.4-14.2-44.2-17.5-5.3-1.5-10.7.4-16-1-.6-.2-1.3-.4-1.8-.7-33.1-21.6-69.6-34-108.7-37.9-55.4-5.5-108.3 3.9-156.3 33.1-52.6 32-87 76.9-92.8 140.2-.3 3-1.8 3.3-4.2 3.5C125 389 113 390 101 392c-7.2 1.2-7.4 1.1-7.3 8.3 0 3.2-.8 4.3-4.2 4.2-12.8-.3-25.6-.3-38.3-.1-4.9 0-10.5-.8-13.3 4.6-2.7 5.2 1.3 9.2 3.8 13.1 8.7 13.9 17.5 27.7 26.5 41.4 2.8 4.3 2.8 7.9 0 12.2-9.7 14.6-19.1 29.5-28.6 44.2-2 3.1-4 6.1-5.7 9.3-2.9 5.9-.7 10.7 5.8 11.9 3.1.6 6.3.5 9.4.6 13.1.4 26.2.8 39.3 1.1 2.3 0 4.4.1 3.9 3.4-.4 2.5.9 2.8 2.9 2 1.4-.6 2.8-.9 4.2-1.5 26.1-11 53.1-13 80.9-8.5C208 542.7 235 549.9 262 557c35.2 9.3 70.3 18.9 105.5 28.1 33.3 8.8 66.8 16.4 101.3 17.9 15.5.6 31.1-.5 46.6-1.7 7.8-.6 15.6-1.5 23.3-2.8 7.8-1.3 15.5-3.8 23.3-4.9 2.1-.3 4.2-.8 6.3-1.4 12.9-3.7 25.8-7.8 37.5-14.2 8.5-4.6 16.7-6.2 26.4-5.7 15 .9 30 1.8 45 2.6 5.1.3 9.4-.5 13.6-2.9 3.9-5.3 0-9.7-1.8-14.4-.2-.4-.4-.9-.7-1.3-7.1-12.5-13.5-25.4-20.5-38-1.1-2-2.1-4-3.1-6-1.6-3.1-3.2-6.2-4.7-9.4-.2-.4-.4-.8-.6-1.1-.8-1.3-1.3-2.7-1.6-4.1-.1-.4-.2-.8-.4-1.3-1.3-5.8 2.9-9.7 5.2-14.2 1.7-1.9 2.8-4.2 4.3-6.1zM616.8 419c-.4 20.2.1 40.4-.7 60.7-1.1 25.8 0 51.7-1.1 77.6-.2 5.1-1.8 8-6.4 10.4-25.2 13.2-52.2 20-79.9 24.9-1.6.3-3.6-.1-4.6 1.5-30.2 3.4-60 1.9-82.5-.5-1.1-1.1-2.8-.8-4.2-1-9.2-1.5-18.4-2.8-27.5-4.6-35.4-7.3-70.2-17.1-105.2-26.4-32.8-8.8-65.5-18.3-98.7-25.6-15.4-3.4-31-5.8-46.7-6.9-17.1-1.1-33.7 1.2-49.9 7-11 3.9-9.9 4-10.2-7-.3-15.4.8-30.8 1-46.2.2-25.6 0-51.1.1-76.6 0-6.6.7-7.6 7-8.5 16.7-2.3 33.6-3.7 50.5-4.2 21-.6 41.7 1.8 62.2 6.2 41.5 9.1 82.3 20.8 123.3 32 32.3 8.8 64.7 17.4 98.1 21.1 12.2 1.3 24.5 2 36.7 1.9 14.7-.1 29.5-.6 44.1-2.6 15.6-2.1 31.1-4.5 45.9-10.5 15.7-6.4 29.7-15.4 43-25.7 1.5-1.2 3.1-3.7 4.9-2.8 1.9.9.8 3.8.8 5.8z"/><path class="st1" d="M135.5 254c-1 2.1.5 2.8 2 3.8 4.6 3.1 9.2 6.1 9.3 12.5 0 1 .9 1.2 1.6 1.6 5.6 3.5 6.9 7.3 4.6 13.3-2.1 5.3-5.1 10-9.3 13.9-5.7 5.2-11.6 3.9-14.2-3.4-.6-1.8-1.7-2.8-3.1-3.7-4.7-3.1-9.4-6.1-14.2-9.2-1.4-.9-2.8-1.4-4.6-1.3-6.7.4-10.5-4.3-8.6-10.7.7-2.3 2.1-4.5 3.5-6.5 3.8-5.4 7.3-11 10.3-16.9 2.9-5.5 6.5-7.1 12.3-5.4 7.1 2 10.5 6 10.4 12zM249.5 172c-.4 5.1 2.3 9.1 1 13.5-.3 1 .4 1.4 1.3 1.6 6.9 1.4 9 6.8 9.9 12.7 2.3 13.9-15.8 28.7-29 23.8-2.6-1-5-2.5-5.9-5-1.4-4.3-4.2-8.3-5-12.6-.7-4.1-2.2-7.5-4.1-11.2-5.4-10.6 1.8-23.4 14.5-26.5 1.6-.4 3.2-.3 4.2-2.1 1.6-3 3.9-5.2 7.6-4.1 3.6 1.1 4.6 4.4 5.3 7.8.2.8.2 1.8.2 2.1zM403.2 190.1c-3.4 0-6.6-.7-9.6-1.9-7.6-3-9.4-10.8-3.6-16.7 1.9-1.9 3.6-3.4 1-6-1.1-1.1-1.1-2.8-.7-4.3 1.8-7 3.1-14.2 6.4-20.5 4.1-7.7 13-10.2 20.5-6.6 7.3 3.5 10 12 5.7 19.3-1.4 2.5-2.3 4.9-2.8 7.7-.7 3.9-1.6 7.9-5.7 9.9-1.5.7-1.6 1.4-.7 3 4.6 8-.7 16.2-10.5 16.1zM190.3 178.2c2.7.2 5 1.3 6.1 3.6 3.4 6.9 8.9 12.4 12.5 19.2 1.8 3.6 3.8 7 7.9 9 3.6 1.8 4.3 7.4 2 11.6-3.3 6.2-8.9 9.8-15.6 11.2-5 1.1-8.6-2.2-9-7.4-.4-5.6-2.5-10-7.9-12.4-.9-.4-2-1.1-2.2-1.8-1.4-5.1-5-9-7.4-13.5-3.9-7.4 5.1-19.7 13.6-19.5zM366.7 186c-1.9 0-4.2-.2-6.4-.9-6.8-2.2-9.2-8.5-5.4-14.6 2.8-4.5 3.5-8.8 1.1-13.9-1.8-3.8-.8-8 2.5-10.9 1.7-1.5 2.1-3 2.1-5.1-.2-4.3 1.9-7.2 5.9-8.8 3.2-1.3 6.5-2.4 9.7-3.7 3.7-1.4 6.1.1 7.5 3.6 1.3 3.4 1.4 6.8-.3 10.1-4.8 9.7-5.4 20-3.2 30.4 1.6 7.7-3.9 13.9-13.5 13.8zM440.3 138.1c8.5.1 12.1 5.3 10 13.3-2.3 9.1-3.9 18.3-5.8 27.5-.3 1.2.4 2.2.6 3.3 1.9 7.6-3.1 13.9-11 13.9-2.7 0-5.3-.6-7.8-1.4-8-2.8-10.2-10.3-4.8-16.9 2.9-3.6 4.3-7.6 2.5-12.3-.4-.9-.8-2.1-.5-2.8 2.7-5.9 2.5-12.7 5.2-18.5 2-4.6 6.5-6.4 11.6-6.1zM338.3 170.6c6.1 8-.6 17.3-8.5 17.7-3.1.1-6.1 1.1-9.3.4-7.4-1.4-10.6-7.1-7.5-13.9 2.2-4.6 2.5-8.9-.6-13.4-2.5-3.7-1.3-7.7 1.4-11 2.1-2.7 5-4.3 8.1-5.6 5.5-2.3 11.4-1.8 17-2.2 4.7-.3 7.3 3.4 8.6 7.6 2.7 8.3-.8 15.7-9.2 20.4zM175.9 234.5c8.7.4 12.3 5.7 9.1 12.8-2.7 6-7.3 10.6-13.4 13.4-5.1 2.4-9.6.2-11.1-5.3-1.4-5.3-4.3-8.9-9.9-10.3-4.3-1-5.5-4.5-5.3-8.4.1-3.9 1.7-7.4 3.7-10.7 2.9-4.9 7.4-8.4 11.3-12.3 3.4-3.3 8.8-3 12.9-.2 4.8 3.3 7.3 9.4 6 14.7-.7 2.1-1.7 4.1-3.3 6.3zM471.4 161.8c6.6.3 12 2.6 14.9 8.5 3.2 6.3 1.8 12.2-2.4 17.6-1.2 1.6-2.3 2.9-2.5 5.1-.5 6.7-4.9 11.6-11.4 13.4-6.9 1.9-14.1-.1-17.8-5.6-5.7-8.3-4.7-16.9-.4-25.4 4.2-8.1 10.4-13.1 19.6-13.6zM302.2 173.1c.4 5.7-1.4 10.8-4.7 15.3-8.5 12.1-23.9 11.4-31.3-1.4-5.6-9.7-3.8-22.7 4.3-30.6 5.4-5.2 11.9-7.4 19.1-5 7.7 2.6 10.9 9.2 12.3 16.7.3 1.7.1 3.4.3 5zM507.8 183.2c8.5 2.2 14.4 7.1 15 16.1.7 11-4.3 19.5-13.2 25.5-7.3 4.9-14.9 4.4-22.3-.3-7.1-7.6-7.4-16.4-3.5-25.4 4.4-10.2 12.4-15.9 24-15.9z"/><path class="st2" d="M442.4 595.1c-12.1-2.2-24.2-3.8-36.2-6.3-20.9-4.3-41.6-9.7-62.2-15.1-43.7-11.4-87-24.3-131.1-34.5-20.3-4.8-40.9-8.3-61.9-8.6-16.2-.3-31.5 3.5-46.6 8.9-6.4 2.3-6.4 2.1-6.4-4.3.4-43.8.8-87.6 1.1-131.4 0-4.5 1.2-6.3 6-6.9 30.2-4.1 60.3-6.3 90.6-2.6 26.4 3.2 51.9 10.5 77.5 17.4 38.1 10.2 76.1 20.6 114.3 30.4 29 7.5 58.5 11.6 88.5 11.4 26-.1 52-1.7 77.4-8.2 21.5-5.5 39.8-16.9 57.1-30.3 2.5-1.9 5.3-6 7.4-5 2.6 1.4 1 6 1 9.2-.4 39-.9 77.9-1.4 116.9-.1 8.1-.5 16.3-.4 24.4 0 3.4-1.1 5.3-4.2 7-24.4 13.4-50.8 20.7-78 25.8-3.6.7-7.1 1.3-10.7 1.9-25.7 5.2-52.9 5-81.8-.1z"/><path d="M613.5 300.9c-2.3 10.1-8.3 17.1-16.3 22.7-17.2 11.9-36.1 13.9-56.1 9.4-3.9-.9-7.9-2-12.4-3.1 4.6 8.7 12.2 11.9 20.5 14.2 2.5.7 6.7-.3 7.2 2.5.4 1.8-4 2.8-6.3 4-21.6 11.5-39.3 27.7-54.5 46.5-9 11.2-11 25.3-13.3 39-.3 1.6-.5 3.3-.6 5-.1 2.2.7 5.8-.3 6.4-1.8 1.1-4.8.6-7.3.5-33.5-.2-66.3-5.7-98.6-14.5-49.4-13.3-98.7-27-148.4-39.3-10.6-2.6-10.7-2.5-11.5-13.1-1-11.6.4-22.7 4.7-33.7 2.6-6.7 2.3-6.8-4.6-7.9-.7-.1-1.4-.1-2-.3-2.7-1-6.8-.9-6.8-4.6 0-3.1 3.8-2.4 6-3.1 7.6-2.5 14.9-5.7 21.6-10 18.8-12.1 39.3-13.9 60.8-11.3 18.9 2.4 37.7 6 56.8 6.5 14.7.4 29.1-1.4 43.1-5.9 2.9-.9 5-.8 7.5 1.4 5.4 4.6 11.1 8.9 18.3 10.6 2.1.5 4.8 1.3 5.9-1 1.2-2.6-1.6-3.6-3.4-4.6-10.7-5.8-19.4-13.7-26.2-23.8-4.1-6.2-6.7-12.9-7.7-20.3-.4-3.4.4-5.3 4.6-4.3 16.3 4.2 33 5.8 49.8 5.1 14.5-.6 28.6.3 40.9 11.1 0-6.7-3.5-10.1-7.6-13.5 14.8-8.7 29.8-11.7 46.2-6.4 8.8 2.9 17.4 6.6 25.6 10.8 13 6.6 26.6 10.1 41.2 8.7 3.7-.4 4.3 1 3.1 4.1-1 2.5-2 5-3.3 8.4 5.5-2.6 8.3-6.5 11.1-10.5 2.5-3.5 4.6-8.2 9.9-6.1 5.5 2.1 4.3 7.1 3.9 11.6 0 .1-.2.3-.5.7-4.4-3.8-8.9-3.2-13.1.2-2.2 1.8-3.3 4.1-3 7 .4 4 2.5 5.2 6.1 3.3 2.8-1.3 5.3-3.1 9-2.4z" fill="#db9ea3"/><path class="st2" d="M161.5 387.2c-3.6 0-7.3-.2-11 0-3.3.2-3.9-1.3-3.6-4.2 4.3-44.2 24.4-80.4 57.1-109.8 37.3-33.5 81.5-51.3 131-56.5 54.5-5.8 105.9 4.3 153.4 32.2 1.4.8 4 1.1 3.3 3.6-.7 2.4-3.2 2-5.1 2-4.9-.1-9.3-1.9-13.6-4.2-6.5-3.4-13-6.7-19.5-9.8-4.4-2.1-6.5-.7-7.1 4.2-.3 2.5-.3 5-.3 7.5.1 3.7-1.4 4.7-4.8 3.2-12-4.9-24.5-8.2-37.2-10.7-23.1-4.4-46.4-5-69.7-2.1-32.2 4.1-62.1 14.8-89.1 32.8-8.7 5.8-17 12.2-24.2 19.9-3.3 3.6-6.9 4-11.1 3.7-2.7-.2-4-1.2-3.2-4.1.5-1.7 1.7-3.8 0-5.1-2-1.5-4.5-1-6.6.1-7.8 3.9-11.4 10.9-12.4 19.2-.8 6.6-.1 13 5 18 1.6 1.6 1.3 3.2.3 4.9-8.6 15.7-14.2 32.4-15.7 50.4-.3 3.4-1.5 5-5.3 4.6-3.6-.1-7.1.2-10.6.2z"/><path class="st4" d="M445.7 264.6c-15.2-3.8-30.5-2.6-45.1-6.3-3.7-.9-7.6-.9-11.4-.5-6.9.7-11.3 5.6-11.7 12.5-.6 8.8 3.2 16.1 7.5 23.2 1.1 1.8 2.4 3.5 3.8 5.5-5.1 2.2-10.3 2.7-15.5 3.5-21.3 3.2-42.3.4-63.2-3.5-10.5-1.9-21-2.6-31.6-2.6-14.9 0-28.8 3.7-41.9 10.7-2.4 1.3-4.1 1.9-5.3-1.2-.3-.7-1.1-1.2-1.8-1.8-5.4-4.3-5.4-4.3-.1-9 28.3-25.2 61.5-39.9 98.7-45.8 39.3-6.2 77.6-2.4 114.7 12.6.9.4 2.3.4 2.9 2.7z"/><path class="st2" d="M687.6 431.3c1.1-1.8 3.1-3.8 1.9-5.7s-3.9-1.4-6-1.3c-18.2.9-36.5.7-54.7.7-3.6 0-4.5 1.3-4.4 4.6.1 21.7 0 43.4 0 65.2l-2 65.7c0 3.8.9 5.2 4.9 5.3 10.3.2 20.5 1 30.8 1.6 7.9.4 15.9.7 23.8 1.3 4.5.3 4.8-1.5 2.9-4.9-.4-.7-.8-1.4-1.2-2.2-10-18.1-19.5-36.6-29.1-54.9-4.4-8.4-5-15.8.5-24.1 11.2-17 21.8-34.3 32.6-51.3zM93.9 415.2c0-4.2-1.2-5.3-5.3-5.3-13.1.2-26.2 0-39.3 0-6.9 0-7.6 1.2-3.9 7 9.2 14.6 18.5 29.1 27.8 43.6 3.9 6.1 4 11.7-.1 17.9-11 16.7-21.8 33.7-32.6 50.6-3.3 5.3-2.4 7.1 3.8 7.3 14.2.5 28.5.7 42.7 1.3 4.3.2 5.8-1.1 5.7-5.5l1-58.7c.1-19.4 0-38.9.2-58.2z"/><path class="st4" d="M542.2 396.9c.1 13.7-1.9 25.9-6 37.7-.9 2.7-2 4.6-5.2 5.1-11.3 1.9-22.6 3.5-34 3.7-5.8.1-6.4-.5-5.7-6.7 1.8-17.1 7.5-32.4 19-45.5 7.1-8.1 14.8-15.6 24-21.3 3.6-2.3 5-1 5.6 2.5 1.3 8.5 2.4 17.1 2.3 24.5z"/><path class="st2" d="M578.9 398.2c.1 8.6-1.3 19.5-3.3 30.2-.4 1.9-1.1 3.3-3 4.2-9 4.2-18.5 7.2-28.2 9.3-4.4.9-2.6-2.1-2.1-3.8 5.3-15.6 7.3-31.5 6.6-47.9-.4-9.1-1.5-18.1-4.1-26.9-1-3.3-.4-5.2 3-6.4 4.6-1.7 9.2-3.8 13.8-5.5 1.9-.7 3.7-1.4 5-3.1 2.8-3.9 4.1-2 5.1 1.3 4.9 14.9 7.2 30.4 7.2 48.6z"/><path class="st4" d="M204.8 389.9c-6.5-.7-13.4-1.4-20.3-2.1-2.2-.2-2.2-1.6-2.1-3.2 1.5-16 5.8-31.1 13.3-45.8 2.8 4.1 5.5 7.6 9.8 9.4 3 1.3 2.2 3.7 1.6 5.9-3.2 11.8-1.2 23.8-2.3 35.8z"/><path d="M486.3 260.3c-10.6 5.7-20 9.2-30.8 6.3-1.6-.4-1.9-1.6-2.3-2.9-1.7-5.1-1.8-10.4-1.8-15.6 0-2.8 1.3-2.5 3.1-1.4 9.4 6.1 19 11.8 31.8 13.6z" fill="#db9fa3"/><path d="M201.2 298.7c-3.8 6.1-5 11.4-2.6 17 2.3 5.6 8.9 7.8 14.1 4.9 2.4-1.4 3.6-3.3 3.5-6-.1-2.1-1-4-3.1-4.6-2.5-.8-4.9-.2-6.6 2.1-.8 1.1-1.5 2.5-3.1 1.7-1.6-.9-1-2.7-.7-4 1-3.8 4.3-4.7 7.5-5.6 3.4-.9 6.4.2 8.5 2.7 3.2 3.8 3.9 8.4 2 13-2 4.8-9 8.1-15.6 7.5-5.7-.5-10.8-5.5-12.6-12.4-1.5-5.5.7-12.2 5-15.1.6-.5 1.5-.5 3.7-1.2z" fill="#dca0a4"/><path class="st4" d="M148.9 282.4c-1.8 5-4.4 9.8-9 13-2.4 1.7-5.1.5-5.5-2-.6-4.2-3.6-5.7-6.4-7.6-4.7-3.2-9.4-6.2-14.2-9.1-1.6-1-3.3-2.3-5.5-1.2-1.5.7-3 .4-3.9-1.1-.9-1.4-.7-3 .1-4.3 4.6-6.9 9.1-13.9 13.1-21.1 1.5-2.8 4.5-1.6 6.8-.8 2.6.9 5.6 1.8 6.3 5 .4 1.6-1 2.2-2.5 2.5-1.6.3-3.4.3-4.8.9-2.8 1.2-5.5 3.4-5.2 6.6.3 2.9 3.7 3.9 6 5.4.7.5 1.6.3 2.1-.5.9-1.2 1-2.5 0-3.6-1-1.3-2.8-2.5-1.1-4.2 1.5-1.5 3.5-.7 5.1.1 3.6 1.8 6.9 3.9 9.7 6.8 1.1 1.1 2.1 2.4 1.4 3.9-.9 1.8-2.5 1.1-3.9.5-1.7-.6-3.6-1.9-4.7.5-1.2 2.5 1.5 2.9 2.8 3.8 2.7 1.8 5.2 3.6 9.1 1.8 2.7-1.1 4.3 1.4 4.2 4.7zM244.3 174.7c-.3 1.5 0 2.9.4 4.4 2.2 7.1 0 12-6.8 15.4-1.4.7-4.6.7-3.6 3.1 1.2 2.7 3.7.8 5.6-.1 2.2-1.1 4.3-2.6 6.5-3.6 4.1-1.9 7.1-.4 9 3.4 2.5 4.8 1.6 9.4-1.5 13.5-3.6 4.7-8.6 7.3-14.4 7.9-5.8.6-7.7-3-9.2-8.5-1.3-4.5-5.3-8.2-3-13.6 0 0-.5-.3-.8-.4-4.7-2.8-6.4-7.1-5.2-12.3 1.3-5.4 5.4-8.3 10.5-9.4 3.6-.8 6.7-1.5 8.4-5.2 1-2.1 2.4-1.3 3.3.3 1.1 1.4.9 3.3.8 5.1zM402.3 184c-1.1-.2-3.2-.5-5.3-1.2-6-1.8-6.6-4.2-2.1-8.6 3.1-3.1 3.3-8.6.8-12.8-1.2-1.9-.3-4.6 1.1-5.3 2.7-1.6 2-3.6 1.9-5.8-.3-9 8.5-14.7 16.4-10.7 2.7 1.4 4.5 3.6 4.9 6.5.4 2.7-.4 5.4-3.2 6.6-3.1 1.3-4.5-.9-5.6-3.3-.7-1.4-1-3.8-3.2-2.8-2.1 1-1.6 3.2-.5 4.7 1.9 2.5 2.6 6.2 6.5 6.9 1.5.3 1.6 1.6 1.2 2.7-.5 1.5-.1 3.6-2.1 4.1-1.7.4-3.9-.4-4.3 2.3-.4 3.1-2.1 6.1-.2 9.2 1.1 1.7 2.9 3 1.5 5.2-1.6 2.5-4.2 2.4-7.8 2.3zM203.9 227c-3.5 0-4.4-1.3-4.6-4-.7-6.7-3.2-12.2-9.7-15.2-2-.9-2.6-2.4-2-4.5.1-.5.4-.9.7-1.3 2.1-3.4 4.3-7.8 8-8.4 3.6-.5 4 4.9 6.2 7.5 3.9 4.7 5 11.6 11.6 14.2 1.7.7 1.6 2.9.6 4.4-2.9 4.1-7 6.1-10.8 7.3zM193.2 188.4c0 3.9-4.7 9-8.2 8.9-2.8-.1-4.2-1.8-4.3-4.5-.1-3.6 4.7-8.6 8.3-8.7 3.1 0 3.9 2.1 4.2 4.3zM367.5 180.1c-2.1.2-4.4-.2-6.5-1.2-2.8-1.4-3.6-3.2-1.7-6.4 3.4-5.6 4.7-11.7 1.8-18.1-.8-1.7-1.1-3.4.4-4.5 3.7-2.8 8.1-3.8 12.6-3.4 2.2.2 1.5 2.3 1.4 3.6-.5 5.1-1.2 10.2-1.7 15.3-.3 3.1-.6 6 1.1 9.1 1.9 3.4-1.1 5.6-7.4 5.6zM368.5 142.4c-1.4 0-2.5.1-2.9-1.4-.4-1.7.2-3 1.8-3.6 2.7-1.1 5.5-2.1 8.2-3.2 1.7-.7 3.3-.9 3.9 1.4.4 2 .7 4.1-2 4.7-3.1.8-6.2 1.5-9 2.1zM440.1 156.8c3.4-.6 4.7 1.1 3.5 5.4-1.5 5.2-2.5 10.6-3.7 15.9-.5 2.1-.9 4.2.2 6.3.1.1.1.3.2.4.7 2.2-.1 3.9-2.1 4.9-3.3 1.6-11.8-.6-13.8-3.4-1.4-2.1-.3-3.4 1-5.2 3.9-5.3 5.9-11.3 3.6-17.8-.9-2.7.2-4.1 2.5-5 2.4-1.2 5-1.3 8.6-1.5zM438.2 154.2c-2.5-.7-6.2-.4-6.5-4.8-.2-3 3.5-6 7.5-5.7 3.1.2 6.6.4 6.9 4.7.1 2.9-3.6 5.7-7.9 5.8zM330.7 153.1c3.8-5.2 7.1-6.1 10.1-3.5 2.9 2.6 3.2 9.8.4 12.8-2.7 2.8-5.3 2.4-9.1-1.6-2.1 4.6-1.4 10.9 1.8 14.4 2.5 2.8 2.1 5.4-1.3 6.5-3.9 1.2-8 1.9-12.2.7-3.6-1.1-4.2-3.2-2.6-6.4 2.9-6.1 3.4-12.2-.7-18.1-.4-.6-.9-1.7-.7-2.2 1.6-4.3 5.7-5.1 9.4-6.3 2.7-.9 5.1-.5 4.9 3.7zM160.1 226c-.5-5.3 1.6-8.5 5.3-8.7 4-.2 8.8 4.3 8.9 8.5.1 4.1-2.4 5.8-9.5 5.7 4.6 3.9 6.3 9.5 13.1 9.2 3.4-.1 3.8 2.8 2.3 5.4-2.1 3.6-5.1 6.6-8.8 8.6-3.5 1.9-5.5.7-6.6-3-1.9-6.2-5.3-11.1-12.3-12.3-1.1-.2-2-.8-2.2-1.8-1-4.2 1.6-7.2 3.5-10.4 1.6-2.5 3.6-3.1 6.3-1.2zM465.8 201.1c-8.7-.1-13.6-7.2-11.8-17.3 2.3-12.7 14.4-19.8 23.9-14.1 5.3 3.2 6.8 9.6 3.1 14-1.4 1.8-3.2 2.9-5.6 2.3-2.3-.6-2.7-2.6-2.9-4.6-.2-1.6.8-4.1-2-4.3-2.4-.1-3.2 2.1-3.9 4-2 5.7.5 9.4 6.4 9.9 3.8.3 4.8 2.3 2.7 5.5-2.3 3.5-5.9 4.6-9.9 4.6zM297.3 174.1c.2 3.4-.7 6.6-2.4 9.5-5.1 9.2-16.3 10.3-23 2.1-5.5-6.8-5.3-18 .6-24.2 3.9-4.1 8.7-6 14.4-4.3 6.4 1.9 8.7 7.1 10 13 .4 1.2.3 2.5.4 3.9zM517.9 202.8c-.1 10-9.3 19.5-18.8 19.5-7.6-.1-12.9-5.7-12.8-13.4.2-10.2 8.8-19.4 18.2-19.5 7.7-.1 13.5 5.6 13.4 13.4z"/><path class="st7" d="M221.1 513.5c-1.8-.2-3.6-.5-5.3-.7-7.1 1.6-9.9-.1-9.9-6.7-.2-26.5 0-53-.1-79.5 0-1.2.1-2.3.7-3.4-.4-5.1 1.5-7 6.8-5.3 3.6 1.1 7.4 1.6 11.2 1.8 4.1.3 5.4 2.2 5 6-.1 1.1.4 2.2.6 3.3 3.3 4.5 1.6 9.8 2.5 14.7.8 4.8.9 9.8.7 14.7V457.5c-.2-8.2.8-16.4 1.5-24.6.1-1.5.5-2.9 1.5-4.1.1-.5.4-1 .4-1.4-.2-4.6 2-5.7 6-4.3 1.1.4 2.2.5 3.4.8 4.3 1.1 10.3.2 12.4 3.6 2.1 3.2.7 8.6.7 13.1.1 13.9.2 27.8.4 41.7.2.3.5.6.5.9 1 12.4 1.5 24.7-.3 37.1-2.1 2.5-4.7 1.5-7.2.9-8.8-1.8-9.9-3.1-9.9-11.8-.1-15.4 0-30.9.9-42.2-.2 12.4-1.8 28.9-3 45.3-.1 1.8-.5 3.7-2.6 4.3-1.5-.3-3.1-.6-4.6-.9-4.8.3-6.2-.5-6.9-5.5-1.1-8.2-1.7-16.4-2.8-24.6-1.2-9.3-1.1-18.7-1.9-26.6 1.1 3.2.4 8.1.6 12.8.4 11.7.9 23.4 1.3 35.2.2 2.3.5 5.1-2.6 6.3zM477.9 569.9c-2.1.2-4.3.3-6.4.5-7.6 1.3-9.8 0-11.2-7.2-1.9-9.9-4.5-19.7-5.2-29.8 0-.7-.6-1.5-.3-1.8 1.6 9.6 1 19.7 1 29.8 0 2.2.4 4.7-1.6 6.5-2.1-.1-4.3-.2-6.4-.3-6.1 1.2-8.7-.6-9.7-6.5-.4-2.3-.4-4.6-.4-6.9v-69.3c0-2.8-.6-5.7 1.5-8.1.4-.5 0-2.8.3-3.6.4-1.1 1-1.8 2.1-2.2 1.3-.5 2.8.1 4.1.3 4.8.5 8.9-.1 9.3 6 0 .7.6 1.5.9 2.2 1 .5 1.4 1.4 1.5 2.5 1.6 9.5 4.6 18.6 4.9 26.3-1.1-7.5-.5-17.1-.5-26.7 0-1.3.2-2.6 1.3-3.6.4-2.7-.6-5.8 4.4-5.7 9.9.4 9.9 0 10.5 5.6 1.8 1.7 1.7 3.9 1.7 6 .1 26.5 0 53 0 79.5.1 2.4.4 4.9-1.8 6.5zM553.3 564.5c-.9.3-1.8.5-2.6.8-.9 1-2.1 1.5-3.4 1.9-5.1 1.3-7.7-.4-7.8-5.7-.3-9.9 0-19.9-.1-29.8 0-1.9.3-3.8-.9-5.8-1.4 2.1-.9 4.1-.9 6-.1 10.3.1 20.5-.1 30.7 0 2.3 1 5.7-3.3 5.8-1.8.2-3.7.3-5.5.5-6.7 4.3-11.1 2.2-11.1-5.3-.2-27.8-.1-55.6 0-83.4 0-2 .1-4 1.4-5.7-.4-4 1.6-5.4 5.4-5.7 8.5-.7 16.9-3.6 25.6-2.1 6.1 3.4 7.5 9.6 8.2 15.5.9 7.1.9 14.5-.9 21.7-1.1 4.1-2.7 7.8-7 8.9 5.3.8 6.8 5.3 8 9.8.7 12.3.4 24.7.1 37-.3 2.9-.8 6-5.1 4.9zM307.9 446.3c.8-7.1.9-7.1 7.9-5.2 4.4 1.3 8.8 2.7 13.2 4.1 6.4 1.9 11.6 5.4 14.6 11.7 2.8 2.8 3.4 6.3 3.5 10 .1 5.1 0 10.3 0 15.4 0 4.9-.9 9.2-6.1 12.1 5.9 5.3 6.1 12 6.1 18.9 0 6.6-.8 13.2.7 19.8 0 3.9 1.7 8.1-1.5 11.6-1.8-.3-3.7-.5-5.5-.8-8.5.6-11.5-2-11.5-10.1-.1-8.5 0-16.9 0-25.4 0-2.8-.1-5.6-2.1-8.7-1.2 3.9-.9 7.1-.4 10.2 1.1 8.1.6 16.2.5 24.3 0 1.7.4 3.8-2 4.6l-6-1.2c-8.9.6-11.8-2-11.9-10.7v-22.8c0-7.8 0-15.5-.7-23.3-1.1-11.5.1-23 1.2-34.5zM387.5 556.4c-.9-.3-1.7-.6-2.6-.8-8.2 1-10.7-1.2-10.8-9.1v-22.8c0-3.5-.5-6.8-1.8-10.7-1.5 2.1-1.1 3.9-1.1 5.6 0 9.1.1 18.2-.1 27.3 0 2.1.8 4.9-2.5 5.7-1.4-.8-3-1.3-4.7-1.1-9.7.5-12.8-2.3-12.8-11.7.1-26.1-.3-52.3.2-78.4 1.1-2.3.4-5 1.5-7.3 11.4 2.2 22.8 4.7 32.4 11.9 3.8 3.3 4.8 7.9 5.5 12.4.9 6 1.5 12.1 1.1 18.2-.3 4.7-1.3 8.9-6.4 11 3.8 3.5 5.5 7.7 6.4 12.2.5 10.9.3 21.7.1 32.6.1 2.3.9 6.7-4.4 5z"/><path class="st7" d="M577.7 557c-2.2.9-4.5 1.8-6.8 2.6-.4.3-.7.7-1.1.9-3 1.8-6.4 4-9.6 1.9-2.9-1.8-1.4-5.4-1.2-8.3 1.2-18 3-35.9 4.5-53.9 1-11.9 1.9-23.7 3.2-35.5.6-4.3 3.2-6.4 7.4-6.8 5.2-.9 10.2-2.8 15.1-4.6 2.9-1.1 4.2-.5 4.5 2.8 2.2 23.3 4.6 46.7 7 70 .4 3.9.4 8 1.4 11.8 1.6 6.1-.4 9.7-6.2 11.5-.5.4.2 0-.3.4-2.7 2.2-5.8 5-9.2 3.6-3.3-1.4-2.5-5.7-2.9-8.9-.2-1.7 1.2-4.8-1.6-4.8-2.5 0-2.3 3.1-2.6 5.2-.7 4 1 8.3-1.6 12.1zM280.7 517.3c-.1 1-.4 2-.3 2.9.7 4.8-.8 6.9-5.9 5.3-.8 0-1.6.3-2.5.2-9-.7-11.1-3-10.3-11.9 2.4-24.1 4-48.3 6.8-72.4.2-1.8.1-3.7 1.6-5.1 1.5-7 1.5-7.1 8.6-5.2 5.7 1.5 11.4 3.2 17.1 4.9 1.3 3.4 1.5 7.1 1.5 10.6.1 9.5 3.2 18.5 3.7 27.8.2 3.7-.2 7.6 1.1 11.3 1.5 13.6 2.7 27.4 4.2 41 .2 1.5.2 3-.1 4.5-.6 2.7-2.1 3.2-4.3 1.6-1.2-.4-2.3-1.5-3.8-.7-7.7.6-11.2-2.2-11.4-9.2-.1-2.6-.3-5.3-.9-7.8-.3-1.1-.6-2.5-1.9-2.6-1.7-.1-1.3 1.5-1.6 2.5-.4.9-.5 1.9-1.6 2.3zM411.8 557.9c-.3 5.3-4.3 1.4-6.3 2.6-3.4.8-6.5-.7-9.6-1.5-2.8-.8-3-3-3-5.5.2-10.1 1.7-20.1 2.5-30.2 1.5-17.1 3.2-34.2 4.9-51.3.2-1.3 1.1-2.4 1.3-3.7.3-2.5 1.8-3.3 4.1-2.9 6.6 1.1 13.1 2.3 19.7 3.3.8.1 1.4.7 1.9 1.4 1.1 16.2 2.6 32.3 5 48.3 2.8 3.9 2 8.6 2.3 12.9.7 9.2 2.4 18.3 2.8 27.5.2 3.1 1.1 6.5-3.3 7.6-1.7 0-3.4-.1-5.1-.6-1.7-.1-3.2-.4-4.9-.7-3.9-.7-6.2-2.8-6.1-7 0-2.3-.5-4.6-.9-6.9-.3-1.5 0-4-2.1-3.9-2.4 0-1.9 2.7-2.1 4.3-.3 2.2.3 4.4-1.1 6.3zM154.3 418.8c-.3-5 2.1-6.5 6.8-5.8 4.4.6 8.9.9 13.4.7 4.6-.3 5.3 2 5.7 5.8 2.8 28.5 5.8 56.9 9 85.4.7 6.8-4.3 2.7-6.4 4-6.7 2.7-12.4-.4-12.5-7.5 0-2.1 0-4.3-.3-6.4-.2-1-.5-2-1.7-2.1-1.6-.1-1.8 1.1-2 2.3-.3 2 0 3.9-.2 6-.1 2.1.3 4.3-1.4 6.1-2 .3-4.1.6-6.1.8-1.9 1.4-4.1 1.2-6.2 1.2-6.1-.1-6.7-1.4-6.4-7.5.6-13.7 2.1-27.3 3.1-40.9.9-12.2 2.6-24.3 3.2-36.5 0-2.2.7-4 2-5.6zM484.2 477.7c-.6-4.7 1.8-5.8 6-5.8 6 0 11.9-.4 17.8-1.1 3.9-.5 5.5.7 5.1 4.6 2.1 5.3 2.3 10.5-.3 15.6-1.5 1.1-3.3 1.1-5 1.1-3.8-.4-6 .9-5.5 5.1.1 1 0 2 0 3 .1 2.5-.7 5.2.7 7.3 1.6 2.4 4.3.5 6.5 1 1.1.3 2.3.5 3 1.5 1.5 5.9 1.2 11.9.2 17.8-2.3 3.3-6 1.4-8.9 2.4-.4.3-.7.6-1 1-.3 4.7-.1 9.5-.5 14.2-.2 3.2 1.2 4.6 4.5 4 2.1-.4 4.3-.6 6.4.4 1.4.8 1.9 2.3 2.1 3.8.4 4.6.4 9.2 0 13.9-.2 1.8-.7 3.7-3.3 3.3h-4.4c-6.8 2.3-13.8 1.4-20.6.7-3.1-.4-3.4-3.4-3.4-5.9.1-8.8-.9-17.5-1-26.3-.3-17.2-.1-34.5-.1-51.7 0-3.5-.1-6.9 1.7-9.9z"/><path d="M140.3 508.8c-.8 0-1.7 0-2.5.1-5.5 2.8-11.5 2.9-17.4 3.1-3.2.1-4.8-1.8-5-5-.1-1.7-.1-3.3-.1-5v-73.2c0-2.8-.3-5.7 1.3-8.2-.4-4.1 1.3-5.6 5.6-5.9 11.6-.8 11.6-1.1 11.6 10.7v56.7c0 8.1.1 8.1 8.4 7.3 2.4-.3 2.6 1.6 3 3.2 1.1 4.4 1.2 8.9.5 13.3-.6 3-2.3 4.2-5.4 2.9z" fill="#f6f3f3"/><path class="st9" d="M116.5 420.6l.3 82.1c0 8.9 0 8.9 8.7 7.5 4.1-.7 8.1-1.6 12.3-1.3.9 4.6-1.1 5.9-5.7 6-6.1.2-12.2 1.2-18.2 2.1-3 .5-3.9-.4-3.9-3.3 0-29.7 0-59.3-.2-89 0-5.6 4.3-3.1 6.7-4.1z"/><path class="st0" d="M484.2 477.7c.1 1.6.4 3.2.4 4.9 0 27.8.2 55.6 0 83.4 0 3.6.8 5 4.6 4.8 6.1-.3 12.2-.1 18.4-.1 1.3 4.5-.3 6.2-5 6-5.7-.3-11.5.3-17.2.4-7.1 0-7.1 0-7.4-7.1v-87c0-1.7.2-3.3.3-5 1.8-.1 3.9-.2 5.9-.3z"/><path class="st10" d="M206.5 423.2c.8 1.7.5 3.6.5 5.4.1 25.3.3 50.5.1 75.8 0 5 .9 7.8 6.4 7.7.8 0 1.6.4 2.4.7-.3 6.7-.3 6.7-7.1 5.9-8.1-1-8.2-1-8.2-9.3-.1-26.8-.2-53.5-.2-80.3-.2-6.3-.1-6.3 6.1-5.9z"/><path class="st1" d="M511.8 528.6v-19c-2.2-6.3-2.3-12.6.1-18.9 2.3-5 .1-10.3 1.3-15.3 1.8-.2 3.7-.5 5.5-.7l.3 60c0 9.9.2 19.9-.1 29.8-.1 4.6.9 6.4 5.7 5 1.2-.4 2.6-.3 3.9-.4 2.3 2.9 2.5 5-2 5.5-2.9.3-6 .4-8.8 1.2-4.9 1.4-6.2-.5-5.7-5 2.8-2.5 2.9-17.8.1-20.4-2.7-7.3-2.4-14.5-.3-21.8z"/><path class="st10" d="M301.9 532.8c2.7.6 3.6-.1 3.2-3.2-1.6-14.6-3.6-29.2-4.2-43.9.5-9.2-1.7-18.5.4-27.8.6-2.5 0-5.2-.3-7.8-.3-1.8-.3-3.6 1.1-5.1 1.9.4 3.9.9 5.8 1.3.8 1.5.5 3.2.5 4.9.1 25.6.3 51.3.1 76.9 0 4.8 1.1 7.4 6 7.9 1.6.2 3.1 1.1 4.6 1.7-.4 7.8-.4 7.8-8.1 5.6-.6-.2-1.3-.4-1.9-.6-8.7-2.6-7.2-1.6-7.2-9.9z"/><path class="st0" d="M352.7 459.7l.3 47.1c.1 11.7.4 23.5.1 35.2-.1 3.9 1 5.7 4.9 6.2 2.1.3 4 1.4 6 2.1-.6 7.3-.6 7.3-7.8 5.4-.3-.1-.7-.2-1-.3-8.4-2.2-8.4-2.2-8.8-10.8 0-4.3 0-8.7.1-13-.5-3.6 0-7.3-.3-10.9-1.4-19.6.8-39.2-.3-58.8-.2-4 1.6-4.6 6.8-2.2zM270.1 436.3c-1.1 13.1-2.2 26.3-3.4 39.4-1.2 14-2.3 28-3.8 41.9-.4 3.6.5 5.1 4.1 5.6 2.6.3 5.2.8 7.5 2.3-.8 7.2-.8 7.1-8 5.4-3.4-.8-6.8-1.7-10.1-2.5-2.1-5.5-1.9-6.4 2.4-7.3 1.4-5.5.4-11.1.6-16.7.2-7.4.2-14.8.2-22.3 1.2-11.6 2.3-23.1 3.5-34.7.2-2.3.8-4.6.7-6.8-.3-5.1 2.3-5.7 6.3-4.3z"/><path class="st1" d="M401.5 472c-1.4 16.3-2.9 32.6-4.3 49-1 11.2-1.8 22.4-3 33.6-.3 2.7 1 3.2 2.8 3.5 2.9.5 5.9.9 8.5 2.5-.4 7-.4 7-7.4 5.6-1.3-.3-2.5-.9-3.8-.9-5.9-.2-8-3.2-6.8-8.9 2.8.3 3.4-1.2 3.4-3.8-.2-11.7-.1-23.5-.2-35.2-.6-11.6 1-23.1 3.1-34.5.4-2.5.2-5 .7-7.4.9-4.8 2.1-5.5 7-3.5zM567.8 464.1c-1.9 22.9-3.7 45.8-5.6 68.7-.7 8.9-1.4 17.8-2.3 26.7-.3 2.8.7 3 3.1 2.3 2.6-.8 5-2.5 7.9-2.3.4 2.6-.4 4.3-3.2 5-3.6.9-7.1 2.4-10.7 3.5-3.2 1-4.8.2-3.7-3.5 2.3-.4 3.6-1.4 3.6-4.2-.2-13-.2-26-.3-39.1-.9-6.1-.7-12.2.4-18.2.8-4.6 1.3-9.2 1.2-13.7-.2-7.3 2.5-14.2 2.8-21.4.1-3.7 3.8-3.8 6.8-3.8zM140.3 508.8c2.9-.1 4.3-1.4 4-4.6-.4-3.9-.2-7.8-.2-11.7 0-1.4.3-3.1-2-3.2 1.1-19.5 3.1-38.8 5-58.3.2-2 .7-4 .5-5.9-.6-5.3 1.7-7.2 6.8-6.4-2.4 28.2-4.8 56.5-7.3 84.7-.3 3.2.1 4.6 3.6 4.2 2.6-.3 5.3.1 7.9.2.1 4.5-1.7 6.6-6.5 6-2.2-.3-4.6.1-6.9.4-4.6.8-6.2-1-4.9-5.4z"/><path class="st10" d="M433.5 565.5c4.3.6 2.8-2.6 2.7-4.5-1-10.9-2.2-21.7-3.3-32.6-.3-3.3-.4-6.6-.7-9.9 1.1-11.8 1.1-23.7.7-35.5-.1-5.1 1.3-7 6.3-6 .1 3.3.4 6.6.4 9.9.1 23.7.1 47.4.2 71.1 0 8.1 0 8.1 7.9 9.8-.3 7-.3 7-7.6 5.8-2.2-.4-4.5-.8-6.8-1.3-.6-2.3-1-4.6.2-6.8z"/><path d="M368.7 551.4c2.3-1.1 1.3-3.2 1.3-4.8 0-11.2-.1-22.4-.1-33.7 0-1.2-.8-3.1 1-3.4 1.8-.3 3.2 1.1 3.6 2.8.6 2.7.9 5.6.9 8.3.2 8.9.4 17.8.1 26.7-.1 4.2.9 6.5 5.3 6.8 1.4.1 2.8.9 4.2 1.3-.1 1.1-.3 2.3-.2 3.5.3 3.6-1.7 3.8-4.3 3.1-1.6-.4-3.1-1.1-4.7-1.4-7.8-1.3-7.3-.5-7.1-9.2z" fill="#090609"/><path class="st9" d="M325.3 538.9c1.1-11.2-.2-22.4 0-33.6 0-1.3-.2-2.7 0-3.9.3-1.6-1.3-4.3 1.2-4.5 2.4-.2 3.4 2.2 3.7 4.5 1 7.1.4 14.2.5 21.3.1 4.5.3 8.9 0 13.4-.3 3.7.9 5.4 4.6 5.9 1.9.2 3.7 1.3 5.6 2-.9 7.6-.9 7.6-8.3 5.5-1.3-.4-2.5-.7-3.8-1.1-5.3-1.5-6.3-4.1-3.5-9.5z"/><path class="st1" d="M534.1 568.6c2.5-.7 1.9-2.8 1.9-4.5 0-12.2-.1-24.5 0-36.7 0-1.7-1.8-4.9 1.9-5 3.4 0 2.9 3.1 3 5.2.1 10.9.1 21.8.1 32.7 0 6.7 0 6.7 6.7 5.3 1-.2 2-.2 2.9-.3.6 3.2-.5 4.9-4 5.3-2.6.3-5.2 1-7.7 1.8-3.5 1.1-5.2 0-4.8-3.8z"/><path class="st10" d="M221.1 513.5c1.4-1.6.8-3.5.8-5.3 0-16.9 0-33.8.4-50.8 1.3 12.4 2.7 24.9 4 37.3.5 4.8 1.1 9.6 1.4 14.3.2 3.9 1.5 6.5 5.7 6.8-.8 6.7-5.3 8.8-10.7 4.9-2.5-1.8-1-4.8-1.6-7.2z"/><path class="st1" d="M238 516.8c2.5-10.7 2.1-21.6 3.4-32.4.9-7.7 1.4-15.4 3.1-23.1V490c0 7.1.4 14.2 0 21.3-.2 4.9 1 8 6.4 8.1.8 0 1.6.4 2.4.7 1.4 1.9 1.8 4 .4 6-1.5 2.2-4 1.2-5.9.8-2.5-.5-5.1-1.1-7.5-2.1-4.2-1.8-1.3-5.4-2.3-8zM454.2 568v-38.6c.3 0 .5-.1.7-.1 1.4 7.1 2.8 14.2 4.3 21.3.9 4.4 2 8.7 2.5 13.1s2.4 6.4 6.9 6.1c.9-.1 1.9.4 2.8.6.7 5.2-1.6 6.1-6.4 6.1-6.3-.1-9.9-2.3-10.8-8.5z"/><path class="st9" d="M411.8 557.9c.1-3.3 0-6.6.3-9.9.1-1.1-1-4 2.1-3.1 1.9.5 4.9 0 4.6 3.7-.2 2.8.6 5.7.4 8.4-.5 4.6 1.2 6.8 5.8 6.9 1.4 0 2.9.5 4.4.7 1.6 1.9 2.4 4.5 1 6.4-1.3 1.7-3.9 1.1-5.9.2-3.6-1.1-8.1-.1-10.8-2.6-2.9-2.6-.3-7.2-1.9-10.7zM280.7 517.3c.1-1.3-.1-2.7.3-3.9.4-1.1-1.3-3.6 1.5-3 1.8.4 4.6-.4 4.8 3 .1 3.6.7 7.2.6 10.9-.1 3.4.8 5.2 4.4 5.7 2 .3 3.9 1.5 5.7 2.2v.7c.7 5.7.7 5.7-5.3 4.8-.2 0-.4.1-.5 0-11-1.8-11-1.8-11.3-12.9 0-2.6-.1-5-.2-7.5z"/><path class="st1" d="M164.7 507.1c0-4.5.3-8.9.1-13.4-.1-2.9 1.3-3.1 3.6-3.1 2.2 0 3.3.5 3.3 3-.1 3.1.5 6.3.3 9.4-.3 3.8 1.3 5.3 5 5.2 2 0 3.9.4 5.9.6.5 6.1.5 6.1-5.7 5.9-.8 0-1.7 0-2.5-.1-8.2-.2-8.2-.2-10-7.5z"/><path d="M401.5 472c-6.1-.5-6.1-.5-6.8 7-1 11.4-2 22.7-3.1 34.1-.1 1.4 0 3-.9 4.3-1.8-4.4-3.5-8.9-9.8-11.7 7.7-.1 9.4-4 9.6-9.2.4-10.9 1.3-21.8-5.2-31.6 5.1 2.8 5 8.1 6.2 12.7.4 1.4-.6 3.2.9 4.5 1.5-.7 1.1-2 1.1-3 0-4.4-.4-8.9 5.8-9.6 1.2-.1 1.2-1.4 1.5-2.3.7-1.8 1.8-2.8 3.8-2.5 7.1 1.1 14.2 2.2 21.3 3.4.6.1.9 1.2 1.4 1.8-7.2-2.2-14.8-2.9-22.2-4.1-4.8-.5-2 4.4-3.6 6.2z" fill="#c03231"/><path class="st13" d="M567.8 464.1c-7.1.1-6.5 5.5-6.9 10.2-1.4 15.6-2.8 31.3-4.2 47-1.7-3.6-3.4-7.1-8.5-8.2 6.1-3 8-8 8.4-13.7.6-7.1.7-14.2-.5-21.2-.8-4.6-2.6-8.5-6.3-11.4 4.5 1.1 6 4.6 7.1 8.5.3 1 .2 2.1 1.5 2.1s1.4-1.2 1.4-2.2v-5.5c0-1 0-2 .2-2.9.6-1.8 9.7-9.9 11.9-9.9-2.7 1.4-4.6 2.7-4.1 7.2z"/><path d="M577.7 557c0-4.8.2-9.6 0-14.3-.1-3 1.3-4.3 4-5.2 2.1-.7 2.9-.5 2.9 1.9.1 4.6.5 9.2.8 14.2 3.7-1.5 7-2.8 10.3-4.1 1.1 2.1-.4 3-1.9 3.8-4.1 2-8.4 3.8-12.4 5.8-2.6 1.3-3.1-.4-3.7-2.1z" fill="#0c090c"/><path class="st10" d="M463.1 478c.7 11.5.2 22.9-.2 34.5-2.6-10.9-5.8-21.7-6.9-32.8 1.9-2.6 4.7-1.4 7.1-1.7z"/><path d="M352.7 459.7c-6.4-1.5-6.3-1.5-6.3 5.5v66.5c-.2-7.1-.4-14.2-.4-21.3 0-7-2-13-9.8-17.9 8.6 1.1 9.2-3.6 9.6-8.6.6-9.1.7-18.1-2.1-27 4.1 1.1 8 1.8 9.2-3.9-.1 2.2-.1 4.5-.2 6.7z" fill="#b23234"/><path d="M236.3 428.8c-.7 10-1.4 19.9-2.1 29.9-.4.7-.6 1.7-1.8 1-.8-10.3-1.5-20.5-2.3-30.7 2-2 4.1-.1 6.2-.2z" fill="#0e0b0d"/><path d="M302.1 445c-.1 11.1-.3 22.3-.4 33.4 0 2.5.2 4.9-.7 7.3-1.9-6.4-1.6-13.1-2.4-19.5-1.1-10-1.9-20.1-2.8-30.1 2 3.3 2.1 7.1 2.1 10.8 0 4.3.7 8.3 2.1 12.4 1.1-2.6.9-5.1.3-7.8-.4-2.4-1.4-5.1 1.8-6.5z" fill="#c23738"/><path d="M240.3 524.7c1.8.3 3.5.4 5.3.9 7.5 1.8 7.5 1.9 7.8-5.6 1.8.4 3.7.7 5.5 1.1-4 1.4-1.9 4.8-2.4 7.3-3.9-1.1-7.9-.4-11.8-1.8-1.6-.5-3.2-.6-4.4-1.9z" fill="#9c242a"/><path d="M424.5 571.3c6.1.2 6.1.2 4.9-6.6 1.4.3 2.8.5 4.2.8 0 2.3 0 4.5-.1 6.8-1.8-.7-.7-2.7-1.5-3.9-1.3 5-2.2 5.3-7.5 2.9z" fill="#942729"/><path class="st10" d="M292.7 537.6c3.6.3 6-.5 5.3-4.8 1.4 2 1.8 4.7.3 6.1-1.4 1.2-3.8-.2-5.6-1.3z"/><path class="st0" d="M477.1 308c.2 2-.4 3.7-3.6 2.1-2.2-1.2-4.1-.2-6.1.8-5.3 2.8-10.9 3.9-16.8 2.8-2.1-.4-4.9-.8-4.9-3.3 0-2.6 3-2.2 4.7-2.5 4.3-.8 8.4-1.6 12.4-3.6 2.8-1.4 3-3.2 1.2-5.4-3.7-4.9-9.2-6.4-14.7-7.4-9.1-1.6-18.5-.9-27.7-2.9-4.2-.9-8.4-2.1-11.7-5-.8-.7-1.9-1.6-1.5-2.9.4-1.5 2-1.3 3-1 12.5 3.9 25.7 2.1 38.4 3.9 10.9 1.5 19.5 7 25.3 16.5 1.3 2.2 1.9 4.7 2 7.9z"/><path class="st10" d="M537.4 300.9c0 2.3-.9 2.9-2.5 2.2-6-2.5-12.1-2.6-18.4-1.9-1.4.1-2.8.4-2.5-1.8.5-4.2 6.4-7.4 12.8-7 5.9.3 10.8 4.4 10.6 8.5z"/><path d="M232.3 179.4c2.1.5 3 2.3 3.9 4.1.9 1.8 1.9 3.6 1 5.7-.1.3-.4.5-.7.7-1 .5-2 .4-2.8-.2-2.4-2-3.6-4.7-3.9-7.8-.1-1.1.5-1.9 1.5-2.3.2-.1.6-.1 1-.2z" fill="#1a0f0f"/><path d="M241.3 212.1c-1.5 0-3.3-.2-3.7-1.8-.6-2.3 1.8-1.7 2.9-2.3.9-.5 1.7-1.1 2.6-1.4 1.4-.5 2.8-2.6 4.2-.4 1.3 2.1-.4 3.4-1.9 4.4-1.1 1-2.5 1.6-4.1 1.5z" fill="#1a0e10"/><path d="M287.2 179c0 1.7.1 3-1.2 3.5s-2.2-.3-2.9-1.3c-2.5-3.8-4.2-7.9-4.8-12.4-.2-1.3-.2-2.8 1.4-3.3 1.3-.4 2.2.6 2.8 1.6 2.7 3.8 4.2 7.9 4.7 11.9z" fill="#120c0f"/><path d="M497.2 211.2c1.2-4.5 2.6-8.9 5.7-12.5.7-.8 1.5-2 2.8-1.2 1.1.7 1.3 1.8 1.1 3.1-.9 4.6-2.7 8.8-5.4 12.7-.7 1-1.5 1.9-2.8 1.4-1.7-.7-1.4-2.2-1.4-3.5z" fill="#140d0f"/><path d="M535.9 495.6v-8.4c0-1.2-.5-2.9 1.6-3 1.7-.1 3 .7 3.2 2.5.7 5.6.7 11.2-.1 16.8-.2 1.8-1.6 3.2-3.4 3.1-2.4-.1-1.2-2.2-1.3-3.5-.2-2.6 0-5.1 0-7.5z" fill="#0c0a0c"/><path d="M330.8 473.5c-.1 1.2-.1 3.3-.4 5.5-.2 1.8-.9 3.1-3.2 2.9-2.1-.2-2.1-1.7-2.1-3.2v-14.9c0-1.1-.6-2.7.8-3.1 1.6-.5 2.8.8 3.6 2.1 1.8 3.1 1.1 6.5 1.3 10.7z" fill="#141213"/><path d="M369.7 483.8v-7.4c0-.9-.4-2.1.8-2.5 1.3-.4 2.2.4 2.9 1.4.6.7 1 1.7 1.2 2.6 1 4.7.9 9.5.1 14.2-.3 1.7-1 2.7-2.8 2.6-2.1 0-2.3-1.4-2.2-3 .1-2.6 0-5.3 0-7.9z" fill="#121011"/><path d="M581.5 481.7c.8 11.5 1.5 23 2.4 34.5.2 2.8-1.2 3.7-3.4 4.5-2.1.7-2.6-.1-2.4-2.1 1-12.3 1.9-24.6 2.8-36.9h.6z" fill="#0f0d0f"/><path d="M283.4 457.3c2.3 9.2 1.4 18.4 2.6 27.4.3 2 .4 3.9.5 6 0 1.3 1.7 3.7-1.4 3.5-1.9-.2-4.4-.3-4.1-3.6.8-9.7 1.5-19.5 2.2-29.2 0-1.4.1-2.7.2-4.1z" fill="#0b090b"/><path d="M415.2 495.2c1.9 8.3 1.3 16.7 2.2 25 .2 1.6.3 3.3.2 5-.1 1.3 1.8 3.6-1.5 3.5-2.1-.1-4.1-.1-3.9-3.6.8-10 1-20 3-29.9z" fill="#0a080a"/><path d="M168.3 440.2c.7 10.4 1.4 20.8 2.2 31.2.1 1.5.4 3.2-2 2.9-1.6-.2-4 .6-3.7-2.5l2.4-31.5c.3-.1.7-.1 1.1-.1z" fill="#110f10"/><path d="M511.8 528.6c-3 .2-6 .4-8.9.5l-1.4.8v10.8c-.1 10.9-.1 10.9 10.6 9.6l-.3-21.7z" fill="#c13032"/><path class="st13" d="M511.9 490.7c0 6.3 0 12.6-.1 18.9-10.4.8-10.4.8-10.4-9.7 0-1 .1-8.9.1-8.9h5.3c.2 0 3.5-.2 5.1-.3z"/></svg>