<?xml version="1.0" encoding="utf-8"?>
<!-- Generator: Adobe Illustrator 23.0.3, SVG Export Plug-In . SVG Version: 6.00 Build 0)  -->
<svg version="1.1" id="Capa_1" xmlns="http://www.w3.org/2000/svg" xmlns:xlink="http://www.w3.org/1999/xlink" x="0px" y="0px"
	 viewBox="0 0 1630.9 1125.3" style="enable-background:new 0 0 1630.9 1125.3;" xml:space="preserve">
<style type="text/css">
	.st0{fill:#020101;}
	.st1{fill:#060202;}
	.st2{fill:#050202;}
	.st3{fill:#EFEBEC;}
	.st4{fill:#E61B24;}
	.st5{fill:#EEA6A9;}
	.st6{fill:#FFFFFF;}
	.st7{fill:#ECA6A9;}
	.st8{fill:#E9A6A9;}
	.st9{fill:#EB801F;}
	.st10{fill:#EB8020;}
	.st11{fill:#EB7F20;}
	.st12{fill:#E27C23;}
	.st13{fill:#DC7C29;}
	.st14{fill:#E27C22;}
	.st15{fill:#EB7F1F;}
	.st16{fill:#EC7F1F;}
	.st17{fill:#EC801F;}
	.st18{fill:#F6F4F5;}
	.st19{fill:#F7F4F4;}
	.st20{fill:#060101;}
	.st21{fill:#080303;}
	.st22{fill:#080404;}
	.st23{fill:#040202;}
	.st24{fill:#060203;}
	.st25{fill:#090303;}
	.st26{fill:#080606;}
	.st27{fill:#070404;}
	.st28{fill:#050404;}
	.st29{fill:#090606;}
	.st30{fill:#060304;}
	.st31{fill:#050303;}
	.st32{fill:#070304;}
	.st33{fill:#070203;}
	.st34{fill:#CE2D30;}
	.st35{fill:#D22C31;}
	.st36{fill:#0C0505;}
	.st37{fill:#090505;}
	.st38{fill:#BF2F34;}
	.st39{fill:#0E0A0A;}
	.st40{fill:#D13337;}
	.st41{fill:#A62129;}
	.st42{fill:#9C2429;}
	.st43{fill:#040101;}
	.st44{fill:#1B0902;}
	.st45{fill:#1B0700;}
	.st46{fill:#120501;}
	.st47{fill:#140501;}
	.st48{fill:#0B0A0B;}
	.st49{fill:#141313;}
	.st50{fill:#121011;}
	.st51{fill:#0F0D0E;}
	.st52{fill:#0B0A0A;}
	.st53{fill:#090808;}
	.st54{fill:#111010;}
	.st55{fill:#E01D25;}
	.st56{fill:#DE232A;}
</style>
<g>
	<path class="st0" d="M1503.9,816c3.9-5.8,7-12.2,11.1-17.9c1.1-1.7,2.2-3.4,3.3-5.1c5.5-7.6,9.6-16.1,15.1-23.7
		c0.9-1.2,1.8-2.5,2.6-3.8c5.4-7.9,10.1-16.2,15.4-24.2c1.8-3,3.8-5.9,5.7-8.9c2.8-4.4,5.8-8.6,8.7-12.8
		c5.4-10.4,13.5-20.6,0.6-31.3c-3.6-2.9-7.6-4.8-12.3-5.4c-28.1-0.6-56.3-0.1-84.4-0.2l-58.8,3c-0.6,0.1-1.3,0.3-1.9,0.4
		c-3.8-2.9-1.7-6.9-1.8-10.3c-0.3-12.9-0.1-25.9-0.1-38.8l-18.8,8.4c-17.5,14.5-35.6,28.1-54.2,41.2c-6,4.2-11.8,8.9-18.9,10.6
		c-1-1.4-1.2-2.1-1.1-2.9c0.1-2.3,0.4-4.5,0.8-6.8c7.9-49.3,4.9-97.9-7.7-146.1c-5.6-21.5-5.3-21.1,15.8-29.3
		c12.1-4.7,25.6-7.7,33.6-19.6c5.7-7.5,17.1-7.2,22.1-15.1c20.6-32.8,39.9-66.1,33-107.3c-1.6-2.9-3.2-5.9-4.8-8.8
		c-9.9-17.7-32-26.1-47.9-16c-8.8,5.6-16.9,5.2-25.9,5.1c-11.3-0.2-22.7-0.8-34-0.2c-13.1,0.7-25.3-3.2-36.5-8.2
		c-33.1-14.7-64.9-32.4-100.9-39.9c-12-3.5-24.5,0.9-36.6-2.3c-1.4-0.5-2.9-0.9-4.1-1.7c-75.6-49.2-158.7-77.6-248.1-86.4
		c-126.5-12.5-247,9-356.5,75.5c-120.1,73-198.4,175.5-211.7,319.9c-0.6,6.9-4,7.5-9.5,7.9c-27.5,2-55,4.3-82.3,8.8
		c-16.5,2.7-16.9,2.6-16.7,19c0.1,7.3-1.8,9.7-9.5,9.6c-29.1-0.6-58.3-0.6-87.4-0.3c-11.1,0.1-23.9-1.9-30.3,10.5
		c-6.1,11.9,3,20.9,8.7,29.9c19.9,31.7,40,63.2,60.5,94.5c6.4,9.8,6.4,18.1-0.1,27.9c-22.1,33.4-43.6,67.2-65.3,100.9
		c-4.5,7-9.2,13.9-12.9,21.3c-6.7,13.5-1.5,24.3,13.2,27.2c7,1.4,14.3,1.2,21.5,1.4c29.9,0.9,59.7,1.8,89.6,2.6
		c5.2,0.1,10,0.3,8.8,7.8c-0.9,5.7,2,6.4,6.6,4.5c3.1-1.3,6.5-2,9.6-3.4c59.6-25,121.1-29.7,184.6-19.4
		c63.1,10.2,124.8,26.6,186.5,42.9c80.3,21.2,160.3,43.1,240.6,64.2c31,8.2,62.3,15,93.5,22.5c25.7-0.1,51.3-0.1,77-0.2
		c-1.8-5.9-7.1-4.7-11.3-5.3c-20.9-3.4-41.9-6.3-62.7-10.6c-80.8-16.6-160.2-39-239.9-60.3c-74.9-20-149.4-41.7-225.2-58.3
		c-35.2-7.7-70.7-13.3-106.6-15.7c-38.9-2.6-76.9,2.8-113.9,15.9c-25.2,9-22.7,9.1-23.2-16c-0.7-35.2,1.9-70.3,2.2-105.4
		c0.5-58.3,0.1-116.5,0.2-174.8c0-15.1,1.6-17.3,16-19.3c38.2-5.3,76.7-8.5,115.2-9.6c47.8-1.4,95.2,4,141.9,14.2
		c94.7,20.7,187.8,47.5,281.2,73c73.8,20.1,147.5,39.8,223.8,48.1c27.9,3,55.9,4.5,83.7,4.3c33.5-0.3,67.3-1.3,100.7-5.9
		c35.6-4.9,71-10.3,104.8-24c35.8-14.6,67.7-35.2,98-58.7c3.5-2.7,7.1-8.4,11.1-6.5c4.8,2.3,2.3,8.8,2.2,13.5
		c-0.8,46.1,0.3,92.2-1.6,138.4c-2.5,58.9,0,118-2.5,177c-0.5,11.7-4.2,18.2-14.7,23.8c-57.4,30.2-119.1,45.7-182.4,56.9
		c-4.1,0.7-9.5-0.6-11.2,5.3c25.5-0.3,51.2,2.7,76.6-2.1c8.7,0,17-1.6,25.4-4c29.5-8.4,58.8-17.8,85.6-32.5
		c19.4-10.6,38.2-14.2,60.2-12.9c34.2,2,68.5,4.2,102.7,5.9c11.6,0.6,21.4-1.1,31.1-6.6c8.8-12.2,0.1-22.2-4.2-32.8
		c-0.5-1-1-2-1.6-3c-16.3-28.5-30.7-58-46.8-86.6c-2.5-4.5-4.8-9.1-7-13.8c-3.7-7.1-7.3-14.2-10.7-21.5c-0.4-0.9-0.9-1.8-1.4-2.6
		c-1.8-2.9-2.9-6.1-3.6-9.4c-0.2-1-0.5-1.9-0.8-2.9c-2.9-13.3,6.6-22.1,11.9-32.5C1498.1,825.5,1500.5,820.4,1503.9,816z"/>
	<path class="st1" d="M291.6,309.3c-2.2,4.7,1.2,6.5,4.5,8.7c10.4,7,20.9,14,21.2,28.6c0,2.3,2,2.7,3.6,3.7
		c12.7,7.9,15.8,16.7,10.5,30.4c-4.7,12.1-11.6,22.9-21.2,31.7c-13,11.9-26.5,8.8-32.4-7.7c-1.4-4-3.8-6.3-7-8.4
		c-10.7-7-21.5-14-32.3-20.9c-3.1-2-6.3-3.2-10.5-2.9c-15.2,1-24-9.9-19.6-24.5c1.6-5.3,4.7-10.3,7.9-14.9
		c8.6-12.4,16.6-25.2,23.6-38.6c6.6-12.6,14.8-16.1,28-12.4C284,286.4,291.9,295.5,291.6,309.3z"/>
	<path class="st1" d="M551.6,122.1c-1,11.6,5.3,20.8,2.2,30.8c-0.7,2.2,0.9,3.3,3,3.7c15.8,3.2,20.5,15.4,22.7,29
		c5.3,31.7-36,65.4-66.1,54.2c-5.9-2.2-11.5-5.6-13.4-11.4c-3.3-9.9-9.6-19-11.4-28.8c-1.7-9.4-5.1-17.2-9.4-25.6
		c-12.4-24.1,4.1-53.5,33-60.4c3.6-0.9,7.4-0.6,9.6-4.8c3.6-6.8,9-11.8,17.3-9.3c8.3,2.5,10.5,10.1,12.1,17.7
		C551.7,119.3,551.6,121.6,551.6,122.1z"/>
	<path class="st1" d="M902.4,163.4c-7.7,0-15-1.7-22-4.4c-17.4-6.8-21.4-24.6-8.1-38.1c4.3-4.4,8.3-7.7,2.3-13.8
		c-2.4-2.4-2.5-6.5-1.7-9.8c4-15.9,7-32.4,14.7-46.8c9.3-17.6,29.7-23.2,46.8-15.1c16.7,7.9,22.8,27.4,13,44.1
		c-3.3,5.6-5.2,11.1-6.4,17.5c-1.6,8.8-3.6,18-13.1,22.5c-3.5,1.7-3.6,3.1-1.5,6.8C936.8,145,924.6,163.7,902.4,163.4z"/>
	<path class="st1" d="M416.6,136.3c6.1,0.4,11.5,2.9,14,8.2c7.7,15.8,20.4,28.2,28.5,43.8c4.2,8.1,8.7,15.9,18.1,20.5
		c8.2,4,9.8,16.8,4.6,26.5c-7.6,14.2-20.2,22.4-35.5,25.6c-11.3,2.4-19.7-5.1-20.5-16.9c-0.9-12.7-5.6-22.9-18.1-28.3
		c-2-0.9-4.6-2.4-5.1-4.1c-3.3-11.7-11.4-20.5-16.9-30.8C376.6,163.9,397.3,135.8,416.6,136.3z"/>
	<path class="st1" d="M819,154.2c-4.3,0.1-9.5-0.4-14.6-2.1c-15.5-5.1-21.1-19.5-12.3-33.4c6.5-10.3,8-20.1,2.6-31.7
		c-4.1-8.7-1.8-18.2,5.6-24.9c3.8-3.5,4.9-6.8,4.7-11.6c-0.4-9.8,4.4-16.5,13.5-20.1c7.4-2.9,14.8-5.5,22.2-8.4
		c8.5-3.3,14,0.3,17,8.1c2.9,7.7,3.1,15.6-0.6,23.1c-11,22.2-12.3,45.6-7.3,69.3C853.5,140.3,841,154.3,819,154.2z"/>
	<path class="st1" d="M986.9,44.8c19.4,0.2,27.6,12,22.9,30.4c-5.3,20.7-8.9,41.8-13.2,62.7c-0.6,2.8,0.8,5.1,1.4,7.6
		c4.4,17.4-7.1,31.7-25.2,31.7c-6.1,0-12-1.3-17.7-3.3c-18.3-6.4-23.2-23.5-11-38.6c6.7-8.3,9.8-17.4,5.7-28c-0.8-2-1.9-4.8-1.1-6.5
		c6.1-13.5,5.7-29,11.8-42.2C965.1,48.2,975.3,44.1,986.9,44.8z"/>
	<path class="st1" d="M754.2,119c13.9,18.2-1.4,39.5-19.3,40.3c-7.1,0.3-14,2.4-21.3,0.9c-16.9-3.3-24.2-16.3-17-31.8
		c5-10.6,5.7-20.2-1.3-30.6c-5.6-8.4-2.9-17.5,3.1-25.2c4.8-6.1,11.4-9.7,18.4-12.7c12.5-5.3,25.9-4.2,38.8-5.1
		c10.7-0.7,16.7,7.7,19.7,17.3C781.4,91.3,773.5,108.4,754.2,119z"/>
	<path class="st1" d="M383.8,264.8c19.8,0.8,28,13,20.7,29.2c-6.2,13.8-16.7,24.2-30.5,30.6c-11.7,5.4-22,0.4-25.4-12.1
		c-3.3-12-9.8-20.4-22.7-23.4c-9.8-2.3-12.5-10.3-12.2-19.2c0.3-8.9,3.9-16.8,8.4-24.4c6.6-11.2,16.8-19.2,25.8-28.1
		c7.8-7.6,20-6.9,29.4-0.5c11,7.6,16.6,21.5,13.6,33.6C389.6,255.3,387.5,259.7,383.8,264.8z"/>
	<path class="st1" d="M1058,98.9c15.1,0.7,27.3,6,34.1,19.4c7.2,14.3,4,27.9-5.4,40.1c-2.8,3.6-5.2,6.6-5.6,11.7
		c-1.2,15.2-11.1,26.5-26,30.5c-15.7,4.3-32.2-0.3-40.6-12.7c-12.9-18.9-10.7-38.6-1-57.9C1022.7,111.6,1037,100,1058,98.9z"/>
	<path class="st2" d="M671.8,124.8c0.8,13-3.3,24.6-10.7,35c-19.5,27.7-54.6,26.1-71.5-3.2c-12.8-22.2-8.7-51.9,9.8-69.7
		C611.7,75,626.6,70,643,75.5c17.6,5.9,24.9,20.9,28.1,38.1C671.8,117.2,671.5,121.1,671.8,124.8z"/>
	<path class="st1" d="M1141,147.8c19.3,5,32.8,16.2,34.2,36.8c1.7,25-9.7,44.5-30.2,58.2c-16.7,11.2-34,10-50.8-0.6
		c-16.3-17.4-16.9-37.5-8-57.9C1096.3,160.8,1114.5,147.8,1141,147.8z"/>
	<path class="st3" d="M1161.9,302.1c-12.2-1-24.5,1.2-36.6-2.3C1137.6,300.7,1150,297,1161.9,302.1z"/>
	<path class="st4" d="M991.8,1087.4c-27.5-5-55.1-8.7-82.5-14.3c-47.7-9.9-94.8-22.2-142-34.5c-99.7-26.1-198.6-55.5-299.1-78.7
		C421.8,949,375,941,327,940.3c-37-0.6-71.9,7.9-106.3,20.2c-14.5,5.2-14.7,4.9-14.5-9.9c0.9-99.9,1.9-199.8,2.4-299.7
		c0.1-10.2,2.8-14.4,13.6-15.8c68.8-9.4,137.6-14.4,206.8-5.9c60.2,7.4,118.4,24,176.8,39.6c86.9,23.2,173.6,46.9,260.7,69.4
		c66.1,17,133.5,26.4,201.8,26.1c59.3-0.3,118.6-3.8,176.5-18.7c49-12.6,90.8-38.6,130.2-69.2c5.6-4.3,12-13.8,16.8-11.3
		c6,3.2,2.3,13.7,2.2,20.9c-1,88.9-2.1,177.8-3.3,266.7c-0.2,18.5-1.1,37.1-1,55.6c0.1,7.8-2.5,12.1-9.5,15.9
		c-55.7,30.5-116,47.3-177.9,58.8c-8.1,1.5-16.2,2.9-24.4,4.4C1119.8,1099.7,1057.6,1099.2,991.8,1087.4z"/>
	<path class="st5" d="M1382,416.4c-5.3,23-18.9,39-37.3,51.7c-39.3,27.1-82.3,31.8-127.9,21.4c-9-2.1-18-4.5-28.3-7.1
		c10.5,19.9,27.8,27.2,46.7,32.4c5.8,1.6,15.2-0.7,16.4,5.7c0.8,4.1-9.1,6.3-14.3,9.1c-49.3,26.2-89.7,63.1-124.3,106
		c-20.6,25.5-25.2,57.7-30.4,89c-0.6,3.7-1.1,7.5-1.3,11.3c-0.3,5.1,1.6,13.3-0.7,14.7c-4.2,2.5-10.9,1.3-16.6,1.2
		c-76.5-0.4-151.3-13.1-225-33c-112.7-30.4-225.2-61.7-338.5-89.6c-24.1-5.9-24.3-5.7-26.3-30c-2.2-26.4,0.9-51.9,10.7-76.8
		c6-15.2,5.2-15.6-10.4-18.1c-1.5-0.2-3.1-0.2-4.5-0.7c-6.2-2.2-15.5-2.1-15.4-10.6c0-7.1,8.7-5.4,13.7-7
		c17.3-5.8,34.1-13,49.3-22.8c42.8-27.7,89.7-31.8,138.6-25.7c43.1,5.4,85.9,13.6,129.5,14.8c33.6,0.9,66.4-3.3,98.4-13.4
		c6.7-2.1,11.4-1.8,17.2,3.2c12.3,10.6,25.4,20.4,41.8,24.1c4.9,1.1,10.9,2.9,13.4-2.2c2.8-6-3.7-8.3-7.7-10.5
		c-24.5-13.2-44.3-31.3-59.8-54.4c-9.4-14.1-15.3-29.5-17.5-46.2c-1-7.8,1-12.2,10.5-9.8c37.3,9.6,75.2,13.2,113.6,11.6
		c33.1-1.3,65.3,0.6,93.2,25.4c0.1-15.2-7.9-23-17.3-30.9c33.7-19.8,68.1-26.8,105.3-14.5c20.1,6.7,39.6,15.1,58.5,24.6
		c29.7,15,60.7,23.1,94.1,19.8c8.4-0.8,9.9,2.2,7,9.3c-2.3,5.7-4.5,11.4-7.5,19.2c12.6-5.9,19-14.9,25.4-23.9
		c5.6-7.9,10.4-18.6,22.7-13.9c12.5,4.7,9.7,16.3,9,26.4c0,0.3-0.4,0.6-1.1,1.7c-10-8.6-20.2-7.2-30,0.5c-5.1,4-7.6,9.4-6.9,15.9
		c0.9,9.1,5.7,11.8,13.9,7.6C1368,418.7,1373.6,414.7,1382,416.4z"/>
	<path class="st4" d="M350.9,613.2c-8.3,0-16.7-0.4-25,0.1c-7.6,0.5-8.8-2.9-8.1-9.5c9.9-100.9,55.7-183.4,130.2-250.4
		c85-76.4,186-117,298.9-128.9c124.4-13.2,241.6,9.7,350,73.4c3.2,1.9,9.2,2.5,7.5,8.3c-1.7,5.5-7.2,4.6-11.7,4.5
		c-11.2-0.2-21.3-4.4-31.1-9.5c-14.8-7.7-29.6-15.3-44.6-22.3c-10.1-4.7-14.8-1.6-16.1,9.5c-0.6,5.6-0.7,11.3-0.6,17
		c0.2,8.5-3.1,10.7-11,7.4c-27.4-11.1-55.8-18.8-84.8-24.3c-52.8-10-105.8-11.5-159-4.7c-73.5,9.4-141.6,33.7-203.3,74.9
		c-19.9,13.3-38.8,27.9-55.1,45.3c-7.6,8.1-15.7,9.2-25.4,8.5c-6.2-0.5-9.2-2.7-7.2-9.4c1.2-3.9,3.8-8.6-0.1-11.6
		c-4.5-3.4-10.3-2.2-15.1,0.2c-17.9,9-26.1,24.8-28.4,43.7c-1.9,15-0.3,29.6,11.3,41.1c3.7,3.7,2.9,7.2,0.7,11.2
		c-19.7,35.9-32.3,74-35.9,115c-0.7,7.7-3.5,11.5-12.1,10.6C366.9,612.5,358.9,613.2,350.9,613.2z"/>
	<path class="st6" d="M999.3,333.5c-34.7-8.6-69.5-6-102.9-14.4c-8.4-2.1-17.3-2.1-26-1.1c-15.8,1.7-25.8,12.8-26.8,28.6
		c-1.3,20,7.3,36.7,17.2,52.9c2.5,4.2,5.5,8,8.7,12.6c-11.7,5-23.6,6.2-35.3,8c-48.6,7.2-96.4,0.9-144.2-7.9
		c-23.9-4.4-47.9-6-72.2-6c-34.1,0-65.7,8.5-95.6,24.3c-5.4,2.9-9.4,4.3-12.2-2.8c-0.6-1.6-2.5-2.8-4-4c-12.4-9.7-12.4-9.8-0.3-20.6
		c64.5-57.4,140.2-91.1,225.1-104.5c89.7-14.1,177.1-5.5,261.6,28.7C994.7,328.3,997.8,328.2,999.3,333.5z"/>
	<path class="st4" d="M1551.2,713.7c2.6-4.1,7-8.6,4.3-13.1c-2.7-4.5-8.9-3.2-13.8-3c-41.6,2.1-83.2,1.5-124.8,1.5
		c-8.2,0-10.2,3-10.1,10.6c0.2,49.6,0.1,99.1,0.1,148.7l-4.6,149.8c-0.1,8.6,2,11.8,11.2,12c23.4,0.5,46.8,2.3,70.2,3.6
		c18.1,1,36.3,1.7,54.4,3c10.3,0.7,11-3.5,6.7-11.1c-0.9-1.6-1.8-3.3-2.7-5c-22.9-41.3-44.5-83.4-66.4-125.3
		c-10-19.2-11.5-36.1,1.1-55C1502.3,792,1526.5,752.6,1551.2,713.7z"/>
	<path class="st4" d="M196.7,677c0.1-9.5-2.7-12.2-12.1-12.1c-29.9,0.5-59.8,0-89.7,0.1c-15.8,0-17.4,2.7-9,16
		c21,33.2,42.1,66.4,63.5,99.4c9,14,9.2,26.7-0.2,40.9c-25.2,38.2-49.8,76.8-74.3,115.4c-7.6,12-5.5,16.1,8.6,16.6
		c32.5,1.1,65.1,1.5,97.5,2.9c9.9,0.4,13.2-2.4,13.1-12.5l2.3-134C196.4,765.5,196.2,721.2,196.7,677z"/>
	<path class="st6" d="M1219.4,635.4c0.3,31.3-4.4,59-13.7,86.1c-2.1,6.1-4.5,10.5-11.8,11.7c-25.7,4.3-51.5,8-77.6,8.4
		c-13.2,0.2-14.5-1.1-13-15.3c4-38.9,17.1-74,43.3-103.7c16.3-18.5,33.7-35.6,54.8-48.7c8.3-5.2,11.4-2.3,12.7,5.7
		C1217.2,598.9,1219.7,618.4,1219.4,635.4z"/>
	<path class="st4" d="M1303.2,638.2c0.2,19.7-3,44.4-7.6,68.9c-0.8,4.3-2.5,7.6-6.9,9.6c-20.6,9.6-42.1,16.5-64.3,21.2
		c-10,2.1-6-4.8-4.7-8.7c12-35.5,16.6-71.9,15.1-109.2c-0.9-20.8-3.5-41.4-9.4-61.3c-2.3-7.6-0.8-11.9,6.9-14.6
		c10.6-3.8,21-8.6,31.5-12.6c4.3-1.7,8.5-3.2,11.3-7.1c6.3-8.9,9.3-4.5,11.7,2.9C1297.9,561.5,1303.2,596.8,1303.2,638.2z"/>
	<path class="st6" d="M449.7,619.4c-14.8-1.5-30.5-3.3-46.3-4.7c-5.1-0.5-5-3.6-4.7-7.2c3.4-36.4,13.3-70.9,30.3-104.4
		c6.3,9.4,12.6,17.3,22.4,21.4c6.9,2.9,5,8.4,3.6,13.5C447.7,564.7,452.1,592,449.7,619.4z"/>
	<path class="st7" d="M1091.9,323.7c-24.2,12.9-45.6,21.1-70.2,14.3c-3.6-1-4.3-3.7-5.2-6.6c-3.9-11.6-4.2-23.7-4.2-35.7
		c0-6.3,3-5.7,7.1-3.1C1040.7,306.6,1062.6,319.6,1091.9,323.7z"/>
	<path class="st8" d="M441.5,411.3c-8.7,13.9-11.4,25.9-6,38.8c5.3,12.7,20.2,17.9,32.2,11.1c5.4-3.1,8.3-7.6,8-13.8
		c-0.3-4.9-2.3-9.1-7.1-10.6c-5.8-1.8-11.2-0.4-15,4.9c-1.8,2.4-3.5,5.8-7.1,3.8c-3.7-2.1-2.3-6.1-1.5-9.2
		c2.2-8.7,9.8-10.7,17.2-12.8c7.8-2.1,14.6,0.5,19.4,6.2c7.4,8.7,9,19.2,4.6,29.7c-4.5,11-20.6,18.4-35.6,17.2
		c-12.9-1.1-24.6-12.6-28.8-28.3c-3.4-12.6,1.6-27.9,11.4-34.4C434.5,412.9,436.5,412.8,441.5,411.3z"/>
	<path class="st9" d="M322.1,374.2c-4.2,11.3-10,22.3-20.6,29.7c-5.5,3.8-11.7,1.2-12.5-4.6c-1.4-9.5-8.3-13.1-14.7-17.4
		c-10.7-7.2-21.5-14.1-32.5-20.8c-3.7-2.3-7.5-5.3-12.6-2.8c-3.4,1.7-6.8,0.9-8.9-2.4c-2.1-3.2-1.6-6.8,0.3-9.7
		c10.5-15.7,20.7-31.6,29.9-48.1c3.5-6.3,10.3-3.7,15.5-1.9c5.9,2.1,12.7,4.2,14.3,11.5c0.8,3.6-2.3,5.1-5.6,5.7
		c-3.7,0.6-7.7,0.7-11,2.1c-6.5,2.8-12.5,7.8-11.8,15c0.7,6.7,8.5,8.9,13.7,12.4c1.7,1.1,3.6,0.7,4.9-1.1c2-2.8,2.3-5.6,0.1-8.3
		c-2.3-2.9-6.4-5.7-2.6-9.5c3.4-3.4,7.9-1.6,11.6,0.3c8.1,4.1,15.8,9,22.2,15.5c2.5,2.5,4.9,5.4,3.1,9c-2.1,4.2-5.7,2.4-8.9,1.2
		c-3.8-1.4-8.3-4.3-10.8,1.1c-2.7,5.7,3.4,6.7,6.3,8.7c6.1,4.2,11.9,8.1,20.7,4C318.7,360.9,322.3,366.6,322.1,374.2z"/>
	<path class="st10" d="M539.9,128.3c-0.7,3.4-0.1,6.6,1,10c5.1,16.2-0.1,27.4-15.5,35.2c-3.2,1.6-10.5,1.7-8.1,7
		c2.8,6.1,8.5,1.8,12.7-0.3c5-2.6,9.7-5.9,14.8-8.3c9.3-4.4,16.2-0.8,20.6,7.8c5.7,10.9,3.7,21.5-3.4,30.8
		c-8.1,10.7-19.6,16.6-32.9,18c-13.3,1.4-17.5-6.9-21-19.5c-2.9-10.3-12.2-18.8-6.8-31.1c0-0.1-1.2-0.7-1.9-1
		c-10.8-6.4-14.6-16.2-11.8-28c2.9-12.4,12.4-18.9,24-21.5c8.1-1.8,15.2-3.4,19.2-11.8c2.2-4.7,5.4-3,7.5,0.7
		C540.5,119.9,540,124.2,539.9,128.3z"/>
	<path class="st11" d="M900.2,149.6c-2.5-0.5-7.3-1.2-12-2.7c-13.7-4.2-15-9.6-4.9-19.6c7.1-7,7.6-19.6,1.8-29.1
		c-2.7-4.4-0.7-10.4,2.4-12.2c6.2-3.6,4.6-8.2,4.4-13.2c-0.7-20.6,19.3-33.6,37.4-24.5c6.2,3.1,10.3,8.2,11.2,14.8
		c0.8,6.2-0.9,12.4-7.4,15.1c-7.1,2.9-10.2-2.1-12.8-7.5c-1.5-3.2-2.3-8.7-7.3-6.3c-4.8,2.2-3.7,7.4-1.1,10.8
		c4.4,5.7,5.9,14.2,14.8,15.8c3.5,0.6,3.7,3.6,2.8,6.2c-1.1,3.4-0.2,8.1-4.9,9.3c-3.8,1-9-0.8-9.7,5.2c-0.8,7-4.8,14-0.5,20.9
		c2.4,3.8,6.6,6.9,3.4,11.9C914.3,150.1,908.4,149.8,900.2,149.6z"/>
	<path class="st10" d="M447.6,247.6c-7.9,0.1-10-3-10.6-9.1c-1.5-15.2-7.4-27.9-22.2-34.6c-4.5-2-5.9-5.5-4.5-10.2
		c0.3-1.1,0.9-2.1,1.5-3c4.8-7.8,9.8-17.9,18.2-19.1c8.2-1.1,9.2,11.1,14.1,17c8.9,10.7,11.5,26.4,26.5,32.4c3.8,1.5,3.6,6.6,1.3,10
		C465.6,240.3,456.3,244.9,447.6,247.6z"/>
	<path class="st12" d="M423.3,159.6c0,9-10.7,20.6-18.8,20.4c-6.4-0.2-9.5-4.1-9.7-10.2c-0.2-8.2,10.8-19.6,18.9-19.8
		C420.6,149.9,422.5,154.6,423.3,159.6z"/>
	<path class="st11" d="M820.9,140.6c-4.8,0.4-10-0.5-14.8-2.8c-6.4-3.2-8.1-7.3-3.8-14.5c7.8-12.8,10.8-26.8,4.1-41.2
		c-1.8-3.8-2.6-7.8,0.8-10.3c8.4-6.3,18.4-8.7,28.8-7.8c5,0.4,3.5,5.2,3.2,8.2c-1.1,11.6-2.7,23.2-3.8,34.9
		c-0.6,7-1.3,13.7,2.5,20.8C842.2,135.6,835.2,140.7,820.9,140.6z"/>
	<path class="st13" d="M823.1,54.7c-3.1,0.1-5.8,0.2-6.6-3.2c-0.9-3.8,0.4-6.8,4-8.2c6.2-2.6,12.6-4.7,18.8-7.2
		c3.9-1.5,7.6-2.1,8.8,3.1c1,4.5,1.6,9.3-4.6,10.8C836.5,51.7,829.6,53.2,823.1,54.7z"/>
	<path class="st9" d="M986.6,87.5c7.8-1.3,10.7,2.4,7.9,12.3c-3.4,11.9-5.6,24.2-8.4,36.3c-1.2,4.9-2.1,9.6,0.4,14.3
		c0.2,0.3,0.3,0.7,0.4,1c1.5,5.1-0.2,9-4.9,11.2c-7.5,3.6-27-1.4-31.4-7.8c-3.3-4.8-0.7-7.8,2.3-11.8c8.9-12.1,13.4-25.7,8.3-40.7
		c-2.1-6.1,0.4-9.3,5.6-11.5C972.3,88.3,978.4,88.1,986.6,87.5z"/>
	<path class="st14" d="M982.1,81.5c-5.7-1.6-14.2-1-14.8-10.9c-0.4-6.8,8-13.6,17-13c7,0.4,15.1,1,15.8,10.7
		C1000.5,75.1,991.9,81.4,982.1,81.5z"/>
	<path class="st15" d="M737,79.1c8.7-11.8,16.1-14,23-8c6.7,5.9,7.2,22.3,0.9,29.1c-6.1,6.5-12.1,5.5-20.7-3.6
		c-4.9,10.4-3.2,24.8,4,32.8c5.7,6.3,4.8,12.4-3,14.8c-9,2.7-18.3,4.4-27.8,1.6c-8.2-2.4-9.5-7.2-5.9-14.6
		c6.6-13.9,7.7-27.8-1.7-41.2c-1-1.4-2-3.8-1.5-5.1c3.6-9.9,13.1-11.7,21.5-14.4C731.9,68.5,737.4,69.4,737,79.1z"/>
	<path class="st16" d="M347.7,245.5c-1.1-12.2,3.7-19.4,12.2-19.8c9.2-0.5,20,9.9,20.3,19.4c0.3,9.3-5.4,13.2-21.7,12.9
		c10.4,8.9,14.3,21.7,29.9,21.1c7.7-0.3,8.7,6.4,5.2,12.4c-4.8,8.3-11.6,15-20.1,19.6c-7.9,4.3-12.5,1.6-15.1-6.9
		c-4.4-14.1-12.2-25.3-28-28.1c-2.5-0.4-4.5-1.8-5-4.1c-2.3-9.5,3.6-16.5,8-23.8C337,242.4,341.6,241,347.7,245.5z"/>
	<path class="st17" d="M1045.1,188.5c-19.9-0.2-31-16.5-26.9-39.4c5.2-29,32.9-45.2,54.6-32.1c12.2,7.4,15.4,21.8,7,32
		c-3.3,4.1-7.3,6.7-12.8,5.3c-5.3-1.4-6.1-5.9-6.7-10.6c-0.4-3.7,1.9-9.4-4.5-9.7c-5.5-0.2-7.3,4.8-8.8,9.1
		c-4.5,12.9,1.1,21.5,14.5,22.5c8.6,0.7,11,5.2,6.1,12.6C1062.4,186.1,1054.3,188.5,1045.1,188.5z"/>
	<path class="st10" d="M660.7,126.9c0.5,7.8-1.7,15-5.4,21.7c-11.6,21.1-37.3,23.4-52.4,4.8c-12.6-15.5-12.1-41.1,1.4-55.2
		c9-9.3,19.9-13.7,32.8-9.9c14.5,4.3,19.9,16.2,22.9,29.6C660.7,120.8,660.5,123.9,660.7,126.9z"/>
	<path class="st10" d="M1164.1,192.5c-0.2,22.9-21.3,44.6-43,44.4c-17.4-0.2-29.5-12.9-29.2-30.6c0.4-23.3,20-44.3,41.6-44.4
		C1151.1,161.7,1164.3,174.8,1164.1,192.5z"/>
	<path class="st18" d="M486.9,901.3c-4-0.5-8.1-1.1-12.1-1.6c-16.1,3.7-22.6-0.3-22.7-15.2c-0.4-60.5-0.1-120.9-0.2-181.4
		c0-2.7,0.2-5.3,1.6-7.7c-0.9-11.7,3.4-15.9,15.4-12.2c8.2,2.5,16.9,3.6,25.5,4.1c9.3,0.6,12.3,5,11.5,13.7
		c-0.2,2.5,0.9,5.1,1.4,7.6c7.5,10.2,3.7,22.4,5.6,33.5c1.9,10.9,2,22.3,1.7,33.5c0,1.4,0,2.8,0,4.2c0.1-2.1,0-4.1,0-6.2
		c-0.4-18.8,1.8-37.4,3.5-56.1c0.3-3.4,1.1-6.6,3.4-9.4c0.3-1.1,0.9-2.2,0.8-3.3c-0.4-10.4,4.5-13.1,13.8-9.8
		c2.5,0.9,5.1,1.2,7.7,1.9c9.8,2.5,23.5,0.5,28.4,8.1c4.7,7.4,1.6,19.7,1.7,29.9c0.3,31.7,0.5,63.4,0.8,95.1c0.4,0.6,1.1,1.3,1.1,2
		c2.3,28.2,3.4,56.4-0.6,84.6c-4.8,5.6-10.7,3.4-16.4,2.1c-20-4-22.5-7-22.6-27c-0.2-35.2-0.1-70.4,2.1-96.2
		c-0.5,28.4-4,65.9-6.8,103.4c-0.3,4.2-1.1,8.4-6,9.9c-3.5-0.7-7-1.3-10.5-2c-10.9,0.6-14.1-1.2-15.7-12.5
		c-2.5-18.7-3.9-37.5-6.3-56.2c-2.7-21.2-2.4-42.6-4.4-60.6c2.5,7.4,1,18.5,1.4,29.3c1,26.7,2.1,53.5,3,80.2
		C493.2,892.3,494,898.7,486.9,901.3z"/>
	<path class="st18" d="M1072.7,1030.1c-4.9,0.4-9.8,0.7-14.7,1.1c-17.3,3-22.4-0.1-25.5-16.4c-4.3-22.6-10.3-44.9-11.9-67.9
		c-0.1-1.7-1.3-3.4-0.6-4.1c3.6,21.8,2.2,45,2.3,68.1c0,5.1,1,10.7-3.6,14.9c-4.9-0.2-9.7-0.5-14.6-0.7
		c-13.9,2.8-19.9-1.3-22.1-14.8c-0.8-5.2-0.8-10.5-0.8-15.8c0-52.7-0.1-105.4,0.1-158.2c0-6.3-1.3-12.9,3.5-18.4
		c-0.7-11,3.4-16,14.9-12.3c1.4,0.4,3,0.5,4.4,0.2c10.3-1.5,16.1,2.3,16.8,13.2c0.1,1.7,1.3,3.4,2,5.1c2.2,1.2,3.1,3.3,3.4,5.6
		c3.6,21.6,10.6,42.5,11.1,60c-2.6-17.2-1.2-39.1-1.2-60.9c0-3,0.5-6,2.9-8.3c1-6.1-1.3-13.3,10.1-12.9c22.6,0.9,22.6,0.1,24,12.8
		c4.1,3.8,3.8,8.9,3.9,13.7c0.2,60.5,0.1,121,0,181.4C1077,1020.7,1077.7,1026.3,1072.7,1030.1z"/>
	<path class="st18" d="M1244.8,1017.8c-2,0.6-4,1.2-6,1.8c-2.1,2.3-4.9,3.5-7.8,4.3c-11.7,3-17.5-0.8-17.9-13
		c-0.6-22.6-0.1-45.3-0.3-67.9c0-4.3,0.7-8.7-2.1-13.2c-3.2,4.7-2.1,9.3-2.1,13.7c-0.2,23.4,0.2,46.8-0.3,70.1
		c-0.1,5.2,2.3,13-7.5,13.3c-4.2,0.4-8.4,0.7-12.6,1.1c-15.3,9.7-25.3,5.1-25.4-12.2c-0.4-63.4-0.2-126.8-0.1-190.2
		c0-4.6,0.3-9.1,3.1-13c-1-9.1,3.6-12.4,12.3-13.1c19.5-1.5,38.5-8.3,58.4-4.7c13.9,7.7,17,22,18.7,35.4c2.1,16.3,2.1,33.1-2,49.4
		c-2.4,9.4-6.1,17.8-16,20.3c12.2,1.8,15.4,12,18.3,22.3c1.7,28.1,1,56.3,0.3,84.4C1255.8,1013.1,1254.5,1020.3,1244.8,1017.8z"/>
	<path class="st18" d="M685,748c1.9-16.2,2-16.3,18-11.8c10.1,2.9,20.1,6.2,30.2,9.3c14.7,4.4,26.5,12.4,33.2,26.7
		c6.4,6.3,7.8,14.4,7.9,22.9c0.2,11.7-0.1,23.4,0.1,35.2c0.1,11.1-2,21.1-13.9,27.5c13.5,12,14,27.3,14,43.1c0,15-1.9,30.2,1.6,45.2
		c0.1,9,3.9,18.4-3.4,26.4c-4.2-0.6-8.4-1.2-12.6-1.9c-19.3,1.3-26.2-4.6-26.3-23c-0.2-19.3,0.1-38.6-0.1-57.9
		c-0.1-6.3-0.2-12.7-4.9-19.9c-2.8,8.8-2,16.2-1,23.3c2.5,18.5,1.3,37,1.2,55.5c0,3.8,0.8,8.6-4.6,10.4c-4.6-0.9-9.2-1.8-13.7-2.7
		c-20.2,1.4-27-4.6-27.1-24.5c-0.1-17.4,0.1-34.7-0.1-52.1c-0.1-17.7-0.1-35.4-1.7-53.1C679.7,800.6,682.4,774.2,685,748z"/>
	<path class="st18" d="M866.6,999.2c-2-0.6-3.9-1.3-5.9-1.9c-18.6,2.3-24.5-2.7-24.7-20.8c-0.1-17.4,0-34.8-0.1-52.1
		c0-7.9-1.1-15.6-4-24.5c-3.4,4.8-2.5,9-2.5,12.8c-0.1,20.8,0.2,41.6-0.2,62.3c-0.1,4.7,1.8,11.1-5.6,13c-3.3-1.8-6.8-2.9-10.7-2.5
		c-22.1,1.1-29.3-5.2-29.2-26.6c0.2-59.6-0.7-119.3,0.5-178.9c2.5-5.2,0.9-11.3,3.4-16.6c26.1,5.1,52.1,10.7,74,27.2
		c8.6,7.5,11,18,12.5,28.3c2,13.7,3.5,27.5,2.6,41.5c-0.7,10.7-3,20.2-14.7,25c8.6,7.9,12.5,17.5,14.7,27.9
		c1.1,24.8,0.7,49.6,0.2,74.3C876.8,993.1,878.7,1003,866.6,999.2z"/>
	<path class="st18" d="M1300.4,1000.5c-5.1,2-10.3,4-15.4,6c-0.9,0.7-1.7,1.6-2.6,2.1c-6.9,4-14.6,9.1-22,4.4
		c-6.6-4.2-3.2-12.4-2.7-19c2.8-41,6.9-81.9,10.2-122.9c2.2-27.1,4.3-54.1,7.2-81.1c1.3-9.8,7.3-14.5,16.8-15.4
		c11.9-2,23.2-6.4,34.5-10.4c6.6-2.4,9.5-1.1,10.2,6.4c5.1,53.2,10.6,106.5,16,159.7c0.9,9,0.9,18.3,3.2,26.9
		c3.7,13.9-0.9,22.1-14.1,26.3c-1.1,1,0.5-0.1-0.7,0.9c-6.2,5-13.3,11.5-21,8.1c-7.5-3.3-5.7-13-6.7-20.4c-0.5-3.9,2.7-11-3.6-11
		c-5.7,0-5.3,7-5.9,11.9C1302.5,982.1,1306.4,991.9,1300.4,1000.5z"/>
	<path class="st18" d="M622.8,909.9c-0.3,2.2-1,4.5-0.7,6.6c1.7,11-1.9,15.8-13.4,12.2c-1.9,0.1-3.7,0.6-5.6,0.4
		c-20.5-1.7-25.4-6.9-23.4-27.1c5.4-55,9.1-110.2,15.4-165.2c0.5-4.1,0.2-8.4,3.6-11.6c3.4-15.9,3.5-16.1,19.7-11.8
		c13,3.5,25.9,7.4,38.9,11.1c2.9,7.8,3.5,16.2,3.5,24.1c0.2,21.6,7.2,42.1,8.4,63.5c0.5,8.5-0.5,17.4,2.4,25.7
		c3.4,31.1,6.2,62.4,9.6,93.5c0.4,3.4,0.4,6.8-0.3,10.2c-1.4,6.2-4.7,7.3-9.7,3.7c-2.8-0.9-5.3-3.4-8.7-1.6
		c-17.6,1.3-25.6-5.1-26-21c-0.2-6-0.6-12-2.1-17.8c-0.7-2.6-1.4-5.6-4.4-5.9c-3.9-0.3-3,3.4-3.7,5.7
		C625.6,906.8,625.4,909.1,622.8,909.9z"/>
	<path class="st18" d="M921.9,1002.7c-0.7,12-9.9,3.1-14.4,5.9c-7.8,1.8-14.9-1.5-22-3.5c-6.3-1.8-6.9-6.8-6.8-12.6
		c0.5-23,3.8-45.9,5.8-68.8c3.4-39.1,7.3-78.1,11.1-117.1c0.4-3,2.6-5.5,2.9-8.5c0.7-5.8,4.2-7.5,9.4-6.7c15,2.5,29.9,5.3,45,7.5
		c1.8,0.3,3.3,1.7,4.4,3.3c2.6,36.9,6,73.7,11.4,110.3c6.3,8.9,4.6,19.6,5.3,29.4c1.6,21,5.4,41.8,6.5,62.8c0.4,7,2.5,14.8-7.5,17.4
		c-3.9,0-7.8-0.2-11.6-1.3c-3.8-0.2-7.4-0.9-11.1-1.6c-9-1.6-14.1-6.5-14-16c0-5.3-1.1-10.5-2-15.7c-0.6-3.5,0.1-9.1-4.7-9
		c-5.5,0.1-4.3,6.1-4.9,9.9C923.8,993.3,925.1,998.4,921.9,1002.7z"/>
	<path class="st18" d="M334.5,685.3c-0.7-11.4,4.7-14.8,15.6-13.3c10.1,1.4,20.4,2.1,30.5,1.6c10.4-0.6,12.2,4.5,13.1,13.2
		c6.5,65,13.3,129.9,20.5,194.8c1.7,15.4-9.8,6.2-14.7,9.1c-15.3,6.2-28.2-1-28.6-17.1c-0.1-4.9,0-9.8-0.7-14.7
		c-0.4-2.3-1.1-4.6-3.9-4.8c-3.6-0.3-4.2,2.5-4.6,5.2c-0.6,4.5-0.1,9-0.4,13.6c-0.2,4.8,0.7,9.9-3.2,13.9c-4.6,0.6-9.3,1.3-13.9,1.9
		c-4.3,3.2-9.3,2.8-14.1,2.8c-13.9-0.2-15.3-3.1-14.7-17c1.3-31.2,4.9-62.3,7.1-93.4c2-27.8,6-55.4,7.2-83.2
		C329.9,693,331.6,688.9,334.5,685.3z"/>
	<path class="st18" d="M1087.1,819.7c-1.4-10.7,4.1-13.3,13.8-13.3c13.6-0.1,27.2-0.9,40.7-2.6c9-1.1,12.5,1.7,11.6,10.5
		c4.7,12,5.3,23.9-0.6,35.7c-3.5,2.5-7.5,2.5-11.5,2.5c-8.7-1-13.6,2-12.5,11.6c0.2,2.3,0,4.5,0.1,6.8c0.3,5.6-1.6,11.8,1.6,16.7
		c3.6,5.5,9.9,1.1,14.8,2.2c2.6,0.6,5.2,1.1,6.8,3.5c3.4,13.5,2.8,27.1,0.4,40.7c-5.3,7.6-13.7,3.1-20.4,5.4
		c-0.8,0.7-1.6,1.4-2.3,2.2c-0.7,10.8-0.3,21.7-1.1,32.5c-0.5,7.3,2.8,10.4,10.3,9.1c4.8-0.9,9.8-1.3,14.5,0.9
		c3.3,1.9,4.4,5.2,4.7,8.6c0.8,10.5,1,21.1-0.1,31.6c-0.5,4.1-1.6,8.5-7.6,7.5c-3.3,0-6.7,0-10,0c-15.5,5.2-31.4,3.2-47,1.5
		c-7.1-0.8-7.7-7.7-7.7-13.4c0.2-20.1-2-40-2.3-60c-0.7-39.3-0.2-78.7-0.2-118C1083.3,834.3,1082.9,826.6,1087.1,819.7z"/>
	<path class="st19" d="M302.6,890.7c-1.9,0.1-3.8,0.1-5.6,0.2c-12.5,6.4-26.2,6.6-39.8,7.1c-7.2,0.2-10.9-4.2-11.5-11.4
		c-0.3-3.8-0.3-7.6-0.3-11.3c0-55.6,0-111.3,0-166.9c0-6.4-0.6-12.9,3-18.8c-0.9-9.3,2.9-12.7,12.7-13.5
		c26.5-1.9,26.4-2.5,26.4,24.4c0,43.1,0,86.2,0.1,129.3c0,18.4,0.2,18.4,19.2,16.6c5.5-0.6,5.9,3.7,6.8,7.2
		c2.6,10,2.7,20.2,1.1,30.3C313.4,890.9,309.5,893.6,302.6,890.7z"/>
	<path class="st20" d="M248.3,689.5c0.3,62.4,0.5,124.8,0.7,187.2c0.1,20.3,0,20.2,19.8,17c9.3-1.5,18.5-3.6,28.1-2.9
		c2,10.5-2.6,13.4-12.9,13.7c-13.9,0.4-27.8,2.7-41.6,4.9c-6.8,1.1-8.9-1-8.9-7.5c0-67.7-0.1-135.4-0.5-203
		C233,686,242.7,691.7,248.3,689.5z"/>
	<path class="st0" d="M1087.1,819.7c0.3,3.7,0.8,7.4,0.9,11.2c0.1,63.4,0.4,126.8,0.1,190.2c0,8.2,1.8,11.4,10.5,10.9
		c13.9-0.7,27.9-0.2,41.9-0.2c2.9,10.3-0.7,14.1-11.5,13.6c-13.1-0.6-26.2,0.7-39.3,0.8c-16.1,0.1-16.1,0-16.9-16.2
		c-0.1-66.2-0.1-132.3-0.1-198.5c0-3.8,0.4-7.5,0.7-11.3C1077.8,820.1,1082.5,819.9,1087.1,819.7z"/>
	<path class="st21" d="M453.5,695.4c1.9,3.9,1.1,8.2,1.1,12.3c0.2,57.7,0.7,115.3,0.2,173c-0.1,11.4,2,17.9,14.5,17.5
		c1.8,0,3.6,1,5.4,1.5C474,915,474,915,458.4,913.1c-18.5-2.3-18.6-2.3-18.6-21.2c-0.2-61.1-0.4-122.1-0.5-183.2
		C439.2,694.5,439.3,694.5,453.5,695.4z"/>
	<path class="st2" d="M1150.2,935.8c0-14.4,0-28.9,0-43.3c-5-14.4-5.3-28.8,0.2-43.2c5.3-11.3,0.2-23.5,2.9-35
		c4.2-0.5,8.4-1.1,12.6-1.6c0.2,45.6,0.5,91.2,0.7,136.8c0.1,22.6,0.5,45.3-0.2,67.9c-0.3,10.4,2.1,14.7,12.9,11.5
		c2.8-0.8,6-0.6,9-0.8c5.3,6.7,5.6,11.5-4.6,12.5c-6.7,0.7-13.7,0.8-20.1,2.7c-11.1,3.3-14.2-1.1-13.1-11.3
		c6.5-5.8,6.6-40.6,0.2-46.6C1144.5,968.9,1145.4,952.4,1150.2,935.8z"/>
	<path class="st22" d="M671.2,945.3c6.2,1.4,8.2-0.2,7.4-7.2c-3.6-33.3-8.3-66.6-9.5-100.1c1.2-21.1-3.9-42.2,1-63.4
		c1.3-5.7,0.1-11.9-0.7-17.8c-0.6-4-0.7-8.3,2.4-11.7c4.4,1,8.9,2,13.3,3c1.9,3.5,1.1,7.4,1.2,11.1c0.2,58.5,0.7,117,0.3,175.5
		c-0.1,10.9,2.5,16.9,13.7,18.1c3.6,0.4,7,2.5,10.5,3.8c-0.8,17.7-0.8,17.7-18.4,12.7c-1.4-0.4-2.9-1-4.3-1.4
		C667.7,962,671.3,964.2,671.2,945.3z"/>
	<path class="st0" d="M787.2,778.7c0.2,35.8,0.4,71.7,0.6,107.5c0.2,26.8,0.8,53.6,0.2,80.4c-0.2,8.9,2.3,13,11.1,14.2
		c4.7,0.6,9.1,3.1,13.7,4.7c-1.3,16.6-1.3,16.6-17.8,12.4c-0.7-0.2-1.5-0.4-2.2-0.6c-19.2-5.1-19.2-5.1-20-24.7
		c0.1-9.9,0.1-19.8,0.2-29.6c-1.2-8.3,0-16.6-0.6-24.8c-3.2-44.7,1.8-89.5-0.7-134.2C771.2,774.4,775.2,773.1,787.2,778.7z"/>
	<path class="st23" d="M598.7,725.3c-2.6,30-5.1,60-7.7,90c-2.8,31.9-5.2,63.8-8.6,95.6c-0.9,8.2,1.2,11.7,9.3,12.7
		c5.9,0.7,11.9,1.9,17,5.2c-1.8,16.4-1.8,16.3-18.3,12.3c-7.7-1.9-15.4-3.8-23.1-5.7c-4.9-12.6-4.3-14.5,5.5-16.6
		c3.2-12.6,1-25.4,1.3-38.1c0.5-16.9,0.4-33.8,0.5-50.8c2.7-26.4,5.3-52.8,8-79.2c0.5-5.2,1.9-10.4,1.6-15.6
		C583.7,723.4,589.5,722.1,598.7,725.3z"/>
	<path class="st24" d="M898.4,806.7c-3.3,37.2-6.6,74.4-9.8,111.7c-2.2,25.6-4.2,51.2-6.9,76.7c-0.6,6.1,2.3,7.2,6.5,8
		c6.7,1.2,13.4,2.1,19.3,5.6c-0.8,16-0.8,16-16.8,12.8c-2.9-0.6-5.8-2-8.7-2.1c-13.5-0.5-18.3-7.3-15.5-20.2
		c6.5,0.6,7.8-2.7,7.7-8.7c-0.4-26.8-0.3-53.6-0.4-80.3c-1.4-26.5,2.2-52.6,7-78.6c1-5.6,0.4-11.3,1.5-16.9
		C884.5,803.6,887.3,802,898.4,806.7z"/>
	<path class="st24" d="M1277.8,788.7c-4.3,52.3-8.5,104.5-12.8,156.8c-1.7,20.3-3.3,40.6-5.2,60.9c-0.6,6.3,1.7,6.9,7.1,5.3
		c6-1.8,11.5-5.6,18.1-5.3c0.9,6-0.8,9.7-7.4,11.4c-8.2,2.1-16.2,5.4-24.3,7.9c-7.2,2.2-11,0.5-8.4-7.9c5.3-1,8.3-3.1,8.2-9.6
		c-0.5-29.7-0.5-59.4-0.6-89.1c-2.1-13.9-1.6-27.8,0.9-41.5c1.9-10.4,2.9-20.9,2.7-31.3c-0.4-16.7,5.8-32.3,6.4-48.9
		C1262.6,788.9,1270.9,788.7,1277.8,788.7z"/>
	<path class="st1" d="M302.6,890.7c6.7-0.3,9.8-3.1,9.1-10.4c-0.8-8.9-0.4-17.8-0.5-26.7c0-3.3,0.6-7-4.5-7.2
		c2.5-44.4,7-88.6,11.3-132.9c0.4-4.5,1.5-9.1,1.1-13.5c-1.3-12,3.9-16.4,15.4-14.7c-5.5,64.4-10.9,128.9-16.6,193.3
		c-0.6,7.2,0.2,10.5,8.3,9.6c5.9-0.6,12,0.2,18,0.4c0.2,10.2-3.9,15.1-14.9,13.7c-5.1-0.7-10.5,0.3-15.7,1
		C303.3,904.7,299.6,900.7,302.6,890.7z"/>
	<path class="st25" d="M971.5,1019.9c9.8,1.3,6.5-5.9,6.1-10.2c-2.3-24.8-5.1-49.6-7.5-74.4c-0.7-7.5-1-15.1-1.5-22.6
		c2.5-27,2.4-54,1.6-81c-0.3-11.6,3-16,14.4-13.7c0.3,7.5,0.8,15.1,0.8,22.6c0.2,54.1,0.3,108.2,0.4,162.3
		c0,18.5,0.1,18.5,18.1,22.3c-0.7,15.9-0.7,16-17.3,13.3c-5.1-0.8-10.2-1.9-15.4-2.9C969.7,1030.2,968.7,1025,971.5,1019.9z"/>
	<path class="st26" d="M823.5,987.9c5.2-2.5,3-7.2,3-11c0-25.6-0.3-51.2-0.3-76.8c0-2.7-1.8-7,2.2-7.7c4.1-0.7,7.4,2.6,8.1,6.4
		c1.3,6.2,2,12.7,2.1,19c0.4,20.3,0.9,40.7,0.3,61c-0.3,9.6,2.1,14.8,12.2,15.5c3.2,0.2,6.4,2,9.6,3c-0.2,2.6-0.7,5.3-0.4,7.9
		c0.7,8.1-3.8,8.7-9.9,7.1c-3.6-1-7.1-2.6-10.8-3.3C822,1005.9,823.1,1007.6,823.5,987.9z"/>
	<path class="st27" d="M724.5,959.2c2.6-25.6-0.4-51.1,0-76.7c0-3-0.5-6.1,0-9c0.6-3.6-2.9-9.7,2.8-10.2c5.4-0.4,7.7,5,8.4,10.3
		c2.2,16.1,0.8,32.4,1.2,48.6c0.2,10.2,0.6,20.4-0.1,30.5c-0.6,8.4,2.1,12.4,10.6,13.5c4.3,0.5,8.5,3,12.7,4.5
		c-2,17.3-2,17.3-18.9,12.5c-2.9-0.8-5.8-1.6-8.7-2.4C720.4,977.5,718.2,971.6,724.5,959.2z"/>
	<path class="st28" d="M1200.9,1027c5.7-1.6,4.3-6.3,4.3-10.2c0-27.9-0.2-55.8,0.1-83.7c0-3.8-4.1-11.2,4.4-11.3
		c7.8-0.1,6.7,7,6.8,11.9c0.3,24.9,0.3,49.7,0.3,74.6c0,15.3,0,15.3,15.3,12c2.2-0.5,4.5-0.4,6.7-0.6c1.3,7.3-1.2,11.2-9.1,12
		c-5.9,0.6-11.8,2.3-17.5,4C1204,1038.3,1200.1,1035.7,1200.9,1027z"/>
	<path class="st29" d="M486.9,901.3c3.1-3.6,1.8-8,1.8-12c0.1-38.6,0.1-77.1,1-115.8c3,28.4,6.1,56.7,9.1,85.1
		c1.1,10.9,2.5,21.8,3.1,32.7c0.5,8.8,3.5,14.8,13.1,15.6c-1.9,15.2-12.1,20-24.4,11.1C484.7,913.7,488.3,906.8,486.9,901.3z"/>
	<path class="st30" d="M525.4,908.8c5.7-24.3,4.7-49.3,7.7-73.9c2.1-17.5,3.3-35.2,7-52.7c0,21.8,0,43.7,0,65.5
		c0,16.2,0.9,32.5,0.1,48.6c-0.5,11.2,2.2,18.2,14.6,18.4c1.8,0,3.6,1,5.4,1.5c3.1,4.3,4,9.1,0.9,13.6c-3.5,5.1-9.1,2.7-13.4,1.8
		c-5.8-1.1-11.6-2.5-17.2-4.7C521,923.1,527.6,914.7,525.4,908.8z"/>
	<path class="st31" d="M1018.6,1025.7c0-29.3,0-58.7,0-88c0.6-0.1,1.1-0.2,1.7-0.3c3.3,16.2,6.5,32.3,9.8,48.5
		c2,10,4.6,19.9,5.7,29.9c1.1,10,5.5,14.7,15.7,14c2.1-0.2,4.3,0.9,6.5,1.4c1.7,11.8-3.7,13.9-14.7,13.9
		C1028.9,1044.9,1020.8,1039.8,1018.6,1025.7z"/>
	<path class="st32" d="M921.9,1002.7c0.2-7.5-0.1-15.1,0.7-22.6c0.3-2.6-2.3-9.1,4.8-7.1c4.4,1.2,11.1,0,10.6,8.5
		c-0.4,6.4,1.4,12.9,0.8,19.2c-1.1,10.5,2.7,15.5,13.2,15.7c3.3,0.1,6.7,1.1,10,1.7c3.7,4.4,5.5,10.2,2.2,14.5
		c-3,3.9-8.8,2.4-13.4,0.5c-8.2-2.6-18.4-0.2-24.7-5.9C919.7,1021.2,925.5,1010.6,921.9,1002.7z"/>
	<path class="st33" d="M622.8,909.9c0.2-3-0.2-6.2,0.7-9c0.8-2.4-3-8.1,3.5-6.9c4.1,0.8,10.6-1,10.9,6.8c0.3,8.3,1.6,16.5,1.3,24.8
		c-0.3,7.8,1.9,11.8,10.1,12.9c4.5,0.6,8.8,3.4,13.1,5.1c0,0.5-0.1,1.1-0.1,1.6c1.6,13,1.6,13-12.2,11c-0.4,0-0.8,0.2-1.1,0.1
		c-25.1-4.2-25.1-4.2-25.7-29.5C623.3,921.3,623,915.6,622.8,909.9z"/>
	<path class="st2" d="M358.1,886.7c0.1-10.2,0.7-20.3,0.3-30.5c-0.3-6.7,3-7.1,8.2-7.1c5.1,0,7.6,1.2,7.5,6.9
		c-0.2,7.1,1.1,14.3,0.7,21.4c-0.6,8.7,3,12,11.4,11.9c4.5-0.1,8.9,0.9,13.4,1.3c1.1,13.9,1.1,13.9-13.1,13.5
		c-1.9-0.1-3.8-0.1-5.7-0.2C362.4,903.3,362.4,903.3,358.1,886.7z"/>
	<path class="st34" d="M898.4,806.7c-13.9-1.1-13.9-1.1-15.4,15.9c-2.3,25.9-4.6,51.9-7.1,77.8c-0.3,3.3,0.1,6.9-2.1,9.8
		c-4.2-10-8-20.4-22.3-26.7c17.5-0.2,21.4-9.2,21.8-20.9c0.9-24.8,3-49.8-11.8-72.1c11.6,6.3,11.3,18.4,14.2,29
		c0.9,3.3-1.4,7.4,2.1,10.3c3.5-1.5,2.4-4.5,2.4-6.8c-0.1-10-1-20.3,13.2-21.8c2.7-0.3,2.8-3.3,3.5-5.3c1.5-4,4.2-6.3,8.6-5.6
		c16.2,2.5,32.4,5,48.6,7.8c1.3,0.2,2.1,2.8,3.2,4.2c-16.5-5-33.7-6.6-50.7-9.3C895.6,791.3,902,802.6,898.4,806.7z"/>
	<path class="st35" d="M1277.8,788.7c-16.3,0.3-14.8,12.6-15.8,23.3c-3.2,35.7-6.4,71.4-9.6,107.2c-3.9-8.2-7.8-16.3-19.5-18.6
		c14-6.8,18.2-18.2,19.2-31.2c1.3-16.2,1.6-32.3-1.1-48.4c-1.8-10.4-5.9-19.3-14.4-26c10.3,2.4,13.8,10.5,16.2,19.4
		c0.6,2.2,0.5,4.9,3.5,4.8c3-0.1,3.1-2.8,3.2-5.1c0.1-4.2,0-8.3,0.1-12.5c0.1-2.3-0.1-4.6,0.5-6.7c1.3-4.2,26.7-20.2,31.7-20.3
		C1285.5,777.7,1276.8,778.4,1277.8,788.7z"/>
	<path class="st36" d="M1300.4,1000.5c0.1-10.9,0.5-21.8,0.1-32.7c-0.2-6.9,2.9-9.9,9.1-11.9c4.9-1.6,6.6-1.1,6.7,4.4
		c0.3,10.5,1.1,20.9,1.8,32.5c8.5-3.4,16-6.4,23.4-9.4c2.5,4.8-0.8,6.9-4.3,8.6c-9.4,4.5-19.1,8.6-28.4,13.3
		C1303,1008.3,1301.9,1004.5,1300.4,1000.5z"/>
	<path class="st37" d="M1039,820.4c1.7,26.2,0.5,52.3-0.4,78.6c-6-24.9-13.3-49.4-15.8-74.9C1027.2,818.2,1033.5,821.1,1039,820.4z"
		/>
	<path class="st38" d="M787.2,778.7c-14.5-3.4-14.3-3.4-14.3,12.5c0.1,50.6,0.1,101.2,0.1,151.8c-0.4-16.2-0.9-32.3-1-48.5
		c-0.1-15.9-4.5-29.7-22.4-40.8c19.6,2.6,21.1-8.3,21.8-19.7c1.3-20.8,1.6-41.4-4.9-61.6c9.4,2.5,18.3,4,21-9
		C787.4,768.4,787.3,773.5,787.2,778.7z"/>
	<path class="st39" d="M521.5,708c-1.6,22.8-3.2,45.5-4.8,68.3c-0.9,1.5-1.4,3.9-4.1,2.3c-1.8-23.4-3.5-46.7-5.3-70.1
		C511.9,703.9,516.8,708.4,521.5,708z"/>
	<path class="st40" d="M671.7,745.1c-0.3,25.4-0.7,50.9-1,76.3c-0.1,5.6,0.5,11.2-1.6,16.6c-4.4-14.6-3.7-29.8-5.4-44.6
		c-2.6-22.8-4.3-45.8-6.4-68.7c4.5,7.6,4.9,16.2,4.9,24.6c0,9.7,1.7,19,4.8,28.2c2.6-5.9,2.1-11.6,0.7-17.8
		C666.6,754.4,664.4,748.2,671.7,745.1z"/>
	<path class="st41" d="M530.6,926.9c4,0.6,8,1,12,2c17.1,4.2,17.1,4.3,17.7-12.7c4.2,0.9,8.4,1.7,12.6,2.6
		c-9.1,3.1-4.3,10.9-5.5,16.6c-8.8-2.5-18.1-0.8-26.9-4C537,930.1,533.3,929.8,530.6,926.9z"/>
	<path class="st42" d="M950.9,1033.1c14,0.4,14,0.4,11.2-15c3.2,0.6,6.3,1.2,9.5,1.8c-0.1,5.2-0.1,10.3-0.2,15.5
		c-4.2-1.7-1.5-6.2-3.4-8.8C965,1037.9,963.1,1038.6,950.9,1033.1z"/>
	<path class="st22" d="M650.2,956.3c8.1,0.7,13.8-1.1,12.2-11c3.3,4.6,4,10.8,0.6,13.9C659.9,962,654.3,958.8,650.2,956.3z"/>
	<path class="st43" d="M1071,432.5c0.4,4.6-1,8.5-8.2,4.8c-5.1-2.7-9.4-0.5-13.9,1.9c-12,6.4-24.8,9-38.3,6.4
		c-4.7-0.9-11.1-1.9-11.2-7.6c-0.1-5.9,6.8-5,10.8-5.8c9.7-1.8,19.2-3.7,28.2-8.1c6.5-3.2,6.8-7.2,2.8-12.4
		c-8.5-11.1-20.9-14.5-33.6-16.8c-20.8-3.7-42.3-2-63.1-6.6c-9.6-2.1-19.1-4.7-26.8-11.4c-1.9-1.7-4.4-3.6-3.5-6.6
		c1-3.4,4.5-2.9,6.8-2.2c28.6,9,58.6,4.8,87.7,8.9c24.9,3.5,44.5,16,57.8,37.6C1069.3,419.6,1070.7,425.1,1071,432.5z"/>
	<path class="st21" d="M1208.6,416.2c0,5.3-2,6.6-5.8,5c-13.6-5.7-27.7-6-42-4.4c-3.1,0.3-6.3,0.9-5.6-4.1
		c1.2-9.6,14.5-16.9,29.1-16C1197.8,397.6,1209,407,1208.6,416.2z"/>
	<path class="st44" d="M512.3,139.2c4.9,1.2,6.9,5.3,8.9,9.4c2,4.1,4.3,8.1,2.2,12.9c-0.3,0.6-1,1.2-1.6,1.5c-2.2,1.2-4.6,1-6.4-0.5
		c-5.4-4.6-8.3-10.7-9-17.7c-0.2-2.4,1.2-4.3,3.5-5.3C510.6,139.3,511.4,139.3,512.3,139.2z"/>
	<path class="st45" d="M533,213.6c-3.5,0-7.6-0.4-8.5-4.1c-1.3-5.3,4.2-3.8,6.7-5.3c2-1.1,3.9-2.4,6-3.1c3.1-1.1,6.4-6,9.6-0.8
		c2.9,4.7-0.8,7.7-4.3,10.1C539.7,212.5,536.6,213.9,533,213.6z"/>
	<path class="st46" d="M637.7,138.1c0,3.9,0.2,6.8-2.8,8c-3,1.2-5.1-0.7-6.6-3c-5.8-8.6-9.5-18-11-28.3c-0.4-3-0.4-6.5,3.3-7.5
		c2.9-0.9,5,1.4,6.5,3.6C633,119.6,636.5,129,637.7,138.1z"/>
	<path class="st47" d="M1116.7,211.7c2.8-10.2,6-20.3,12.9-28.6c1.6-1.9,3.5-4.5,6.5-2.8c2.6,1.5,3,4.2,2.5,7
		c-2.1,10.5-6.2,20.1-12.3,28.9c-1.5,2.2-3.5,4.4-6.5,3.3C1116.1,218.1,1116.8,214.7,1116.7,211.7z"/>
	<path class="st48" d="M1205,860.4c0-6.4-0.1-12.8,0-19.2c0.1-2.8-1.1-6.6,3.6-6.8c3.8-0.2,6.9,1.7,7.4,5.6
		c1.6,12.8,1.5,25.6-0.2,38.3c-0.5,4-3.7,7.2-7.7,7.1c-5.4-0.2-2.7-5.1-2.9-7.9C1204.7,871.7,1205,866,1205,860.4z"/>
	<path class="st49" d="M737.1,810.1c-0.2,2.7-0.3,7.6-0.8,12.5c-0.4,4.1-2.1,7.1-7.2,6.7c-4.9-0.4-4.8-3.9-4.8-7.3
		c0-11.3-0.1-22.6,0-33.9c0-2.5-1.3-6.1,1.8-7c3.7-1.2,6.5,1.9,8.1,4.8C738.2,792.7,736.6,800.5,737.1,810.1z"/>
	<path class="st50" d="M826,833.6c0-5.6-0.1-11.3,0-16.9c0.1-2.1-1-4.9,1.9-5.8c2.9-0.9,5.1,1,6.7,3.1c1.3,1.7,2.3,3.9,2.8,6
		c2.2,10.8,2,21.6,0.2,32.4c-0.6,3.9-2.2,6.1-6.5,6c-4.8-0.1-5.2-3.2-5.1-6.9C826.1,845.6,826,839.6,826,833.6z"/>
	<path class="st51" d="M1309,828.9c1.8,26.2,3.4,52.4,5.4,78.6c0.5,6.4-2.8,8.4-7.8,10.2c-4.9,1.7-5.9-0.2-5.5-4.7
		c2.2-28.1,4.3-56.1,6.5-84.2C1308,828.9,1308.5,828.9,1309,828.9z"/>
	<path class="st52" d="M629,773.1c5.3,21,3.2,41.9,5.9,62.5c0.6,4.5,1,9,1.1,13.6c0.1,3,3.9,8.5-3.3,7.9c-4.4-0.4-10-0.6-9.3-8.2
		c1.9-22.2,3.4-44.5,5-66.7C628.6,779.2,628.8,776.2,629,773.1z"/>
	<path class="st53" d="M929.6,859.6c4.3,19,3,38.2,5,57.1c0.4,3.7,0.7,7.5,0.4,11.3c-0.2,2.9,4,8.3-3.4,8c-4.9-0.2-9.4-0.3-8.8-8.1
		C924.6,905.1,925.2,882.2,929.6,859.6z"/>
	<path class="st54" d="M366.3,734c1.7,23.7,3.3,47.4,5,71.1c0.2,3.5,0.9,7.4-4.6,6.6c-3.6-0.5-9.1,1.3-8.5-5.7
		c1.9-23.9,3.7-47.9,5.5-71.8C364.6,734.2,365.4,734.1,366.3,734z"/>
	<path class="st55" d="M1150.2,935.8c-6.8,0.4-13.6,0.8-20.4,1.2l-3.2,1.9c0,8.2,0.1,16.4,0,24.6c-0.3,24.9-0.3,24.9,24.2,21.8
		C1150.6,968.8,1150.4,952.3,1150.2,935.8z"/>
	<path class="st56" d="M1150.4,849.3c-0.1,14.4-0.1,28.8-0.2,43.2c-23.8,1.8-23.8,1.8-23.7-22.2c0-2.2,0.3-20.3,0.3-20.3l12.2,0
		C1139.1,849.9,1146.6,849.5,1150.4,849.3z"/>
	<g>
		<path class="st0" d="M1094.4,1104.3c-27.7,0-53.4-1.3-75.5-3c-36.8-2.9-67.7-7.4-87.2-10.7c-36.4-6.1-37.1-7-39-9.9l13.2-8.9
			l-6.6,4.5l2.1-5.4c1.8,0.5,197.9,43.2,361.3-1.3l3.9,14.2C1209.1,1099.5,1147.9,1104.3,1094.4,1104.3z"/>
	</g>
</g>
</svg>
