<?xml version="1.0" encoding="utf-8"?>
<!-- Generator: Adobe Illustrator 23.0.3, SVG Export Plug-In . SVG Version: 6.00 Build 0)  -->
<svg version="1.1" id="Capa_1" xmlns="http://www.w3.org/2000/svg" xmlns:xlink="http://www.w3.org/1999/xlink" x="0px" y="0px"
	 viewBox="0 0 1630.9 1125.3" style="enable-background:new 0 0 1630.9 1125.3;" xml:space="preserve">
<style type="text/css">
	.st0{fill:#040006;}
	.st1{fill:#070208;}
	.st2{fill:#C13033;}
	.st3{fill:#DB9EA3;}
	.st4{fill:#FFFFFF;}
	.st5{fill:#DB9FA3;}
	.st6{fill:#DCA0A4;}
	.st7{fill:#F5F3F4;}
	.st8{fill:#F6F3F3;}
	.st9{fill:#080208;}
	.st10{fill:#09060A;}
	.st11{fill:#090609;}
	.st12{fill:#C03231;}
	.st13{fill:#C13233;}
	.st14{fill:#0C090C;}
	.st15{fill:#B23234;}
	.st16{fill:#0E0B0D;}
	.st17{fill:#C23738;}
	.st18{fill:#9C242A;}
	.st19{fill:#942729;}
	.st20{fill:#1A0F0F;}
	.st21{fill:#1A0E10;}
	.st22{fill:#120C0F;}
	.st23{fill:#140D0F;}
	.st24{fill:#0C0A0C;}
	.st25{fill:#141213;}
	.st26{fill:#121011;}
	.st27{fill:#0F0D0F;}
	.st28{fill:#0B090B;}
	.st29{fill:#0A080A;}
	.st30{fill:#110F10;}
	.st31{fill:#C13032;}
</style>
<g>
	<path class="st0" d="M1503.9,815.1c3.9-5.8,7-12.2,11.1-17.9l3.3-5.1c5.5-7.6,9.6-16.1,15.1-23.7c0.9-1.2,1.8-2.5,2.6-3.8
		c5.4-7.9,10.1-16.2,15.4-24.2c1.8-3,3.8-5.9,5.7-8.9c2.8-4.4,5.8-8.6,8.7-12.8c5.4-10.4,13.5-20.6,0.6-31.3
		c-3.6-2.9-7.6-4.8-12.3-5.4c-28.1-0.6-56.3-0.1-84.4-0.2l-58.8,3c-0.6,0.1-1.3,0.3-1.9,0.4c-3.8-2.9-1.7-6.9-1.8-10.3
		c-0.3-12.9-0.1-25.9-0.1-38.8l-18.8,8.4c-17.5,14.5-35.6,28.1-54.2,41.2c-6,4.2-11.8,8.9-18.9,10.6c-1-1.4-1.2-2.1-1.1-2.9
		c0.1-2.3,0.4-4.5,0.8-6.8c7.9-49.3,4.9-97.9-7.7-146c-5.6-21.5-5.3-21.1,15.8-29.3c12.1-4.7,25.6-7.7,33.6-19.6
		c5.7-7.5,17.1-7.2,22.1-15.1c20.6-32.8,39.9-66.1,33-107.3c-1.6-2.9-3.2-5.9-4.8-8.8c-9.9-17.7-32-26.1-47.9-16
		c-8.8,5.6-16.9,5.2-25.9,5.1c-11.3-0.2-22.7-0.8-34-0.2c-13.1,0.7-25.3-3.2-36.5-8.2c-33.1-14.7-64.9-32.4-100.9-39.9
		c-12-3.5-24.5,0.9-36.6-2.3c-1.4-0.5-2.9-0.9-4.1-1.7c-75.6-49.2-158.6-77.6-248-86.4c-126.5-12.5-246.9,9-356.4,75.5
		c-120.1,73-198.3,175.4-211.6,319.8c-0.6,6.9-4,7.5-9.5,7.9c-27.5,2-55,4.3-82.3,8.8c-16.5,2.7-16.9,2.6-16.7,19
		c0.1,7.3-1.8,9.7-9.5,9.6c-29.1-0.6-58.3-0.6-87.4-0.3c-11.1,0.1-23.9-1.9-30.3,10.5c-6.1,11.9,3,20.9,8.7,29.9
		c19.9,31.7,40,63.2,60.5,94.5c6.4,9.8,6.4,18.1-0.1,27.9c-22.1,33.4-43.6,67.2-65.3,100.9c-4.5,7-9.2,13.9-12.9,21.3
		c-6.7,13.5-1.5,24.3,13.2,27.2c7,1.4,14.3,1.2,21.5,1.4c29.9,0.9,59.7,1.8,89.6,2.6c5.2,0.1,10,0.3,8.8,7.8c-0.9,5.7,2,6.4,6.6,4.5
		c3.1-1.3,6.5-2,9.6-3.4c59.6-25,121.1-29.7,184.5-19.4c63.1,10.2,124.8,26.6,186.4,42.9c80.3,21.2,160.2,43.1,240.5,64.2
		c76.1,20,152.3,37.5,231.1,40.8c35.4,1.5,71-1,106.3-3.8c17.8-1.4,35.6-3.5,53.2-6.3c17.8-2.9,35.4-8.6,53.1-11.3
		c4.8-0.7,9.6-1.8,14.4-3.2c29.5-8.4,58.8-17.8,85.6-32.5c19.4-10.6,38.2-14.2,60.2-12.9c34.2,2,68.5,4.2,102.7,5.9
		c11.6,0.6,21.4-1.1,31.1-6.6c8.8-12.2,0.1-22.2-4.2-32.8c-0.5-1-1-2-1.6-3c-16.3-28.5-30.7-58-46.8-86.6c-2.5-4.5-4.8-9.1-7-13.8
		c-3.7-7.1-7.3-14.2-10.7-21.5c-0.4-0.9-0.9-1.8-1.4-2.6c-1.8-2.9-2.9-6.1-3.6-9.4c-0.2-1-0.5-1.9-0.8-2.9
		c-2.9-13.3,6.6-22.1,11.9-32.5C1498.1,824.6,1500.5,819.5,1503.9,815.1L1503.9,815.1z M1389.7,685c-0.8,46.1,0.3,92.2-1.6,138.3
		c-2.5,58.9,0,118-2.5,176.9c-0.5,11.7-4.2,18.2-14.7,23.8c-57.4,30.2-119.1,45.7-182.3,56.9c-3.6,0.6-8.2-0.3-10.4,3.4
		c-68.9,7.7-136.9,4.3-188.1-1c-2.4-2.5-6.4-1.9-9.7-2.4c-20.9-3.4-41.9-6.3-62.7-10.6c-80.8-16.6-160.1-39-239.8-60.3
		c-74.9-20-149.3-41.7-225.1-58.3c-35.2-7.7-70.7-13.3-106.6-15.7c-38.9-2.6-76.9,2.8-113.9,15.9c-25.2,9-22.7,9.1-23.2-16
		c-0.7-35.2,1.9-70.3,2.2-105.4c0.5-58.3,0.1-116.5,0.2-174.7c0-15.1,1.6-17.3,16-19.3c38.2-5.3,76.7-8.5,115.2-9.6
		c47.8-1.4,95.2,4,141.8,14.2c94.7,20.7,187.7,47.5,281.1,73c73.8,20.1,147.4,39.8,223.7,48.1c27.9,3,55.9,4.5,83.7,4.3
		c33.5-0.3,67.3-1.3,100.7-5.9c35.6-4.9,71-10.3,104.8-24c35.8-14.6,67.7-35.2,98-58.7c3.5-2.7,7.1-8.4,11.1-6.5
		C1392.3,673.8,1389.8,680.3,1389.7,685L1389.7,685z"/>
	<path class="st1" d="M292.1,308.6c-2.2,4.7,1.2,6.5,4.5,8.7c10.4,7,20.9,14,21.2,28.6c0,2.3,2,2.7,3.6,3.7
		c12.7,7.9,15.8,16.7,10.5,30.4c-4.7,12.1-11.6,22.9-21.2,31.7c-13,11.9-26.5,8.8-32.4-7.7c-1.4-4-3.8-6.3-7-8.4
		c-10.7-7-21.5-14-32.3-20.9c-3.1-2-6.3-3.2-10.5-2.9c-15.2,1-24-9.9-19.6-24.5c1.6-5.3,4.7-10.3,7.9-14.9
		c8.6-12.4,16.6-25.2,23.6-38.6c6.6-12.6,14.8-16.1,28-12.4C284.5,285.7,292.4,294.8,292.1,308.6L292.1,308.6z M552,121.5
		c-1,11.6,5.3,20.8,2.2,30.8c-0.7,2.2,0.9,3.3,3,3.7c15.8,3.2,20.5,15.4,22.7,29c5.3,31.7-36,65.4-66.1,54.2
		c-5.9-2.2-11.5-5.6-13.4-11.4c-3.3-9.9-9.6-19-11.4-28.8c-1.7-9.4-5.1-17.2-9.4-25.6c-12.4-24.1,4.1-53.5,33-60.4
		c3.6-0.9,7.4-0.6,9.6-4.8c3.6-6.8,9-11.8,17.3-9.3s10.5,10.1,12.1,17.7C552.1,118.7,552,121,552,121.5L552,121.5z M902.7,162.7
		c-7.7,0-15-1.7-22-4.4c-17.4-6.8-21.4-24.6-8.1-38.1c4.3-4.4,8.3-7.7,2.3-13.8c-2.4-2.4-2.5-6.5-1.7-9.8c4-15.9,7-32.4,14.7-46.8
		c9.3-17.6,29.7-23.2,46.8-15.1c16.7,7.9,22.8,27.4,13,44.1c-3.3,5.6-5.2,11.1-6.4,17.5c-1.6,8.8-3.6,18-13.1,22.5
		c-3.5,1.7-3.6,3.1-1.5,6.8C937,144.4,924.8,163,902.7,162.7z M417,135.7c6.1,0.4,11.5,2.9,14,8.2c7.7,15.8,20.4,28.2,28.5,43.8
		c4.2,8.1,8.7,15.9,18.1,20.5c8.2,4,9.8,16.8,4.6,26.5c-7.6,14.2-20.2,22.4-35.5,25.6c-11.3,2.4-19.7-5.1-20.5-16.9
		c-0.9-12.7-5.6-22.9-18.1-28.3c-2-0.9-4.6-2.4-5.1-4.1c-3.3-11.7-11.4-20.5-16.9-30.8C377,163.2,397.7,135.2,417,135.7L417,135.7z
		 M819.3,153.6c-4.3,0.1-9.5-0.4-14.6-2.1c-15.5-5.1-21.1-19.5-12.3-33.4c6.5-10.3,8-20.1,2.6-31.7c-4.1-8.7-1.8-18.2,5.6-24.9
		c3.8-3.5,4.9-6.8,4.7-11.6c-0.4-9.8,4.4-16.5,13.5-20.1c7.4-2.9,14.8-5.5,22.2-8.4c8.5-3.3,14,0.3,17,8.1
		c2.9,7.7,3.1,15.6-0.6,23.1c-11,22.2-12.3,45.6-7.3,69.3C853.8,139.7,841.3,153.7,819.3,153.6L819.3,153.6z M987.1,44.2
		c19.4,0.2,27.6,12,22.9,30.4c-5.3,20.7-8.9,41.8-13.2,62.7c-0.6,2.8,0.8,5.1,1.4,7.6c4.4,17.4-7.1,31.7-25.2,31.7
		c-6.1,0-12-1.3-17.7-3.3c-18.3-6.4-23.2-23.5-11-38.6c6.7-8.3,9.8-17.4,5.7-28c-0.8-2-1.9-4.8-1.1-6.5c6.1-13.5,5.7-29,11.8-42.2
		C965.3,47.6,975.5,43.5,987.1,44.2L987.1,44.2z M754.5,118.4c13.9,18.2-1.4,39.5-19.3,40.3c-7.1,0.3-14,2.4-21.3,0.9
		c-16.9-3.3-24.2-16.3-17-31.8c5-10.6,5.7-20.2-1.3-30.6c-5.6-8.4-2.9-17.5,3.1-25.2c4.8-6.1,11.4-9.7,18.4-12.7
		c12.5-5.3,25.9-4.2,38.8-5.1c10.7-0.7,16.7,7.7,19.7,17.3C781.7,90.7,773.8,107.8,754.5,118.4L754.5,118.4z M384.2,264.1
		c19.8,0.8,28,13,20.7,29.2c-6.2,13.8-16.7,24.2-30.5,30.6c-11.7,5.4-22,0.4-25.4-12.1c-3.3-12-9.8-20.4-22.7-23.4
		c-9.8-2.3-12.5-10.3-12.2-19.2c0.3-8.9,3.9-16.8,8.4-24.4c6.6-11.2,16.8-19.2,25.8-28.1c7.8-7.6,20-6.9,29.4-0.5
		c11,7.6,16.6,21.5,13.6,33.6C390,254.6,387.9,259,384.2,264.1L384.2,264.1z M1058.2,98.3c15.1,0.7,27.3,6,34.1,19.4
		c7.2,14.3,4,27.9-5.4,40.1c-2.8,3.6-5.2,6.6-5.6,11.7c-1.2,15.2-11.1,26.5-26,30.5c-15.7,4.3-32.2-0.3-40.6-12.7
		c-12.9-18.9-10.7-38.6-1-57.9C1022.9,111,1037.2,99.4,1058.2,98.3z M672.1,124.2c0.8,13-3.3,24.6-10.7,35
		c-19.5,27.7-54.6,26.1-71.5-3.2c-12.8-22.2-8.7-51.9,9.8-69.7c12.3-11.9,27.2-16.9,43.6-11.4c17.6,5.9,24.9,20.9,28.1,38.1
		C672.1,116.6,671.8,120.5,672.1,124.2L672.1,124.2z M1141.2,147.2c19.3,5,32.8,16.2,34.2,36.8c1.7,25-9.7,44.5-30.2,58.2
		c-16.7,11.2-34,10-50.8-0.6c-16.3-17.4-16.9-37.5-8-57.9C1096.5,160.2,1114.7,147.2,1141.2,147.2L1141.2,147.2z"/>
	<path class="st2" d="M992,1086.4c-27.5-5-55.1-8.7-82.5-14.3c-47.7-9.9-94.8-22.2-141.9-34.5c-99.7-26.1-198.5-55.5-299-78.7
		c-46.4-10.9-93.2-18.9-141.1-19.6c-37-0.6-71.9,7.9-106.3,20.2c-14.5,5.2-14.7,4.9-14.5-9.9c0.9-99.9,1.9-199.7,2.4-299.6
		c0.1-10.2,2.8-14.4,13.6-15.8c68.8-9.4,137.5-14.4,206.7-5.9c60.2,7.4,118.4,24,176.7,39.6c86.9,23.2,173.5,46.9,260.6,69.4
		c66.1,17,133.5,26.4,201.7,26.1c59.3-0.3,118.6-3.8,176.4-18.7c49-12.6,90.8-38.6,130.2-69.2c5.6-4.3,12-13.8,16.8-11.3
		c6,3.2,2.3,13.7,2.2,20.9c-1,88.9-2.1,177.7-3.3,266.6c-0.2,18.5-1.1,37.1-1,55.6c0.1,7.8-2.5,12.1-9.5,15.9
		c-55.7,30.5-116,47.3-177.8,58.8c-8.1,1.5-16.2,2.9-24.4,4.4C1120,1098.7,1057.8,1098.2,992,1086.4L992,1086.4z"/>
	<path class="st3" d="M1382.1,415.7c-5.3,23-18.9,39-37.3,51.7c-39.3,27.1-82.3,31.8-127.9,21.4c-9-2.1-18-4.5-28.3-7.1
		c10.5,19.9,27.8,27.2,46.7,32.4c5.8,1.6,15.2-0.7,16.4,5.7c0.8,4.1-9.1,6.3-14.3,9.1c-49.3,26.2-89.7,63.1-124.3,106
		c-20.6,25.5-25.2,57.7-30.4,89c-0.6,3.7-1.1,7.5-1.3,11.3c-0.3,5.1,1.6,13.3-0.7,14.7c-4.2,2.5-10.9,1.3-16.6,1.2
		c-76.5-0.4-151.2-13.1-224.9-33c-112.7-30.4-225.1-61.7-338.4-89.6c-24.1-5.9-24.3-5.7-26.3-30c-2.2-26.4,0.9-51.9,10.7-76.8
		c6-15.2,5.2-15.6-10.4-18.1c-1.5-0.2-3.1-0.2-4.5-0.7c-6.2-2.2-15.5-2.1-15.4-10.6c0-7.1,8.7-5.4,13.7-7
		c17.3-5.8,34.1-13,49.3-22.8c42.8-27.7,89.7-31.8,138.5-25.7c43.1,5.4,85.9,13.6,129.5,14.8c33.6,0.9,66.4-3.3,98.4-13.4
		c6.7-2.1,11.4-1.8,17.2,3.2c12.3,10.6,25.4,20.4,41.8,24.1c4.9,1.1,10.9,2.9,13.4-2.2c2.8-6-3.7-8.3-7.7-10.5
		c-24.5-13.2-44.3-31.3-59.8-54.4c-9.4-14.1-15.3-29.5-17.5-46.2c-1-7.8,1-12.2,10.5-9.8c37.3,9.6,75.2,13.2,113.6,11.6
		c33.1-1.3,65.3,0.6,93.2,25.4c0.1-15.2-7.9-23-17.3-30.9c33.7-19.8,68.1-26.8,105.3-14.5c20.1,6.7,39.6,15.1,58.5,24.6
		c29.7,15,60.7,23.1,94.1,19.8c8.4-0.8,9.9,2.2,7,9.3c-2.3,5.7-4.5,11.4-7.5,19.2c12.6-5.9,19-14.9,25.4-23.9
		c5.6-7.9,10.4-18.6,22.7-13.9c12.5,4.7,9.7,16.3,9,26.4c0,0.3-0.4,0.6-1.1,1.7c-10-8.6-20.2-7.2-30,0.5c-5.1,4-7.6,9.4-6.9,15.9
		c0.9,9.1,5.7,11.8,13.9,7.6C1368.1,418,1373.7,414,1382.1,415.7L1382.1,415.7z"/>
	<path class="st2" d="M351.4,612.4c-8.3,0-16.7-0.4-25,0.1c-7.6,0.5-8.8-2.9-8.1-9.5c9.9-100.9,55.7-183.3,130.2-250.3
		c85-76.4,185.9-117,298.8-128.9c124.4-13.2,241.5,9.7,349.9,73.4c3.2,1.9,9.2,2.5,7.5,8.3c-1.7,5.5-7.2,4.6-11.7,4.5
		c-11.2-0.2-21.3-4.4-31.1-9.5c-14.8-7.7-29.6-15.3-44.6-22.3c-10.1-4.7-14.8-1.6-16.1,9.5c-0.6,5.6-0.7,11.3-0.6,17
		c0.2,8.5-3.1,10.7-11,7.4c-27.4-11.1-55.8-18.8-84.8-24.3c-52.8-10-105.8-11.5-158.9-4.7c-73.5,9.4-141.5,33.7-203.2,74.9
		c-19.9,13.3-38.8,27.9-55.1,45.3c-7.6,8.1-15.7,9.2-25.4,8.5c-6.2-0.5-9.2-2.7-7.2-9.4c1.2-3.9,3.8-8.6-0.1-11.6
		c-4.5-3.4-10.3-2.2-15.1,0.2c-17.9,9-26.1,24.8-28.4,43.7c-1.9,15-0.3,29.6,11.3,41.1c3.7,3.7,2.9,7.2,0.7,11.2
		c-19.7,35.9-32.3,74-35.9,115c-0.7,7.7-3.5,11.5-12.1,10.6C367.4,611.7,359.4,612.4,351.4,612.4L351.4,612.4z"/>
	<path class="st4" d="M999.5,332.8c-34.7-8.6-69.5-6-102.9-14.4c-8.4-2.1-17.3-2.1-26-1.1c-15.8,1.7-25.8,12.8-26.8,28.6
		c-1.3,20,7.3,36.7,17.2,52.9c2.5,4.2,5.5,8,8.7,12.6c-11.7,5-23.6,6.2-35.3,8c-48.6,7.2-96.4,0.9-144.1-7.9
		c-23.9-4.4-47.9-6-72.2-6c-34.1,0-65.7,8.5-95.6,24.3c-5.4,2.9-9.4,4.3-12.2-2.8c-0.6-1.6-2.5-2.8-4-4c-12.4-9.7-12.4-9.8-0.3-20.6
		c64.5-57.4,140.1-91.1,225-104.5c89.7-14.1,177-5.5,261.5,28.7C994.9,327.6,998,327.5,999.5,332.8L999.5,332.8z"/>
	<path class="st2" d="M1551.2,712.8c2.6-4.1,7-8.6,4.3-13.1s-8.9-3.2-13.8-3c-41.6,2.1-83.2,1.5-124.8,1.5c-8.2,0-10.2,3-10.1,10.6
		c0.2,49.6,0.1,99.1,0.1,148.6l-4.6,149.7c-0.1,8.6,2,11.8,11.2,12c23.4,0.5,46.8,2.3,70.2,3.6c18.1,1,36.3,1.7,54.4,3
		c10.3,0.7,11-3.5,6.7-11.1c-0.9-1.6-1.8-3.3-2.7-5c-22.9-41.3-44.5-83.4-66.4-125.3c-10-19.2-11.5-36.1,1.1-55
		C1502.3,791.1,1526.5,751.7,1551.2,712.8L1551.2,712.8z M197.2,676.2c0.1-9.5-2.7-12.2-12.1-12.1c-29.9,0.5-59.8,0-89.7,0.1
		c-15.8,0-17.4,2.7-9,16c21,33.2,42.1,66.4,63.5,99.4c9,14,9.2,26.7-0.2,40.9c-25.2,38.2-49.8,76.8-74.3,115.4
		c-7.6,12-5.5,16.1,8.6,16.6c32.5,1.1,65.1,1.5,97.5,2.9c9.9,0.4,13.2-2.4,13.1-12.5l2.3-133.9C196.9,764.6,196.7,720.3,197.2,676.2
		L197.2,676.2z"/>
	<path class="st4" d="M1219.5,634.6c0.3,31.3-4.4,59-13.7,86.1c-2.1,6.1-4.5,10.5-11.8,11.7c-25.7,4.3-51.5,8-77.6,8.4
		c-13.2,0.2-14.5-1.1-13-15.3c4-38.9,17.1-74,43.3-103.7c16.3-18.5,33.7-35.6,54.8-48.7c8.3-5.2,11.4-2.3,12.7,5.7
		C1217.3,598.1,1219.8,617.6,1219.5,634.6L1219.5,634.6z"/>
	<path class="st2" d="M1303.3,637.4c0.2,19.7-3,44.4-7.6,68.9c-0.8,4.3-2.5,7.6-6.9,9.6c-20.6,9.6-42.1,16.5-64.3,21.2
		c-10,2.1-6-4.8-4.7-8.7c12-35.5,16.6-71.9,15.1-109.2c-0.9-20.8-3.5-41.4-9.4-61.3c-2.3-7.6-0.8-11.9,6.9-14.6
		c10.6-3.8,21-8.6,31.5-12.6c4.3-1.7,8.5-3.2,11.3-7.1c6.3-8.9,9.3-4.5,11.7,2.9C1298,560.7,1303.3,596,1303.3,637.4L1303.3,637.4z"
		/>
	<path class="st4" d="M450.1,618.6c-14.8-1.5-30.5-3.3-46.3-4.7c-5.1-0.5-5-3.6-4.7-7.2c3.4-36.4,13.3-70.9,30.3-104.4
		c6.3,9.4,12.6,17.3,22.4,21.4c6.9,2.9,5,8.4,3.6,13.5C448.1,563.9,452.5,591.2,450.1,618.6z"/>
	<path class="st5" d="M1092.1,323c-24.2,12.9-45.6,21.1-70.2,14.3c-3.6-1-4.3-3.7-5.2-6.6c-3.9-11.6-4.2-23.7-4.2-35.7
		c0-6.3,3-5.7,7.1-3.1C1040.9,305.9,1062.8,318.9,1092.1,323L1092.1,323z"/>
	<path class="st6" d="M441.9,410.6c-8.7,13.9-11.4,25.9-6,38.8c5.3,12.7,20.2,17.9,32.2,11.1c5.4-3.1,8.3-7.6,8-13.8
		c-0.3-4.9-2.3-9.1-7.1-10.6c-5.8-1.8-11.2-0.4-15,4.9c-1.8,2.4-3.5,5.8-7.1,3.8c-3.7-2.1-2.3-6.1-1.5-9.2
		c2.2-8.7,9.8-10.7,17.2-12.8c7.8-2.1,14.6,0.5,19.4,6.2c7.4,8.7,9,19.2,4.6,29.7c-4.5,11-20.6,18.4-35.6,17.2
		c-12.9-1.1-24.6-12.6-28.8-28.3c-3.4-12.6,1.6-27.9,11.4-34.4C434.9,412.2,436.9,412.1,441.9,410.6L441.9,410.6z"/>
	<path class="st4" d="M322.6,373.5c-4.2,11.3-10,22.3-20.6,29.7c-5.5,3.8-11.7,1.2-12.5-4.6c-1.4-9.5-8.3-13.1-14.7-17.4
		c-10.7-7.2-21.5-14.1-32.5-20.8c-3.7-2.3-7.5-5.3-12.6-2.8c-3.4,1.7-6.8,0.9-8.9-2.4c-2.1-3.2-1.6-6.8,0.3-9.7
		c10.5-15.7,20.7-31.6,29.9-48.1c3.5-6.3,10.3-3.7,15.5-1.9c5.9,2.1,12.7,4.2,14.3,11.5c0.8,3.6-2.3,5.1-5.6,5.7
		c-3.7,0.6-7.7,0.7-11,2.1c-6.5,2.8-12.5,7.8-11.8,15c0.7,6.7,8.5,8.9,13.7,12.4c1.7,1.1,3.6,0.7,4.9-1.1c2-2.8,2.3-5.6,0.1-8.3
		c-2.3-2.9-6.4-5.7-2.6-9.5c3.4-3.4,7.9-1.6,11.6,0.3c8.1,4.1,15.8,9,22.2,15.5c2.5,2.5,4.9,5.4,3.1,9c-2.1,4.2-5.7,2.4-8.9,1.2
		c-3.8-1.4-8.3-4.3-10.8,1.1c-2.7,5.7,3.4,6.7,6.3,8.7c6.1,4.2,11.9,8.1,20.7,4C319.2,360.2,322.8,365.9,322.6,373.5L322.6,373.5z
		 M540.3,127.7c-0.7,3.4-0.1,6.6,1,10c5.1,16.2-0.1,27.4-15.5,35.2c-3.2,1.6-10.5,1.7-8.1,7c2.8,6.1,8.5,1.8,12.7-0.3
		c5-2.6,9.7-5.9,14.8-8.3c9.3-4.4,16.2-0.8,20.6,7.8c5.7,10.9,3.7,21.5-3.4,30.8c-8.1,10.7-19.6,16.6-32.9,18s-17.5-6.9-21-19.5
		c-2.9-10.3-12.2-18.8-6.8-31.1c0-0.1-1.2-0.7-1.9-1c-10.8-6.4-14.6-16.2-11.8-28c2.9-12.4,12.4-18.9,24-21.5
		c8.1-1.8,15.2-3.4,19.2-11.8c2.2-4.7,5.4-3,7.5,0.7C540.9,119.3,540.4,123.6,540.3,127.7L540.3,127.7z M900.5,149
		c-2.5-0.5-7.3-1.2-12-2.7c-13.7-4.2-15-9.6-4.9-19.6c7.1-7,7.6-19.6,1.8-29.1c-2.7-4.4-0.7-10.4,2.4-12.2c6.2-3.6,4.6-8.2,4.4-13.2
		c-0.7-20.6,19.3-33.6,37.4-24.5c6.2,3.1,10.3,8.2,11.2,14.8c0.8,6.2-0.9,12.4-7.4,15.1c-7.1,2.9-10.2-2.1-12.8-7.5
		c-1.5-3.2-2.3-8.7-7.3-6.3c-4.8,2.2-3.7,7.4-1.1,10.8c4.4,5.7,5.9,14.2,14.8,15.8c3.5,0.6,3.7,3.6,2.8,6.2
		c-1.1,3.4-0.2,8.1-4.9,9.3c-3.8,1-9-0.8-9.7,5.2c-0.8,7-4.8,14-0.5,20.9c2.4,3.8,6.6,6.9,3.4,11.9
		C914.5,149.5,908.6,149.2,900.5,149L900.5,149z M448,246.9c-7.9,0.1-10-3-10.6-9.1c-1.5-15.2-7.4-27.9-22.2-34.6
		c-4.5-2-5.9-5.5-4.5-10.2c0.3-1.1,0.9-2.1,1.5-3c4.8-7.8,9.8-17.9,18.2-19.1c8.2-1.1,9.2,11.1,14.1,17
		c8.9,10.7,11.5,26.4,26.5,32.4c3.8,1.5,3.6,6.6,1.3,10C466,239.6,456.7,244.2,448,246.9z M423.7,159c0,9-10.7,20.6-18.8,20.4
		c-6.4-0.2-9.5-4.1-9.7-10.2c-0.2-8.2,10.8-19.6,18.9-19.8C421,149.3,422.9,154,423.7,159z M821.2,140c-4.8,0.4-10-0.5-14.8-2.8
		c-6.4-3.2-8.1-7.3-3.8-14.5c7.8-12.8,10.8-26.8,4.1-41.2c-1.8-3.8-2.6-7.8,0.8-10.3c8.4-6.3,18.4-8.7,28.8-7.8
		c5,0.4,3.5,5.2,3.2,8.2c-1.1,11.6-2.7,23.2-3.8,34.9c-0.6,7-1.3,13.7,2.5,20.8C842.5,135,835.5,140.1,821.2,140z M823.4,54.1
		c-3.1,0.1-5.8,0.2-6.6-3.2c-0.9-3.8,0.4-6.8,4-8.2c6.2-2.6,12.6-4.7,18.8-7.2c3.9-1.5,7.6-2.1,8.8,3.1c1,4.5,1.6,9.3-4.6,10.8
		C836.8,51.1,829.9,52.6,823.4,54.1z M986.8,86.9c7.8-1.3,10.7,2.4,7.9,12.3c-3.4,11.9-5.6,24.2-8.4,36.3c-1.2,4.9-2.1,9.6,0.4,14.3
		c0.2,0.3,0.3,0.7,0.4,1c1.5,5.1-0.2,9-4.9,11.2c-7.5,3.6-27-1.4-31.4-7.8c-3.3-4.8-0.7-7.8,2.3-11.8c8.9-12.1,13.4-25.7,8.3-40.7
		c-2.1-6.1,0.4-9.3,5.6-11.5C972.5,87.7,978.6,87.5,986.8,86.9L986.8,86.9z M982.3,80.9c-5.7-1.6-14.2-1-14.8-10.9
		c-0.4-6.8,8-13.6,17-13c7,0.4,15.1,1,15.8,10.7C1000.7,74.5,992.1,80.8,982.3,80.9z M737.3,78.5c8.7-11.8,16.1-14,23-8
		c6.7,5.9,7.2,22.3,0.9,29.1c-6.1,6.5-12.1,5.5-20.7-3.6c-4.9,10.4-3.2,24.8,4,32.8c5.7,6.3,4.8,12.4-3,14.8
		c-9,2.7-18.3,4.4-27.8,1.6c-8.2-2.4-9.5-7.2-5.9-14.6c6.6-13.9,7.7-27.8-1.7-41.2c-1-1.4-2-3.8-1.5-5.1
		c3.6-9.9,13.1-11.7,21.5-14.4C732.2,67.9,737.7,68.8,737.3,78.5z M348.2,244.8c-1.1-12.2,3.7-19.4,12.2-19.8
		c9.2-0.5,20,9.9,20.3,19.4c0.3,9.3-5.4,13.2-21.7,12.9c10.4,8.9,14.3,21.7,29.9,21.1c7.7-0.3,8.7,6.4,5.2,12.4
		c-4.8,8.3-11.6,15-20.1,19.6c-7.9,4.3-12.5,1.6-15.1-6.9c-4.4-14.1-12.2-25.3-28-28.1c-2.5-0.4-4.5-1.8-5-4.1
		c-2.3-9.5,3.6-16.5,8-23.8C337.5,241.7,342.1,240.3,348.2,244.8L348.2,244.8z M1045.3,187.8c-19.9-0.2-31-16.5-26.9-39.4
		c5.2-29,32.9-45.2,54.6-32.1c12.2,7.4,15.4,21.8,7,32c-3.3,4.1-7.3,6.7-12.8,5.3c-5.3-1.4-6.1-5.9-6.7-10.6
		c-0.4-3.7,1.9-9.4-4.5-9.7c-5.5-0.2-7.3,4.8-8.8,9.1c-4.5,12.9,1.1,21.5,14.5,22.5c8.6,0.7,11,5.2,6.1,12.6
		C1062.6,185.4,1054.5,187.8,1045.3,187.8L1045.3,187.8z M661,126.3c0.5,7.8-1.7,15-5.4,21.7c-11.6,21.1-37.3,23.4-52.4,4.8
		c-12.6-15.5-12.1-41.1,1.4-55.2c9-9.3,19.9-13.7,32.8-9.9c14.5,4.3,19.9,16.2,22.9,29.6C661,120.2,660.8,123.3,661,126.3z
		 M1164.3,191.8c-0.2,22.9-21.3,44.6-43,44.4c-17.4-0.2-29.5-12.9-29.2-30.6c0.4-23.3,20-44.3,41.6-44.4
		C1151.3,161.1,1164.5,174.1,1164.3,191.8L1164.3,191.8z"/>
	<path class="st7" d="M487.3,900.4c-4-0.5-8.1-1.1-12.1-1.6c-16.1,3.7-22.6-0.3-22.7-15.2c-0.4-60.5-0.1-120.9-0.2-181.3
		c0-2.7,0.2-5.3,1.6-7.7c-0.9-11.7,3.4-15.9,15.4-12.2c8.2,2.5,16.9,3.6,25.5,4.1c9.3,0.6,12.3,5,11.5,13.7
		c-0.2,2.5,0.9,5.1,1.4,7.6c7.5,10.2,3.7,22.4,5.6,33.5c1.9,10.9,2,22.3,1.7,33.5v4.2c0.1-2.1,0-4.1,0-6.2
		c-0.4-18.8,1.8-37.4,3.5-56.1c0.3-3.4,1.1-6.6,3.4-9.4c0.3-1.1,0.9-2.2,0.8-3.3c-0.4-10.4,4.5-13.1,13.8-9.8
		c2.5,0.9,5.1,1.2,7.7,1.9c9.8,2.5,23.5,0.5,28.4,8.1c4.7,7.4,1.6,19.7,1.7,29.9c0.3,31.7,0.5,63.4,0.8,95.1c0.4,0.6,1.1,1.3,1.1,2
		c2.3,28.2,3.4,56.4-0.6,84.6c-4.8,5.6-10.7,3.4-16.4,2.1c-20-4-22.5-7-22.6-27c-0.2-35.2-0.1-70.4,2.1-96.2
		c-0.5,28.4-4,65.9-6.8,103.4c-0.3,4.2-1.1,8.4-6,9.9c-3.5-0.7-7-1.3-10.5-2c-10.9,0.6-14.1-1.2-15.7-12.5
		c-2.5-18.7-3.9-37.5-6.3-56.2c-2.7-21.2-2.4-42.6-4.4-60.6c2.5,7.4,1,18.5,1.4,29.3c1,26.7,2.1,53.5,3,80.2
		C493.6,891.4,494.4,897.8,487.3,900.4L487.3,900.4z M1072.9,1029.1c-4.9,0.4-9.8,0.7-14.7,1.1c-17.3,3-22.4-0.1-25.5-16.4
		c-4.3-22.6-10.3-44.9-11.9-67.9c-0.1-1.7-1.3-3.4-0.6-4.1c3.6,21.8,2.2,45,2.3,68.1c0,5.1,1,10.7-3.6,14.9
		c-4.9-0.2-9.7-0.5-14.6-0.7c-13.9,2.8-19.9-1.3-22.1-14.8c-0.8-5.2-0.8-10.5-0.8-15.8c0-52.7-0.1-105.4,0.1-158.1
		c0-6.3-1.3-12.9,3.5-18.4c0.9-1.1,0-6.4,0.8-8.3c1-2.4,2.3-4,4.9-4.9c3-1.1,6.3,0.3,9.3,0.7c11,1.2,20.3-0.2,21.2,13.6
		c0.1,1.7,1.3,3.4,2,5.1c2.2,1.2,3.1,3.3,3.4,5.6c3.6,21.6,10.6,42.5,11.1,60c-2.6-17.2-1.2-39.1-1.2-60.9c0-3,0.5-6,2.9-8.3
		c1-6.1-1.3-13.3,10.1-12.9c22.6,0.9,22.6,0.1,24,12.8c4.1,3.8,3.8,8.9,3.9,13.7c0.2,60.5,0.1,121,0,181.3
		C1077.2,1019.7,1077.9,1025.3,1072.9,1029.1L1072.9,1029.1z M1244.9,1016.8l-6,1.8c-2.1,2.3-4.9,3.5-7.8,4.3
		c-11.7,3-17.5-0.8-17.9-13c-0.6-22.6-0.1-45.3-0.3-67.9c0-4.3,0.7-8.7-2.1-13.2c-3.2,4.7-2.1,9.3-2.1,13.7
		c-0.2,23.4,0.2,46.8-0.3,70.1c-0.1,5.2,2.3,13-7.5,13.3c-4.2,0.4-8.4,0.7-12.6,1.1c-15.3,9.7-25.3,5.1-25.4-12.2
		c-0.4-63.4-0.2-126.8-0.1-190.1c0-4.6,0.3-9.1,3.1-13c-1-9.1,3.6-12.4,12.3-13.1c19.5-1.5,38.5-8.3,58.4-4.7
		c13.9,7.7,17,22,18.7,35.4c2.1,16.3,2.1,33.1-2,49.4c-2.4,9.4-6.1,17.8-16,20.3c12.2,1.8,15.4,12,18.3,22.3
		c1.7,28.1,1,56.3,0.3,84.4C1255.9,1012.1,1254.6,1019.3,1244.9,1016.8L1244.9,1016.8z M685.3,747.1c1.9-16.2,2-16.3,18-11.8
		c10.1,2.9,20.1,6.2,30.2,9.3c14.7,4.4,26.5,12.4,33.2,26.7c6.4,6.3,7.8,14.4,7.9,22.9c0.2,11.7-0.1,23.4,0.1,35.2
		c0.1,11.1-2,21.1-13.9,27.5c13.5,12,14,27.3,14,43.1c0,15-1.9,30.2,1.6,45.2c0.1,9,3.9,18.4-3.4,26.4c-4.2-0.6-8.4-1.2-12.6-1.9
		c-19.3,1.3-26.2-4.6-26.3-23c-0.2-19.3,0.1-38.6-0.1-57.9c-0.1-6.3-0.2-12.7-4.9-19.9c-2.8,8.8-2,16.2-1,23.3
		c2.5,18.5,1.3,37,1.2,55.5c0,3.8,0.8,8.6-4.6,10.4c-4.6-0.9-9.2-1.8-13.7-2.7c-20.2,1.4-27-4.6-27.1-24.5
		c-0.1-17.4,0.1-34.7-0.1-52.1c-0.1-17.7-0.1-35.4-1.7-53.1C680,799.7,682.7,773.3,685.3,747.1L685.3,747.1z M866.9,998.2
		c-2-0.6-3.9-1.3-5.9-1.9c-18.6,2.3-24.5-2.7-24.7-20.8c-0.1-17.4,0-34.8-0.1-52.1c0-7.9-1.1-15.6-4-24.5c-3.4,4.8-2.5,9-2.5,12.8
		c-0.1,20.8,0.2,41.6-0.2,62.3c-0.1,4.7,1.8,11.1-5.6,13c-3.3-1.8-6.8-2.9-10.7-2.5c-22.1,1.1-29.3-5.2-29.2-26.6
		c0.2-59.6-0.7-119.3,0.5-178.8c2.5-5.2,0.9-11.3,3.4-16.6c26.1,5.1,52.1,10.7,74,27.2c8.6,7.5,11,18,12.5,28.3
		c2,13.7,3.5,27.5,2.6,41.5c-0.7,10.7-3,20.2-14.7,25c8.6,7.9,12.5,17.5,14.7,27.9c1.1,24.8,0.7,49.6,0.2,74.3
		C877.1,992.1,879,1002,866.9,998.2L866.9,998.2z"/>
	<path class="st7" d="M1300.5,999.5c-5.1,2-10.3,4-15.4,6c-0.9,0.7-1.7,1.6-2.6,2.1c-6.9,4-14.6,9.1-22,4.4
		c-6.6-4.2-3.2-12.4-2.7-19c2.8-41,6.9-81.9,10.2-122.9c2.2-27.1,4.3-54.1,7.2-81.1c1.3-9.8,7.3-14.5,16.8-15.4
		c11.9-2,23.2-6.4,34.5-10.4c6.6-2.4,9.5-1.1,10.2,6.4c5.1,53.2,10.6,106.5,16,159.6c0.9,9,0.9,18.3,3.2,26.9
		c3.7,13.9-0.9,22.1-14.1,26.3c-1.1,1,0.5-0.1-0.7,0.9c-6.2,5-13.3,11.5-21,8.1c-7.5-3.3-5.7-13-6.7-20.4c-0.5-3.9,2.7-11-3.6-11
		c-5.7,0-5.3,7-5.9,11.9C1302.6,981.1,1306.5,990.9,1300.5,999.5L1300.5,999.5z M623.2,909c-0.3,2.2-1,4.5-0.7,6.6
		c1.7,11-1.9,15.8-13.4,12.2c-1.9,0.1-3.7,0.6-5.6,0.4c-20.5-1.7-25.4-6.9-23.4-27.1c5.4-55,9.1-110.2,15.4-165.1
		c0.5-4.1,0.2-8.4,3.6-11.6c3.4-15.9,3.5-16.1,19.7-11.8c13,3.5,25.9,7.4,38.9,11.1c2.9,7.8,3.5,16.2,3.5,24.1
		c0.2,21.6,7.2,42.1,8.4,63.5c0.5,8.5-0.5,17.4,2.4,25.7c3.4,31.1,6.2,62.4,9.6,93.5c0.4,3.4,0.4,6.8-0.3,10.2
		c-1.4,6.2-4.7,7.3-9.7,3.7c-2.8-0.9-5.3-3.4-8.7-1.6c-17.6,1.3-25.6-5.1-26-21c-0.2-6-0.6-12-2.1-17.8c-0.7-2.6-1.4-5.6-4.4-5.9
		c-3.9-0.3-3,3.4-3.7,5.7C626,905.9,625.8,908.2,623.2,909L623.2,909z M922.1,1001.7c-0.7,12-9.9,3.1-14.4,5.9
		c-7.8,1.8-14.9-1.5-22-3.5c-6.3-1.8-6.9-6.8-6.8-12.6c0.5-23,3.8-45.9,5.8-68.8c3.4-39.1,7.3-78.1,11.1-117.1
		c0.4-3,2.6-5.5,2.9-8.5c0.7-5.8,4.2-7.5,9.4-6.7c15,2.5,29.9,5.3,45,7.5c1.8,0.3,3.3,1.7,4.4,3.3c2.6,36.9,6,73.7,11.4,110.3
		c6.3,8.9,4.6,19.6,5.3,29.4c1.6,21,5.4,41.8,6.5,62.8c0.4,7,2.5,14.8-7.5,17.4c-3.9,0-7.8-0.2-11.6-1.3c-3.8-0.2-7.4-0.9-11.1-1.6
		c-9-1.6-14.1-6.5-14-16c0-5.3-1.1-10.5-2-15.7c-0.6-3.5,0.1-9.1-4.7-9c-5.5,0.1-4.3,6.1-4.9,9.9
		C924,992.3,925.3,997.4,922.1,1001.7L922.1,1001.7z M335,684.5c-0.7-11.4,4.7-14.8,15.6-13.3c10.1,1.4,20.4,2.1,30.5,1.6
		c10.4-0.6,12.2,4.5,13.1,13.2c6.5,65,13.3,129.9,20.5,194.7c1.7,15.4-9.8,6.2-14.7,9.1c-15.3,6.2-28.2-1-28.6-17.1
		c-0.1-4.9,0-9.8-0.7-14.7c-0.4-2.3-1.1-4.6-3.9-4.8c-3.6-0.3-4.2,2.5-4.6,5.2c-0.6,4.5-0.1,9-0.4,13.6c-0.2,4.8,0.7,9.9-3.2,13.9
		c-4.6,0.6-9.3,1.3-13.9,1.9c-4.3,3.2-9.3,2.8-14.1,2.8c-13.9-0.2-15.3-3.1-14.7-17c1.3-31.2,4.9-62.3,7.1-93.4
		c2-27.8,6-55.4,7.2-83.2C330.4,692.2,332.1,688.1,335,684.5L335,684.5z M1087.3,818.8c-1.4-10.7,4.1-13.3,13.8-13.3
		c13.6-0.1,27.2-0.9,40.7-2.6c9-1.1,12.5,1.7,11.6,10.5c4.7,12,5.3,23.9-0.6,35.7c-3.5,2.5-7.5,2.5-11.5,2.5
		c-8.7-1-13.6,2-12.5,11.6c0.2,2.3,0,4.5,0.1,6.8c0.3,5.6-1.6,11.8,1.6,16.7c3.6,5.5,9.9,1.1,14.8,2.2c2.6,0.6,5.2,1.1,6.8,3.5
		c3.4,13.5,2.8,27.1,0.4,40.7c-5.3,7.6-13.7,3.1-20.4,5.4c-0.8,0.7-1.6,1.4-2.3,2.2c-0.7,10.8-0.3,21.7-1.1,32.5
		c-0.5,7.3,2.8,10.4,10.3,9.1c4.8-0.9,9.8-1.3,14.5,0.9c3.3,1.9,4.4,5.2,4.7,8.6c0.8,10.5,1,21.1-0.1,31.6c-0.5,4.1-1.6,8.5-7.6,7.5
		h-10c-15.5,5.2-31.4,3.2-47,1.5c-7.1-0.8-7.7-7.7-7.7-13.4c0.2-20.1-2-40-2.3-60c-0.7-39.3-0.2-78.7-0.2-118
		C1083.5,833.4,1083.1,825.7,1087.3,818.8L1087.3,818.8z"/>
	<path class="st8" d="M303.1,889.8c-1.9,0.1-3.8,0.1-5.6,0.2c-12.5,6.4-26.2,6.6-39.8,7.1c-7.2,0.2-10.9-4.2-11.5-11.4
		c-0.3-3.8-0.3-7.6-0.3-11.3V707.6c0-6.4-0.6-12.9,3-18.8c-0.9-9.3,2.9-12.7,12.7-13.5c26.5-1.9,26.4-2.5,26.4,24.4
		c0,43.1,0,86.2,0.1,129.3c0,18.4,0.2,18.4,19.2,16.6c5.5-0.6,5.9,3.7,6.8,7.2c2.6,10,2.7,20.2,1.1,30.3
		C313.9,890,310,892.7,303.1,889.8z"/>
	<path class="st9" d="M248.8,688.7c0.3,62.4,0.5,124.8,0.7,187.1c0.1,20.3,0,20.2,19.8,17c9.3-1.5,18.5-3.6,28.1-2.9
		c2,10.5-2.6,13.4-12.9,13.7c-13.9,0.4-27.8,2.7-41.6,4.9c-6.8,1.1-8.9-1-8.9-7.5c0-67.7-0.1-135.3-0.5-202.9
		C233.5,685.2,243.2,690.9,248.8,688.7L248.8,688.7z"/>
	<path class="st0" d="M1087.3,818.8c0.3,3.7,0.8,7.4,0.9,11.2c0.1,63.4,0.4,126.8,0.1,190.1c0,8.2,1.8,11.4,10.5,10.9
		c13.9-0.7,27.9-0.2,41.9-0.2c2.9,10.3-0.7,14.1-11.5,13.6c-13.1-0.6-26.2,0.7-39.3,0.8c-16.1,0.1-16.1,0-16.9-16.2
		c-0.1-66.2-0.1-132.3-0.1-198.4c0-3.8,0.4-7.5,0.7-11.3C1078,819.2,1082.7,819,1087.3,818.8L1087.3,818.8z"/>
	<path class="st10" d="M453.9,694.6c1.9,3.9,1.1,8.2,1.1,12.3c0.2,57.7,0.7,115.3,0.2,172.9c-0.1,11.4,2,17.9,14.5,17.5
		c1.8,0,3.6,1,5.4,1.5c-0.7,15.3-0.7,15.3-16.3,13.4c-18.5-2.3-18.6-2.3-18.6-21.2c-0.2-61.1-0.4-122.1-0.5-183.1
		C439.6,693.7,439.7,693.7,453.9,694.6L453.9,694.6z"/>
	<path class="st1" d="M1150.4,934.9v-43.3c-5-14.4-5.3-28.8,0.2-43.2c5.3-11.3,0.2-23.5,2.9-35c4.2-0.5,8.4-1.1,12.6-1.6
		c0.2,45.6,0.5,91.2,0.7,136.7c0.1,22.6,0.5,45.3-0.2,67.9c-0.3,10.4,2.1,14.7,12.9,11.5c2.8-0.8,6-0.6,9-0.8
		c5.3,6.7,5.6,11.5-4.6,12.5c-6.7,0.7-13.7,0.8-20.1,2.7c-11.1,3.3-14.2-1.1-13.1-11.3c6.5-5.8,6.6-40.6,0.2-46.6
		C1144.7,967.9,1145.6,951.5,1150.4,934.9z"/>
	<path class="st10" d="M671.5,944.4c6.2,1.4,8.2-0.2,7.4-7.2c-3.6-33.3-8.3-66.6-9.5-100.1c1.2-21.1-3.9-42.2,1-63.4
		c1.3-5.7,0.1-11.9-0.7-17.8c-0.6-4-0.7-8.3,2.4-11.7c4.4,1,8.9,2,13.3,3c1.9,3.5,1.1,7.4,1.2,11.1c0.2,58.5,0.7,117,0.3,175.4
		c-0.1,10.9,2.5,16.9,13.7,18.1c3.6,0.4,7,2.5,10.5,3.8c-0.8,17.7-0.8,17.7-18.4,12.7c-1.4-0.4-2.9-1-4.3-1.4
		C668,961.1,671.6,963.2,671.5,944.4L671.5,944.4z"/>
	<path class="st0" d="M787.5,777.8l0.6,107.5c0.2,26.8,0.8,53.6,0.2,80.4c-0.2,8.9,2.3,13,11.1,14.2c4.7,0.6,9.1,3.1,13.7,4.7
		c-1.3,16.6-1.3,16.6-17.8,12.4c-0.7-0.2-1.5-0.4-2.2-0.6c-19.2-5.1-19.2-5.1-20-24.7c0.1-9.9,0.1-19.8,0.2-29.6
		c-1.2-8.3,0-16.6-0.6-24.8c-3.2-44.7,1.8-89.5-0.7-134.1C771.5,773.5,775.5,772.2,787.5,777.8L787.5,777.8z M599.1,724.4
		c-2.6,30-5.1,60-7.7,90c-2.8,31.9-5.2,63.8-8.6,95.6c-0.9,8.2,1.2,11.7,9.3,12.7c5.9,0.7,11.9,1.9,17,5.2
		c-1.8,16.4-1.8,16.3-18.3,12.3l-23.1-5.7c-4.9-12.6-4.3-14.5,5.5-16.6c3.2-12.6,1-25.4,1.3-38.1c0.5-16.9,0.4-33.8,0.5-50.8
		c2.7-26.4,5.3-52.8,8-79.2c0.5-5.2,1.9-10.4,1.6-15.6C584.1,722.5,589.9,721.2,599.1,724.4L599.1,724.4z"/>
	<path class="st1" d="M898.7,805.8c-3.3,37.2-6.6,74.4-9.8,111.7c-2.2,25.6-4.2,51.2-6.9,76.7c-0.6,6.1,2.3,7.2,6.5,8
		c6.7,1.2,13.4,2.1,19.3,5.6c-0.8,16-0.8,16-16.8,12.8c-2.9-0.6-5.8-2-8.7-2.1c-13.5-0.5-18.3-7.3-15.5-20.2
		c6.5,0.6,7.8-2.7,7.7-8.7c-0.4-26.8-0.3-53.6-0.4-80.3c-1.4-26.5,2.2-52.6,7-78.6c1-5.6,0.4-11.3,1.5-16.9
		C884.8,802.7,887.6,801.1,898.7,805.8L898.7,805.8z M1277.9,787.8c-4.3,52.3-8.5,104.5-12.8,156.7c-1.7,20.3-3.3,40.6-5.2,60.9
		c-0.6,6.3,1.7,6.9,7.1,5.3c6-1.8,11.5-5.6,18.1-5.3c0.9,6-0.8,9.7-7.4,11.4c-8.2,2.1-16.2,5.4-24.3,7.9c-7.2,2.2-11,0.5-8.4-7.9
		c5.3-1,8.3-3.1,8.2-9.6c-0.5-29.7-0.5-59.4-0.6-89.1c-2.1-13.9-1.6-27.8,0.9-41.5c1.9-10.4,2.9-20.9,2.7-31.3
		c-0.4-16.7,5.8-32.3,6.4-48.9C1262.7,788,1271,787.8,1277.9,787.8L1277.9,787.8z M303.1,889.8c6.7-0.3,9.8-3.1,9.1-10.4
		c-0.8-8.9-0.4-17.8-0.5-26.7c0-3.3,0.6-7-4.5-7.2c2.5-44.4,7-88.6,11.3-132.9c0.4-4.5,1.5-9.1,1.1-13.5c-1.3-12,3.9-16.4,15.4-14.7
		c-5.5,64.4-10.9,128.9-16.6,193.2c-0.6,7.2,0.2,10.5,8.3,9.6c5.9-0.6,12,0.2,18,0.4c0.2,10.2-3.9,15.1-14.9,13.7
		c-5.1-0.7-10.5,0.3-15.7,1C303.8,903.8,300.1,899.8,303.1,889.8L303.1,889.8z"/>
	<path class="st10" d="M971.7,1018.9c9.8,1.3,6.5-5.9,6.1-10.2c-2.3-24.8-5.1-49.6-7.5-74.4c-0.7-7.5-1-15.1-1.5-22.6
		c2.5-27,2.4-54,1.6-81c-0.3-11.6,3-16,14.4-13.7c0.3,7.5,0.8,15.1,0.8,22.6c0.2,54.1,0.3,108.2,0.4,162.2
		c0,18.5,0.1,18.5,18.1,22.3c-0.7,15.9-0.7,16-17.3,13.3c-5.1-0.8-10.2-1.9-15.4-2.9C969.9,1029.2,968.9,1024,971.7,1018.9
		L971.7,1018.9z"/>
	<path class="st11" d="M823.8,986.9c5.2-2.5,3-7.2,3-11c0-25.6-0.3-51.2-0.3-76.8c0-2.7-1.8-7,2.2-7.7c4.1-0.7,7.4,2.6,8.1,6.4
		c1.3,6.2,2,12.7,2.1,19c0.4,20.3,0.9,40.7,0.3,61c-0.3,9.6,2.1,14.8,12.2,15.5c3.2,0.2,6.4,2,9.6,3c-0.2,2.6-0.7,5.3-0.4,7.9
		c0.7,8.1-3.8,8.7-9.9,7.1c-3.6-1-7.1-2.6-10.8-3.3C822.3,1004.9,823.4,1006.6,823.8,986.9L823.8,986.9z"/>
	<path class="st9" d="M724.8,958.3c2.6-25.6-0.4-51.1,0-76.7c0-3-0.5-6.1,0-9c0.6-3.6-2.9-9.7,2.8-10.2c5.4-0.4,7.7,5,8.4,10.3
		c2.2,16.1,0.8,32.4,1.2,48.6c0.2,10.2,0.6,20.4-0.1,30.5c-0.6,8.4,2.1,12.4,10.6,13.5c4.3,0.5,8.5,3,12.7,4.5
		c-2,17.3-2,17.3-18.9,12.5l-8.7-2.4C720.7,976.5,718.5,970.6,724.8,958.3L724.8,958.3z"/>
	<path class="st1" d="M1201,1026c5.7-1.6,4.3-6.3,4.3-10.2c0-27.9-0.2-55.8,0.1-83.7c0-3.8-4.1-11.2,4.4-11.3
		c7.8-0.1,6.7,7,6.8,11.9c0.3,24.9,0.3,49.7,0.3,74.6c0,15.3,0,15.3,15.3,12c2.2-0.5,4.5-0.4,6.7-0.6c1.3,7.3-1.2,11.2-9.1,12
		c-5.9,0.6-11.8,2.3-17.5,4C1204.1,1037.3,1200.2,1034.7,1201,1026L1201,1026z"/>
	<path class="st10" d="M487.3,900.4c3.1-3.6,1.8-8,1.8-12c0.1-38.6,0.1-77.1,1-115.8c3,28.4,6.1,56.7,9.1,85.1
		c1.1,10.9,2.5,21.8,3.1,32.7c0.5,8.8,3.5,14.8,13.1,15.6c-1.9,15.2-12.1,20-24.4,11.1C485.1,912.8,488.7,905.9,487.3,900.4
		L487.3,900.4z"/>
	<path class="st1" d="M525.8,907.9c5.7-24.3,4.7-49.3,7.7-73.9c2.1-17.5,3.3-35.2,7-52.7v65.5c0,16.2,0.9,32.5,0.1,48.6
		c-0.5,11.2,2.2,18.2,14.6,18.4c1.8,0,3.6,1,5.4,1.5c3.1,4.3,4,9.1,0.9,13.6c-3.5,5.1-9.1,2.7-13.4,1.8c-5.8-1.1-11.6-2.5-17.2-4.7
		C521.4,922.2,528,913.8,525.8,907.9L525.8,907.9z M1018.8,1024.7v-88c0.6-0.1,1.1-0.2,1.7-0.3c3.3,16.2,6.5,32.3,9.8,48.5
		c2,10,4.6,19.9,5.7,29.9c1.1,10,5.5,14.7,15.7,14c2.1-0.2,4.3,0.9,6.5,1.4c1.7,11.8-3.7,13.9-14.7,13.9
		C1029.1,1043.9,1021,1038.8,1018.8,1024.7L1018.8,1024.7z"/>
	<path class="st9" d="M922.1,1001.7c0.2-7.5-0.1-15.1,0.7-22.6c0.3-2.6-2.3-9.1,4.8-7.1c4.4,1.2,11.1,0,10.6,8.5
		c-0.4,6.4,1.4,12.9,0.8,19.2c-1.1,10.5,2.7,15.5,13.2,15.7c3.3,0.1,6.7,1.1,10,1.7c3.7,4.4,5.5,10.2,2.2,14.5
		c-3,3.9-8.8,2.4-13.4,0.5c-8.2-2.6-18.4-0.2-24.7-5.9C919.9,1020.2,925.7,1009.6,922.1,1001.7L922.1,1001.7z M623.2,909
		c0.2-3-0.2-6.2,0.7-9c0.8-2.4-3-8.1,3.5-6.9c4.1,0.8,10.6-1,10.9,6.8c0.3,8.3,1.6,16.5,1.3,24.8c-0.3,7.8,1.9,11.8,10.1,12.9
		c4.5,0.6,8.8,3.4,13.1,5.1c0,0.5-0.1,1.1-0.1,1.6c1.6,13,1.6,13-12.2,11c-0.4,0-0.8,0.2-1.1,0.1c-25.1-4.2-25.1-4.2-25.7-29.5
		C623.7,920.4,623.4,914.7,623.2,909L623.2,909z"/>
	<path class="st1" d="M358.6,885.8c0.1-10.2,0.7-20.3,0.3-30.5c-0.3-6.7,3-7.1,8.2-7.1c5.1,0,7.6,1.2,7.5,6.9
		c-0.2,7.1,1.1,14.3,0.7,21.4c-0.6,8.7,3,12,11.4,11.9c4.5-0.1,8.9,0.9,13.4,1.3c1.1,13.9,1.1,13.9-13.1,13.5
		c-1.9-0.1-3.8-0.1-5.7-0.2C362.9,902.4,362.9,902.4,358.6,885.8L358.6,885.8z"/>
	<path class="st12" d="M898.7,805.8c-13.9-1.1-13.9-1.1-15.4,15.9c-2.3,25.9-4.6,51.9-7.1,77.8c-0.3,3.3,0.1,6.9-2.1,9.8
		c-4.2-10-8-20.4-22.3-26.7c17.5-0.2,21.4-9.2,21.8-20.9c0.9-24.8,3-49.8-11.8-72.1c11.6,6.3,11.3,18.4,14.2,29
		c0.9,3.3-1.4,7.4,2.1,10.3c3.5-1.5,2.4-4.5,2.4-6.8c-0.1-10-1-20.3,13.2-21.8c2.7-0.3,2.8-3.3,3.5-5.3c1.5-4,4.2-6.3,8.6-5.6
		c16.2,2.5,32.4,5,48.6,7.8c1.3,0.2,2.1,2.8,3.2,4.2c-16.5-5-33.7-6.6-50.7-9.3C895.9,790.4,902.3,801.7,898.7,805.8L898.7,805.8z"
		/>
	<path class="st13" d="M1277.9,787.8c-16.3,0.3-14.8,12.6-15.8,23.3c-3.2,35.7-6.4,71.4-9.6,107.2c-3.9-8.2-7.8-16.3-19.5-18.6
		c14-6.8,18.2-18.2,19.2-31.2c1.3-16.2,1.6-32.3-1.1-48.4c-1.8-10.4-5.9-19.3-14.4-26c10.3,2.4,13.8,10.5,16.2,19.4
		c0.6,2.2,0.5,4.9,3.5,4.8c3-0.1,3.1-2.8,3.2-5.1c0.1-4.2,0-8.3,0.1-12.5c0.1-2.3-0.1-4.6,0.5-6.7c1.3-4.2,22.1-22.5,27.1-22.6
		C1281,774.5,1276.9,777.5,1277.9,787.8L1277.9,787.8z"/>
	<path class="st14" d="M1300.5,999.5c0.1-10.9,0.5-21.8,0.1-32.7c-0.2-6.9,2.9-9.9,9.1-11.9c4.9-1.6,6.6-1.1,6.7,4.4
		c0.3,10.5,1.1,20.9,1.8,32.5c8.5-3.4,16-6.4,23.4-9.4c2.5,4.8-0.8,6.9-4.3,8.6c-9.4,4.5-19.1,8.6-28.4,13.3
		C1303.1,1007.3,1302,1003.5,1300.5,999.5L1300.5,999.5z"/>
	<path class="st10" d="M1039.2,819.5c1.7,26.2,0.5,52.3-0.4,78.6c-6-24.9-13.3-49.4-15.8-74.9
		C1027.4,817.3,1033.7,820.2,1039.2,819.5L1039.2,819.5z"/>
	<path class="st15" d="M787.5,777.8c-14.5-3.4-14.3-3.4-14.3,12.5c0.1,50.6,0.1,101.2,0.1,151.7c-0.4-16.2-0.9-32.3-1-48.5
		c-0.1-15.9-4.5-29.7-22.4-40.8c19.6,2.6,21.1-8.3,21.8-19.7c1.3-20.8,1.6-41.4-4.9-61.6c9.4,2.5,18.3,4,21-9
		C787.7,767.5,787.6,772.6,787.5,777.8L787.5,777.8z"/>
	<path class="st16" d="M521.9,707.1c-1.6,22.8-3.2,45.5-4.8,68.3c-0.9,1.5-1.4,3.9-4.1,2.3c-1.8-23.4-3.5-46.7-5.3-70.1
		C512.3,703,517.2,707.5,521.9,707.1L521.9,707.1z"/>
	<path class="st17" d="M672,744.2c-0.3,25.4-0.7,50.9-1,76.3c-0.1,5.6,0.5,11.2-1.6,16.6c-4.4-14.6-3.7-29.8-5.4-44.6
		c-2.6-22.8-4.3-45.8-6.4-68.7c4.5,7.6,4.9,16.2,4.9,24.6c0,9.7,1.7,19,4.8,28.2c2.6-5.9,2.1-11.6,0.7-17.8
		C666.9,753.5,664.7,747.3,672,744.2z"/>
	<path class="st18" d="M531,926c4,0.6,8,1,12,2c17.1,4.2,17.1,4.3,17.7-12.7c4.2,0.9,8.4,1.7,12.6,2.6c-9.1,3.1-4.3,10.9-5.5,16.6
		c-8.8-2.5-18.1-0.8-26.9-4C537.4,929.2,533.7,928.9,531,926L531,926z"/>
	<path class="st19" d="M951.1,1032.1c14,0.4,14,0.4,11.2-15c3.2,0.6,6.3,1.2,9.5,1.8c-0.1,5.2-0.1,10.3-0.2,15.5
		c-4.2-1.7-1.5-6.2-3.4-8.8C965.2,1036.9,963.3,1037.6,951.1,1032.1L951.1,1032.1z"/>
	<path class="st10" d="M650.5,955.4c8.1,0.7,13.8-1.1,12.2-11c3.3,4.6,4,10.8,0.6,13.9C660.2,961.1,654.6,957.9,650.5,955.4z"/>
	<path class="st0" d="M1071.2,431.7c0.4,4.6-1,8.5-8.2,4.8c-5.1-2.7-9.4-0.5-13.9,1.9c-12,6.4-24.8,9-38.3,6.4
		c-4.7-0.9-11.1-1.9-11.2-7.6c-0.1-5.9,6.8-5,10.8-5.8c9.7-1.8,19.2-3.7,28.2-8.1c6.5-3.2,6.8-7.2,2.8-12.4
		c-8.5-11.1-20.9-14.5-33.6-16.8c-20.8-3.7-42.3-2-63.1-6.6c-9.6-2.1-19.1-4.7-26.8-11.4c-1.9-1.7-4.4-3.6-3.5-6.6
		c1-3.4,4.5-2.9,6.8-2.2c28.6,9,58.6,4.8,87.7,8.9c24.9,3.5,44.5,16,57.8,37.6C1069.5,418.9,1070.9,424.4,1071.2,431.7L1071.2,431.7
		z"/>
	<path class="st10" d="M1208.7,415.5c0,5.3-2,6.6-5.8,5c-13.6-5.7-27.7-6-42-4.4c-3.1,0.3-6.3,0.9-5.6-4.1
		c1.2-9.6,14.5-16.9,29.1-16C1197.9,396.9,1209.1,406.3,1208.7,415.5z"/>
	<path class="st20" d="M512.7,138.6c4.9,1.2,6.9,5.3,8.9,9.4s4.3,8.1,2.2,12.9c-0.3,0.6-1,1.2-1.6,1.5c-2.2,1.2-4.6,1-6.4-0.5
		c-5.4-4.6-8.3-10.7-9-17.7c-0.2-2.4,1.2-4.3,3.5-5.3C511,138.7,511.8,138.7,512.7,138.6L512.7,138.6z"/>
	<path class="st21" d="M533.4,212.9c-3.5,0-7.6-0.4-8.5-4.1c-1.3-5.3,4.2-3.8,6.7-5.3c2-1.1,3.9-2.4,6-3.1c3.1-1.1,6.4-6,9.6-0.8
		c2.9,4.7-0.8,7.7-4.3,10.1C540.1,211.8,537,213.2,533.4,212.9L533.4,212.9z"/>
	<path class="st22" d="M638.1,137.5c0,3.9,0.2,6.8-2.8,8s-5.1-0.7-6.6-3c-5.8-8.6-9.5-18-11-28.3c-0.4-3-0.4-6.5,3.3-7.5
		c2.9-0.9,5,1.4,6.5,3.6C633.4,119,636.9,128.4,638.1,137.5z"/>
	<path class="st23" d="M1116.9,211c2.8-10.2,6-20.3,12.9-28.6c1.6-1.9,3.5-4.5,6.5-2.8c2.6,1.5,3,4.2,2.5,7
		c-2.1,10.5-6.2,20.1-12.3,28.9c-1.5,2.2-3.5,4.4-6.5,3.3C1116.3,217.4,1117,214,1116.9,211L1116.9,211z"/>
	<path class="st24" d="M1205.1,859.5c0-6.4-0.1-12.8,0-19.2c0.1-2.8-1.1-6.6,3.6-6.8c3.8-0.2,6.9,1.7,7.4,5.6
		c1.6,12.8,1.5,25.6-0.2,38.3c-0.5,4-3.7,7.2-7.7,7.1c-5.4-0.2-2.7-5.1-2.9-7.9C1204.8,870.8,1205.1,865.1,1205.1,859.5
		L1205.1,859.5z"/>
	<path class="st25" d="M737.4,809.2c-0.2,2.7-0.3,7.6-0.8,12.5c-0.4,4.1-2.1,7.1-7.2,6.7c-4.9-0.4-4.8-3.9-4.8-7.3
		c0-11.3-0.1-22.6,0-33.9c0-2.5-1.3-6.1,1.8-7c3.7-1.2,6.5,1.9,8.1,4.8C738.5,791.8,736.9,799.6,737.4,809.2z"/>
	<path class="st26" d="M826.3,832.7c0-5.6-0.1-11.3,0-16.9c0.1-2.1-1-4.9,1.9-5.8s5.1,1,6.7,3.1c1.3,1.7,2.3,3.9,2.8,6
		c2.2,10.8,2,21.6,0.2,32.4c-0.6,3.9-2.2,6.1-6.5,6c-4.8-0.1-5.2-3.2-5.1-6.9C826.4,844.7,826.3,838.7,826.3,832.7L826.3,832.7z"/>
	<path class="st27" d="M1309.1,828c1.8,26.2,3.4,52.4,5.4,78.6c0.5,6.4-2.8,8.4-7.8,10.2c-4.9,1.7-5.9-0.2-5.5-4.7
		c2.2-28.1,4.3-56.1,6.5-84.2C1308.1,828,1308.6,828,1309.1,828L1309.1,828z"/>
	<path class="st28" d="M629.4,772.2c5.3,21,3.2,41.9,5.9,62.5c0.6,4.5,1,9,1.1,13.6c0.1,3,3.9,8.5-3.3,7.9c-4.4-0.4-10-0.6-9.3-8.2
		c1.9-22.2,3.4-44.5,5-66.7C629,778.3,629.2,775.3,629.4,772.2z"/>
	<path class="st29" d="M929.8,858.7c4.3,19,3,38.2,5,57.1c0.4,3.7,0.7,7.5,0.4,11.3c-0.2,2.9,4,8.3-3.4,8c-4.9-0.2-9.4-0.3-8.8-8.1
		C924.8,904.2,925.4,881.3,929.8,858.7z"/>
	<path class="st30" d="M366.8,733.1c1.7,23.7,3.3,47.4,5,71.1c0.2,3.5,0.9,7.4-4.6,6.6c-3.6-0.5-9.1,1.3-8.5-5.7
		c1.9-23.9,3.7-47.9,5.5-71.8C365.1,733.3,365.9,733.2,366.8,733.1L366.8,733.1z"/>
	<path class="st31" d="M1150.4,934.9l-20.4,1.2l-3.2,1.9c0,8.2,0.1,16.4,0,24.6c-0.3,24.9-0.3,24.9,24.2,21.8
		C1150.8,967.8,1150.6,951.4,1150.4,934.9z"/>
	<path class="st13" d="M1150.6,848.4c-0.1,14.4-0.1,28.8-0.2,43.2c-23.8,1.8-23.8,1.8-23.7-22.2c0-2.2,0.3-20.3,0.3-20.3h12.2
		C1139.3,849,1146.8,848.6,1150.6,848.4L1150.6,848.4z"/>
</g>
</svg>
