<?xml version="1.0" encoding="utf-8"?>
<!-- Generator: Adobe Illustrator 23.0.3, SVG Export Plug-In . SVG Version: 6.00 Build 0)  -->
<svg version="1.1" id="Capa_1" xmlns="http://www.w3.org/2000/svg" xmlns:xlink="http://www.w3.org/1999/xlink" x="0px" y="0px"
	 viewBox="0 0 730 730" style="enable-background:new 0 0 730 730;" xml:space="preserve">
<style type="text/css">
	.st0{fill:#020101;}
	.st1{fill:#060202;}
	.st2{fill:#050202;}
	.st3{fill:#EFEBEC;}
	.st4{fill:#E61B24;}
	.st5{fill:#EEA6A9;}
	.st6{fill:#FFFFFF;}
	.st7{fill:#ECA6A9;}
	.st8{fill:#E9A6A9;}
	.st9{fill:#EB801F;}
	.st10{fill:#EB8020;}
	.st11{fill:#EB7F20;}
	.st12{fill:#E27C23;}
	.st13{fill:#DC7C29;}
	.st14{fill:#E27C22;}
	.st15{fill:#EB7F1F;}
	.st16{fill:#EC7F1F;}
	.st17{fill:#EC801F;}
	.st18{fill:#F6F4F5;}
	.st19{fill:#F7F4F4;}
	.st20{fill:#060101;}
	.st21{fill:#080303;}
	.st22{fill:#080404;}
	.st23{fill:#040202;}
	.st24{fill:#060203;}
	.st25{fill:#090303;}
	.st26{fill:#080606;}
	.st27{fill:#070404;}
	.st28{fill:#050404;}
	.st29{fill:#090606;}
	.st30{fill:#060304;}
	.st31{fill:#050303;}
	.st32{fill:#070304;}
	.st33{fill:#070203;}
	.st34{fill:#CE2D30;}
	.st35{fill:#D22C31;}
	.st36{fill:#0C0505;}
	.st37{fill:#090505;}
	.st38{fill:#BF2F34;}
	.st39{fill:#0E0A0A;}
	.st40{fill:#D13337;}
	.st41{fill:#A62129;}
	.st42{fill:#9C2429;}
	.st43{fill:#040101;}
	.st44{fill:#1B0902;}
	.st45{fill:#1B0700;}
	.st46{fill:#120501;}
	.st47{fill:#140501;}
	.st48{fill:#0B0A0B;}
	.st49{fill:#141313;}
	.st50{fill:#121011;}
	.st51{fill:#0F0D0E;}
	.st52{fill:#0B0A0A;}
	.st53{fill:#090808;}
	.st54{fill:#111010;}
	.st55{fill:#E01D25;}
	.st56{fill:#DE232A;}
</style>
<g>
	<path class="st0" d="M668.2,476.5c1.7-2.6,3.1-5.4,4.9-7.9c0.5-0.8,1-1.5,1.4-2.3c2.4-3.3,4.2-7.1,6.6-10.4
		c0.4-0.5,0.8-1.1,1.2-1.7c2.4-3.5,4.5-7.1,6.8-10.7c0.8-1.3,1.7-2.6,2.5-3.9c1.2-1.9,2.6-3.8,3.8-5.7c2.4-4.6,6-9.1,0.3-13.8
		c-1.6-1.3-3.4-2.1-5.4-2.4c-12.4-0.3-24.8,0-37.2-0.1l-25.9,1.3c-0.3,0.1-0.6,0.1-0.8,0.2c-1.7-1.3-0.8-3-0.8-4.5
		c-0.1-5.7,0-11.4,0-17.1l-8.3,3.7c-7.7,6.4-15.7,12.4-23.9,18.1c-2.6,1.8-5.2,3.9-8.3,4.7c-0.4-0.6-0.5-0.9-0.5-1.3
		c0-1,0.2-2,0.4-3c3.5-21.7,2.2-43.1-3.4-64.4c-2.5-9.5-2.3-9.3,7-12.9c5.3-2.1,11.3-3.4,14.8-8.6c2.5-3.3,7.5-3.2,9.7-6.6
		c9.1-14.4,17.6-29.1,14.6-47.3c-0.7-1.3-1.4-2.6-2.1-3.9c-4.4-7.8-14.1-11.5-21.1-7c-3.9,2.5-7.5,2.3-11.4,2.3
		c-5-0.1-10-0.4-15-0.1c-5.8,0.3-11.2-1.4-16.1-3.6c-14.6-6.5-28.6-14.3-44.4-17.6c-5.3-1.5-10.8,0.4-16.1-1
		c-0.6-0.2-1.3-0.4-1.8-0.7c-33.3-21.7-69.9-34.2-109.2-38c-55.7-5.5-108.8,4-157,33.3c-52.9,32.1-87.4,77.3-93.2,140.9
		c-0.3,3-1.8,3.3-4.2,3.5C124,389,111.9,390,99.9,392c-7.3,1.2-7.4,1.2-7.3,8.4c0,3.2-0.8,4.3-4.2,4.2c-12.8-0.3-25.7-0.3-38.5-0.1
		c-4.9,0-10.5-0.8-13.3,4.6c-2.7,5.2,1.3,9.2,3.8,13.1c8.8,14,17.6,27.8,26.6,41.6c2.8,4.3,2.8,8-0.1,12.3
		c-9.7,14.7-19.2,29.6-28.7,44.4c-2,3.1-4.1,6.1-5.7,9.4c-2.9,5.9-0.7,10.7,5.8,12c3.1,0.6,6.3,0.5,9.5,0.6
		c13.2,0.4,26.3,0.8,39.5,1.1c2.3,0.1,4.4,0.1,3.9,3.4c-0.4,2.5,0.9,2.8,2.9,2c1.4-0.6,2.9-0.9,4.2-1.5c26.2-11,53.3-13.1,81.3-8.6
		c27.8,4.5,54.9,11.7,82.1,18.9c35.3,9.3,70.6,19,106,28.3c13.7,3.6,27.5,6.6,41.2,9.9c11.3,0,22.6-0.1,33.9-0.1
		c-0.8-2.6-3.1-2-5-2.3c-9.2-1.5-18.5-2.8-27.6-4.7c-35.6-7.3-70.6-17.2-105.6-26.6c-33-8.8-65.8-18.4-99.2-25.7
		c-15.5-3.4-31.1-5.8-46.9-6.9c-17.1-1.2-33.9,1.2-50.1,7c-11.1,4-10,4-10.2-7c-0.3-15.5,0.8-31,1-46.4c0.2-25.7,0-51.3,0.1-77
		c0-6.7,0.7-7.6,7.1-8.5c16.8-2.3,33.8-3.7,50.7-4.2c21.1-0.6,41.9,1.8,62.5,6.3c41.7,9.1,82.7,20.9,123.8,32.2
		c32.5,8.9,65,17.5,98.6,21.2c12.3,1.3,24.6,2,36.9,1.9c14.8-0.1,29.6-0.6,44.3-2.6c15.7-2.2,31.3-4.5,46.1-10.6
		c15.8-6.4,29.8-15.5,43.2-25.9c1.5-1.2,3.1-3.7,4.9-2.9c2.1,1,1,3.9,1,5.9c-0.4,20.3,0.1,40.6-0.7,60.9c-1.1,25.9,0,51.9-1.1,77.9
		c-0.2,5.2-1.8,8-6.5,10.5c-25.3,13.3-52.5,20.1-80.3,25.1c-1.8,0.3-4.2-0.3-4.9,2.4c11.2-0.1,22.5,1.2,33.7-0.9
		c3.8,0,7.5-0.7,11.2-1.8c13-3.7,25.9-7.8,37.7-14.3c8.5-4.7,16.8-6.2,26.5-5.7c15.1,0.9,30.2,1.9,45.2,2.6
		c5.1,0.2,9.4-0.5,13.7-2.9c3.9-5.4,0.1-9.8-1.8-14.4c-0.2-0.4-0.4-0.9-0.7-1.3c-7.2-12.5-13.5-25.5-20.6-38.1c-1.1-2-2.1-4-3.1-6.1
		c-1.6-3.1-3.2-6.3-4.7-9.5c-0.2-0.4-0.4-0.8-0.6-1.2c-0.8-1.3-1.3-2.7-1.6-4.2c-0.1-0.4-0.2-0.8-0.4-1.3c-1.3-5.9,2.9-9.7,5.2-14.3
		C665.6,480.8,666.7,478.5,668.2,476.5z"/>
	<path class="st1" d="M134.3,253.4c-1,2,0.5,2.9,2,3.8c4.6,3.1,9.2,6.2,9.4,12.6c0,1,0.9,1.2,1.6,1.6c5.6,3.5,7,7.3,4.6,13.4
		c-2.1,5.3-5.1,10.1-9.3,14c-5.7,5.2-11.7,3.9-14.3-3.4c-0.6-1.8-1.7-2.8-3.1-3.7c-4.7-3.1-9.4-6.2-14.2-9.2
		c-1.4-0.9-2.8-1.4-4.6-1.3c-6.7,0.5-10.6-4.4-8.6-10.8c0.7-2.3,2.1-4.5,3.5-6.5c3.8-5.5,7.3-11.1,10.4-17c2.9-5.5,6.5-7.1,12.3-5.5
		C131,243.4,134.5,247.4,134.3,253.4z"/>
	<path class="st1" d="M248.8,171c-0.4,5.1,2.3,9.2,1,13.6c-0.3,1,0.4,1.4,1.3,1.6c7,1.4,9,6.8,10,12.8c2.3,14-15.9,28.8-29.1,23.9
		c-2.6-1-5-2.5-5.9-5c-1.5-4.4-4.2-8.3-5-12.7c-0.8-4.2-2.2-7.6-4.1-11.3c-5.5-10.6,1.8-23.5,14.5-26.6c1.6-0.4,3.2-0.3,4.2-2.1
		c1.6-3,4-5.2,7.6-4.1c3.7,1.1,4.6,4.5,5.3,7.8C248.9,169.8,248.8,170.8,248.8,171z"/>
	<path class="st1" d="M403.3,189.2c-3.4,0-6.6-0.8-9.7-2c-7.7-3-9.4-10.8-3.6-16.8c1.9-1.9,3.6-3.4,1-6.1c-1-1.1-1.1-2.9-0.8-4.3
		c1.8-7,3.1-14.3,6.5-20.6c4.1-7.7,13.1-10.2,20.6-6.7c7.4,3.5,10.1,12.1,5.7,19.4c-1.5,2.5-2.3,4.9-2.8,7.7
		c-0.7,3.9-1.6,7.9-5.8,9.9c-1.5,0.7-1.6,1.4-0.7,3C418.5,181.1,413.1,189.3,403.3,189.2z"/>
	<path class="st1" d="M189.4,177.3c2.7,0.2,5.1,1.3,6.2,3.6c3.4,7,9,12.4,12.5,19.3c1.8,3.6,3.8,7,8,9c3.6,1.8,4.3,7.4,2,11.7
		c-3.3,6.2-8.9,9.9-15.6,11.3c-5,1-8.7-2.3-9-7.5c-0.4-5.6-2.5-10.1-8-12.5c-0.9-0.4-2-1.1-2.3-1.8c-1.4-5.1-5-9-7.4-13.5
		C171.7,189.4,180.9,177,189.4,177.3z"/>
	<path class="st1" d="M366.6,185.1c-1.9,0.1-4.2-0.2-6.4-0.9c-6.8-2.3-9.3-8.6-5.4-14.7c2.9-4.5,3.5-8.8,1.1-13.9
		c-1.8-3.8-0.8-8,2.5-10.9c1.7-1.5,2.2-3,2.1-5.1c-0.2-4.3,1.9-7.3,5.9-8.8c3.2-1.3,6.5-2.4,9.8-3.7c3.8-1.4,6.2,0.1,7.5,3.6
		c1.3,3.4,1.4,6.9-0.3,10.2c-4.8,9.8-5.4,20.1-3.2,30.5C381.8,179,376.3,185.2,366.6,185.1z"/>
	<path class="st1" d="M440.5,137c8.6,0.1,12.2,5.3,10.1,13.4c-2.3,9.1-3.9,18.4-5.8,27.6c-0.3,1.2,0.4,2.2,0.6,3.3
		c1.9,7.7-3.1,14-11.1,14c-2.7,0-5.3-0.6-7.8-1.5c-8.1-2.8-10.2-10.4-4.8-17c3-3.7,4.3-7.7,2.5-12.3c-0.4-0.9-0.8-2.1-0.5-2.9
		c2.7-6,2.5-12.7,5.2-18.6C430.9,138.5,435.4,136.6,440.5,137z"/>
	<path class="st1" d="M338.1,169.6c6.1,8-0.6,17.4-8.5,17.7c-3.1,0.1-6.2,1-9.4,0.4c-7.4-1.5-10.7-7.2-7.5-14
		c2.2-4.7,2.5-8.9-0.6-13.5c-2.5-3.7-1.3-7.7,1.4-11.1c2.1-2.7,5-4.3,8.1-5.6c5.5-2.4,11.4-1.9,17.1-2.2c4.7-0.3,7.4,3.4,8.7,7.6
		C350,157.4,346.5,165,338.1,169.6z"/>
	<path class="st1" d="M174.9,233.8c8.7,0.3,12.3,5.7,9.1,12.9c-2.7,6.1-7.4,10.7-13.5,13.5c-5.1,2.4-9.7,0.2-11.2-5.3
		c-1.5-5.3-4.3-9-10-10.3c-4.3-1-5.5-4.5-5.4-8.5c0.1-3.9,1.7-7.4,3.7-10.7c2.9-4.9,7.4-8.5,11.4-12.4c3.4-3.4,8.8-3,12.9-0.2
		c4.8,3.3,7.3,9.5,6,14.8C177.5,229.7,176.6,231.6,174.9,233.8z"/>
	<path class="st1" d="M471.8,160.8c6.6,0.3,12,2.6,15,8.5c3.2,6.3,1.8,12.3-2.4,17.7c-1.2,1.6-2.3,2.9-2.5,5.2
		c-0.5,6.7-4.9,11.6-11.4,13.5c-6.9,1.9-14.2-0.2-17.9-5.6c-5.7-8.3-4.7-17-0.4-25.5C456.2,166.4,462.6,161.3,471.8,160.8z"/>
	<path class="st2" d="M301.7,172.2c0.4,5.7-1.5,10.8-4.7,15.4c-8.6,12.2-24.1,11.5-31.5-1.4c-5.6-9.8-3.8-22.9,4.3-30.7
		c5.4-5.2,12-7.5,19.2-5.1c7.7,2.6,11,9.2,12.4,16.8C301.7,168.9,301.6,170.6,301.7,172.2z"/>
	<path class="st1" d="M508.3,182.3c8.5,2.2,14.4,7.1,15,16.2c0.7,11-4.3,19.6-13.3,25.6c-7.4,4.9-15,4.4-22.4-0.3
		c-7.2-7.7-7.5-16.5-3.5-25.5C488.7,188.1,496.7,182.3,508.3,182.3z"/>
	<path class="st3" d="M517.6,250.3c-5.4-0.4-10.8,0.5-16.1-1C506.8,249.7,512.3,248,517.6,250.3z"/>
	<path class="st4" d="M442.7,596.1c-12.1-2.2-24.3-3.8-36.3-6.3c-21-4.3-41.8-9.8-62.5-15.2c-43.9-11.5-87.5-24.4-131.7-34.7
		c-20.5-4.7-41.1-8.3-62.2-8.6c-16.3-0.3-31.7,3.5-46.8,8.9c-6.4,2.3-6.5,2.2-6.4-4.4c0.4-44,0.8-88,1.1-132c0-4.5,1.2-6.3,6-7
		c30.3-4.2,60.6-6.3,91.1-2.6c26.5,3.3,52.1,10.6,77.8,17.4c38.3,10.2,76.5,20.7,114.8,30.5c29.1,7.5,58.8,11.6,88.8,11.5
		c26.1-0.1,52.2-1.7,77.7-8.2c21.6-5.6,40-17,57.3-30.5c2.4-1.9,5.3-6.1,7.4-5c2.6,1.4,1,6,1,9.2c-0.4,39.1-0.9,78.3-1.5,117.4
		c-0.1,8.2-0.5,16.3-0.4,24.5c0,3.4-1.1,5.3-4.2,7c-24.5,13.4-51.1,20.8-78.3,25.9c-3.6,0.7-7.2,1.3-10.7,1.9
		C499,601.5,471.6,601.3,442.7,596.1z"/>
	<path class="st5" d="M614.5,300.6c-2.3,10.1-8.3,17.2-16.4,22.8c-17.3,11.9-36.3,14-56.3,9.4c-4-0.9-7.9-2-12.4-3.1
		c4.6,8.7,12.2,12,20.6,14.3c2.6,0.7,6.7-0.3,7.2,2.5c0.3,1.8-4,2.8-6.3,4c-21.7,11.5-39.5,27.8-54.8,46.7
		c-9.1,11.2-11.1,25.4-13.4,39.2c-0.3,1.6-0.5,3.3-0.6,5c-0.1,2.3,0.7,5.9-0.3,6.5c-1.9,1.1-4.8,0.6-7.3,0.5
		c-33.7-0.2-66.6-5.8-99.1-14.5c-49.6-13.4-99.1-27.2-149.1-39.5c-10.6-2.6-10.7-2.5-11.6-13.2c-1-11.6,0.4-22.9,4.7-33.8
		c2.6-6.7,2.3-6.8-4.6-8c-0.7-0.1-1.4-0.1-2-0.3c-2.7-1-6.8-0.9-6.8-4.7c0-3.1,3.9-2.4,6-3.1c7.6-2.5,15-5.7,21.7-10.1
		c18.9-12.2,39.5-14,61-11.3c19,2.4,37.8,6,57,6.5c14.8,0.4,29.2-1.5,43.3-5.9c3-0.9,5-0.8,7.6,1.4c5.4,4.7,11.2,9,18.4,10.6
		c2.2,0.5,4.8,1.3,5.9-1c1.2-2.6-1.6-3.7-3.4-4.6c-10.8-5.8-19.5-13.8-26.3-24c-4.1-6.2-6.7-13-7.7-20.4c-0.5-3.5,0.4-5.4,4.6-4.3
		c16.4,4.2,33.1,5.8,50,5.1c14.6-0.6,28.8,0.3,41,11.2c0-6.7-3.5-10.1-7.6-13.6c14.9-8.7,30-11.8,46.4-6.4c8.9,3,17.4,6.6,25.7,10.8
		c13.1,6.6,26.7,10.2,41.4,8.7c3.7-0.4,4.4,1,3.1,4.1c-1,2.5-2,5-3.3,8.4c5.5-2.6,8.4-6.6,11.2-10.5c2.5-3.5,4.6-8.2,10-6.1
		c5.5,2.1,4.3,7.2,4,11.6c0,0.1-0.2,0.3-0.5,0.8c-4.4-3.8-8.9-3.2-13.2,0.2c-2.3,1.8-3.3,4.1-3.1,7c0.4,4,2.5,5.2,6.1,3.3
		C608.3,301.6,610.8,299.9,614.5,300.6z"/>
	<path class="st4" d="M160.5,387.3c-3.7,0-7.3-0.2-11,0.1c-3.3,0.2-3.9-1.3-3.6-4.2c4.4-44.4,24.5-80.7,57.3-110.3
		c37.4-33.7,81.9-51.5,131.6-56.8c54.8-5.8,106.4,4.3,154.1,32.3c1.4,0.8,4.1,1.1,3.3,3.6c-0.7,2.4-3.2,2-5.1,2
		c-5-0.1-9.4-1.9-13.7-4.2c-6.5-3.4-13-6.7-19.7-9.8c-4.4-2.1-6.5-0.7-7.1,4.2c-0.3,2.5-0.3,5-0.3,7.5c0.1,3.7-1.4,4.7-4.8,3.3
		c-12.1-4.9-24.6-8.3-37.4-10.7c-23.2-4.4-46.6-5.1-70-2.1c-32.4,4.1-62.3,14.8-89.5,33c-8.7,5.8-17.1,12.3-24.3,19.9
		c-3.3,3.6-6.9,4-11.2,3.7c-2.7-0.2-4-1.2-3.2-4.1c0.5-1.7,1.7-3.8-0.1-5.1c-2-1.5-4.5-1-6.7,0.1c-7.9,4-11.5,10.9-12.5,19.2
		c-0.8,6.6-0.1,13,5,18.1c1.6,1.6,1.3,3.2,0.3,4.9c-8.7,15.8-14.2,32.6-15.8,50.6c-0.3,3.4-1.6,5-5.3,4.6
		C167.5,387,164,387.3,160.5,387.3z"/>
	<path class="st6" d="M446,264.1c-15.3-3.8-30.6-2.6-45.3-6.3c-3.7-0.9-7.6-0.9-11.4-0.5c-6.9,0.8-11.3,5.7-11.8,12.6
		c-0.6,8.8,3.2,16.1,7.6,23.3c1.1,1.8,2.4,3.5,3.8,5.6c-5.2,2.2-10.4,2.7-15.5,3.5c-21.4,3.2-42.5,0.4-63.5-3.5
		c-10.5-1.9-21.1-2.6-31.8-2.7c-15,0-28.9,3.7-42.1,10.7c-2.4,1.3-4.1,1.9-5.4-1.2c-0.3-0.7-1.1-1.2-1.8-1.7
		c-5.5-4.3-5.5-4.3-0.1-9.1c28.4-25.3,61.7-40.1,99.1-46c39.5-6.2,78-2.4,115.2,12.6C443.9,261.8,445.3,261.7,446,264.1z"/>
	<path class="st4" d="M689,431.5c1.1-1.8,3.1-3.8,1.9-5.8c-1.2-2-3.9-1.4-6.1-1.3c-18.3,0.9-36.6,0.7-55,0.7c-3.6,0-4.5,1.3-4.5,4.7
		c0.1,21.8,0.1,43.6,0.1,65.5l-2,66c0,3.8,0.9,5.2,4.9,5.3c10.3,0.2,20.6,1,30.9,1.6c8,0.4,16,0.8,23.9,1.3c4.6,0.3,4.8-1.5,2.9-4.9
		c-0.4-0.7-0.8-1.5-1.2-2.2c-10.1-18.2-19.6-36.7-29.2-55.2c-4.4-8.5-5-15.9,0.5-24.2C667.5,466,678.1,448.7,689,431.5z"/>
	<path class="st4" d="M92.5,415.3c0-4.2-1.2-5.4-5.3-5.3c-13.2,0.2-26.3,0-39.5,0c-7,0-7.7,1.2-4,7c9.2,14.6,18.5,29.3,28,43.8
		c4,6.1,4,11.8-0.1,18c-11.1,16.8-21.9,33.8-32.7,50.8c-3.4,5.3-2.4,7.1,3.8,7.3c14.3,0.5,28.6,0.7,43,1.3c4.4,0.2,5.8-1,5.7-5.5
		l1-59C92.4,454.3,92.3,434.8,92.5,415.3z"/>
	<path class="st6" d="M542.9,397c0.1,13.8-1.9,26-6,37.9c-0.9,2.7-2,4.6-5.2,5.1c-11.3,1.9-22.7,3.5-34.2,3.7
		c-5.8,0.1-6.4-0.5-5.7-6.7c1.8-17.1,7.5-32.6,19.1-45.7c7.2-8.2,14.8-15.7,24.1-21.4c3.7-2.3,5-1,5.6,2.5
		C541.9,381,543,389.5,542.9,397z"/>
	<path class="st4" d="M579.8,398.3c0.1,8.7-1.3,19.5-3.4,30.3c-0.4,1.9-1.1,3.4-3,4.2c-9.1,4.2-18.6,7.3-28.3,9.3
		c-4.4,0.9-2.6-2.1-2.1-3.8c5.3-15.6,7.3-31.7,6.6-48.1c-0.4-9.2-1.5-18.2-4.1-27c-1-3.3-0.3-5.2,3-6.4c4.7-1.7,9.2-3.8,13.9-5.6
		c1.9-0.7,3.7-1.4,5-3.1c2.8-3.9,4.1-2,5.1,1.3C577.4,364.5,579.8,380,579.8,398.3z"/>
	<path class="st6" d="M204,390c-6.5-0.7-13.4-1.4-20.4-2.1c-2.2-0.2-2.2-1.6-2.1-3.2c1.5-16,5.8-31.2,13.3-46
		c2.8,4.2,5.5,7.6,9.9,9.4c3,1.3,2.2,3.7,1.6,5.9C203.1,365.9,205,377.9,204,390z"/>
	<path class="st7" d="M486.7,259.8c-10.7,5.7-20.1,9.3-30.9,6.3c-1.6-0.4-1.9-1.6-2.3-2.9c-1.7-5.1-1.8-10.4-1.9-15.7
		c0-2.8,1.3-2.5,3.1-1.3C464.2,252.3,473.8,258,486.7,259.8z"/>
	<path class="st8" d="M200.4,298.4c-3.8,6.1-5,11.4-2.7,17.1c2.3,5.6,8.9,7.9,14.2,4.9c2.4-1.4,3.7-3.3,3.5-6.1
		c-0.1-2.1-1-4-3.1-4.7c-2.6-0.8-4.9-0.2-6.6,2.2c-0.8,1.1-1.6,2.5-3.1,1.7c-1.6-0.9-1-2.7-0.7-4.1c1-3.8,4.3-4.7,7.6-5.6
		c3.4-0.9,6.4,0.2,8.5,2.7c3.2,3.8,3.9,8.4,2,13.1c-2,4.9-9.1,8.1-15.7,7.6c-5.7-0.5-10.9-5.5-12.7-12.5c-1.5-5.6,0.7-12.3,5-15.1
		C197.2,299.1,198.1,299,200.4,298.4z"/>
	<path class="st9" d="M147.8,282c-1.8,5-4.4,9.8-9.1,13.1c-2.4,1.7-5.1,0.5-5.5-2c-0.6-4.2-3.6-5.8-6.5-7.7
		c-4.7-3.2-9.5-6.2-14.3-9.2c-1.6-1-3.3-2.3-5.5-1.2c-1.5,0.7-3,0.4-3.9-1.1c-0.9-1.4-0.7-3,0.2-4.3c4.6-6.9,9.1-13.9,13.2-21.2
		c1.5-2.8,4.6-1.7,6.8-0.8c2.6,0.9,5.6,1.9,6.3,5.1c0.3,1.6-1,2.3-2.5,2.5c-1.6,0.3-3.4,0.3-4.9,0.9c-2.9,1.2-5.5,3.4-5.2,6.6
		c0.3,3,3.7,3.9,6,5.4c0.8,0.5,1.6,0.3,2.2-0.5c0.9-1.2,1-2.4,0.1-3.7c-1-1.3-2.8-2.5-1.1-4.2c1.5-1.5,3.5-0.7,5.1,0.1
		c3.6,1.8,6.9,3.9,9.8,6.8c1.1,1.1,2.1,2.4,1.4,4c-0.9,1.9-2.5,1.1-3.9,0.6c-1.7-0.6-3.6-1.9-4.8,0.5c-1.2,2.5,1.5,3,2.8,3.8
		c2.7,1.8,5.2,3.6,9.1,1.8C146.3,276.2,147.8,278.7,147.8,282z"/>
	<path class="st10" d="M243.7,173.8c-0.3,1.5,0,2.9,0.4,4.4c2.3,7.1,0,12.1-6.8,15.5c-1.4,0.7-4.6,0.7-3.6,3.1
		c1.2,2.7,3.7,0.8,5.6-0.1c2.2-1.1,4.3-2.6,6.5-3.6c4.1-1.9,7.1-0.3,9.1,3.4c2.5,4.8,1.6,9.5-1.5,13.6c-3.6,4.7-8.6,7.3-14.5,7.9
		c-5.9,0.6-7.7-3-9.3-8.6c-1.3-4.5-5.4-8.3-3-13.7c0,0-0.5-0.3-0.8-0.5c-4.8-2.8-6.4-7.1-5.2-12.3c1.3-5.5,5.4-8.3,10.6-9.5
		c3.5-0.8,6.7-1.5,8.4-5.2c1-2.1,2.4-1.3,3.3,0.3C243.9,170.1,243.7,171.9,243.7,173.8z"/>
	<path class="st11" d="M402.3,183.1c-1.1-0.2-3.2-0.5-5.3-1.2c-6-1.9-6.6-4.2-2.2-8.6c3.1-3.1,3.4-8.6,0.8-12.8
		c-1.2-2-0.3-4.6,1.1-5.4c2.7-1.6,2-3.6,2-5.8c-0.3-9.1,8.5-14.8,16.5-10.8c2.7,1.4,4.5,3.6,4.9,6.5c0.4,2.7-0.4,5.5-3.3,6.6
		c-3.1,1.3-4.5-0.9-5.6-3.3c-0.7-1.4-1-3.8-3.2-2.8c-2.1,1-1.6,3.3-0.5,4.8c1.9,2.5,2.6,6.3,6.5,7c1.5,0.3,1.6,1.6,1.2,2.7
		c-0.5,1.5-0.1,3.6-2.2,4.1c-1.7,0.4-4-0.4-4.3,2.3c-0.4,3.1-2.1,6.2-0.2,9.2c1,1.7,2.9,3,1.5,5.2
		C408.5,183.3,405.9,183.2,402.3,183.1z"/>
	<path class="st10" d="M203,226.3c-3.5,0-4.4-1.3-4.7-4c-0.6-6.7-3.2-12.3-9.8-15.2c-2-0.9-2.6-2.4-2-4.5c0.1-0.5,0.4-0.9,0.6-1.3
		c2.1-3.4,4.3-7.9,8-8.4c3.6-0.5,4.1,4.9,6.2,7.5c3.9,4.7,5,11.6,11.7,14.3c1.7,0.7,1.6,2.9,0.6,4.4
		C211,223.1,206.9,225.1,203,226.3z"/>
	<path class="st12" d="M192.3,187.5c0,4-4.7,9.1-8.3,9c-2.8-0.1-4.2-1.8-4.3-4.5c-0.1-3.6,4.8-8.6,8.3-8.7
		C191.1,183.2,192,185.3,192.3,187.5z"/>
	<path class="st11" d="M367.4,179.2c-2.1,0.2-4.4-0.2-6.5-1.3c-2.8-1.4-3.6-3.2-1.7-6.4c3.4-5.6,4.7-11.8,1.8-18.2
		c-0.8-1.7-1.2-3.4,0.3-4.5c3.7-2.8,8.1-3.8,12.7-3.4c2.2,0.2,1.5,2.3,1.4,3.6c-0.5,5.1-1.2,10.2-1.7,15.3c-0.3,3.1-0.6,6,1.1,9.2
		C376.8,176.9,373.7,179.2,367.4,179.2z"/>
	<path class="st13" d="M368.4,141.3c-1.3,0-2.6,0.1-2.9-1.4c-0.4-1.7,0.2-3,1.8-3.6c2.7-1.1,5.5-2.1,8.3-3.2
		c1.7-0.7,3.3-0.9,3.9,1.4c0.5,2,0.7,4.1-2,4.8C374.3,140,371.2,140.7,368.4,141.3z"/>
	<path class="st9" d="M440.4,155.8c3.5-0.6,4.7,1.1,3.5,5.4c-1.5,5.3-2.4,10.7-3.7,16c-0.5,2.1-0.9,4.2,0.2,6.3
		c0.1,0.1,0.1,0.3,0.2,0.5c0.7,2.3-0.1,3.9-2.2,4.9c-3.3,1.6-11.9-0.6-13.8-3.4c-1.5-2.1-0.3-3.4,1-5.2c3.9-5.3,5.9-11.3,3.7-17.9
		c-0.9-2.7,0.2-4.1,2.5-5.1C434.1,156.1,436.8,156,440.4,155.8z"/>
	<path class="st14" d="M438.4,153.1c-2.5-0.7-6.3-0.4-6.5-4.8c-0.2-3,3.5-6,7.5-5.7c3.1,0.2,6.6,0.4,7,4.7
		C446.5,150.3,442.7,153.1,438.4,153.1z"/>
	<path class="st15" d="M330.5,152.1c3.8-5.2,7.1-6.2,10.1-3.5c3,2.6,3.2,9.8,0.4,12.8c-2.7,2.9-5.3,2.4-9.1-1.6
		c-2.2,4.6-1.4,10.9,1.7,14.4c2.5,2.8,2.1,5.5-1.3,6.5c-4,1.2-8.1,1.9-12.3,0.7c-3.6-1.1-4.2-3.1-2.6-6.4c2.9-6.1,3.4-12.2-0.7-18.1
		c-0.4-0.6-0.9-1.7-0.6-2.3c1.6-4.4,5.7-5.2,9.5-6.4C328.2,147.4,330.7,147.8,330.5,152.1z"/>
	<path class="st16" d="M159,225.3c-0.5-5.4,1.6-8.5,5.4-8.7c4-0.2,8.8,4.3,9,8.6c0.1,4.1-2.4,5.8-9.5,5.7c4.6,3.9,6.3,9.6,13.2,9.3
		c3.4-0.1,3.8,2.8,2.3,5.4c-2.1,3.7-5.1,6.6-8.8,8.6c-3.5,1.9-5.5,0.7-6.6-3c-1.9-6.2-5.4-11.1-12.3-12.4c-1.1-0.2-2-0.8-2.2-1.8
		c-1-4.2,1.6-7.3,3.5-10.5C154.3,224,156.4,223.4,159,225.3z"/>
	<path class="st17" d="M466.1,200.2c-8.8-0.1-13.7-7.3-11.8-17.4c2.3-12.8,14.5-19.9,24.1-14.1c5.4,3.2,6.8,9.6,3.1,14.1
		c-1.5,1.8-3.2,3-5.6,2.3c-2.3-0.6-2.7-2.6-2.9-4.7c-0.2-1.6,0.9-4.1-2-4.3c-2.4-0.1-3.2,2.1-3.9,4c-2,5.7,0.5,9.4,6.4,9.9
		c3.8,0.3,4.8,2.3,2.7,5.5C473.8,199.2,470.2,200.2,466.1,200.2z"/>
	<path class="st10" d="M296.9,173.1c0.2,3.4-0.8,6.6-2.4,9.5c-5.1,9.3-16.4,10.3-23.1,2.1c-5.5-6.8-5.3-18.1,0.6-24.3
		c3.9-4.1,8.8-6,14.4-4.4c6.4,1.9,8.8,7.1,10.1,13C296.9,170.4,296.8,171.8,296.9,173.1z"/>
	<path class="st10" d="M518.5,202c-0.1,10.1-9.4,19.6-18.9,19.5c-7.6-0.1-13-5.7-12.9-13.5c0.2-10.2,8.8-19.5,18.3-19.6
		C512.8,188.4,518.6,194.2,518.5,202z"/>
	<path class="st18" d="M220.3,514.1c-1.8-0.2-3.6-0.5-5.3-0.7c-7.1,1.6-9.9-0.1-10-6.7c-0.2-26.6,0-53.2-0.1-79.9
		c0-1.2,0.1-2.3,0.7-3.4c-0.4-5.2,1.5-7,6.8-5.4c3.6,1.1,7.4,1.6,11.2,1.8c4.1,0.2,5.4,2.2,5.1,6c-0.1,1.1,0.4,2.2,0.6,3.3
		c3.3,4.5,1.6,9.8,2.5,14.8c0.8,4.8,0.9,9.8,0.8,14.8c0,0.6,0,1.2,0,1.8c0-0.9,0-1.8,0-2.7c-0.2-8.3,0.8-16.5,1.5-24.7
		c0.1-1.5,0.5-2.9,1.5-4.1c0.1-0.5,0.4-1,0.4-1.4c-0.2-4.6,2-5.8,6.1-4.3c1.1,0.4,2.3,0.5,3.4,0.8c4.3,1.1,10.4,0.2,12.5,3.6
		c2.1,3.2,0.7,8.7,0.7,13.2c0.1,14,0.2,27.9,0.3,41.9c0.2,0.3,0.5,0.6,0.5,0.9c1,12.4,1.5,24.9-0.3,37.3c-2.1,2.5-4.7,1.5-7.2,0.9
		c-8.8-1.8-9.9-3.1-10-11.9c-0.1-15.5,0-31,0.9-42.4c-0.2,12.5-1.8,29-3,45.5c-0.1,1.8-0.5,3.7-2.7,4.4c-1.5-0.3-3.1-0.6-4.6-0.9
		c-4.8,0.3-6.2-0.5-6.9-5.5c-1.1-8.2-1.7-16.5-2.8-24.8c-1.2-9.3-1-18.8-1.9-26.7c1.1,3.3,0.4,8.1,0.6,12.9
		c0.4,11.8,0.9,23.6,1.3,35.3C223.1,510.2,223.5,513,220.3,514.1z"/>
	<path class="st18" d="M478.3,570.8c-2.2,0.2-4.3,0.3-6.5,0.5c-7.6,1.3-9.9,0-11.2-7.2c-1.9-9.9-4.5-19.8-5.3-29.9
		c-0.1-0.8-0.6-1.5-0.3-1.8c1.6,9.6,0.9,19.8,1,30c0,2.3,0.4,4.7-1.6,6.5c-2.1-0.1-4.3-0.2-6.4-0.3c-6.1,1.2-8.8-0.6-9.7-6.5
		c-0.4-2.3-0.4-4.6-0.4-6.9c0-23.2,0-46.4,0-69.6c0-2.8-0.6-5.7,1.5-8.1c-0.3-4.8,1.5-7.1,6.6-5.4c0.6,0.2,1.3,0.2,2,0.1
		c4.5-0.7,7.1,1,7.4,5.8c0,0.8,0.6,1.5,0.9,2.2c1,0.5,1.4,1.5,1.5,2.4c1.6,9.5,4.7,18.7,4.9,26.4c-1.2-7.6-0.5-17.2-0.5-26.8
		c0-1.3,0.2-2.7,1.3-3.7c0.4-2.7-0.6-5.9,4.5-5.7c10,0.4,10,0.1,10.6,5.6c1.8,1.7,1.7,3.9,1.7,6.1c0.1,26.6,0.1,53.3,0,79.9
		C480.2,566.7,480.5,569.2,478.3,570.8z"/>
	<path class="st18" d="M554.1,565.4c-0.9,0.3-1.8,0.5-2.6,0.8c-0.9,1-2.1,1.5-3.5,1.9c-5.2,1.3-7.7-0.4-7.9-5.7
		c-0.3-10,0-19.9-0.1-29.9c0-1.9,0.3-3.8-0.9-5.8c-1.4,2.1-0.9,4.1-0.9,6c-0.1,10.3,0.1,20.6-0.1,30.9c-0.1,2.3,1,5.7-3.3,5.9
		c-1.8,0.2-3.7,0.3-5.5,0.5c-6.7,4.3-11.1,2.3-11.2-5.4c-0.2-27.9-0.1-55.8,0-83.7c0-2,0.1-4,1.4-5.7c-0.4-4,1.6-5.5,5.4-5.8
		c8.6-0.7,16.9-3.6,25.7-2.1c6.1,3.4,7.5,9.7,8.2,15.6c0.9,7.2,0.9,14.6-0.9,21.8c-1,4.1-2.7,7.8-7,8.9c5.4,0.8,6.8,5.3,8.1,9.8
		c0.8,12.4,0.4,24.8,0.2,37.2C558.9,563.3,558.4,566.5,554.1,565.4z"/>
	<path class="st18" d="M307.6,446.6c0.9-7.1,0.9-7.2,7.9-5.2c4.5,1.3,8.9,2.7,13.3,4.1c6.5,2,11.7,5.5,14.6,11.8
		c2.8,2.8,3.4,6.4,3.5,10.1c0.1,5.2,0,10.3,0,15.5c0.1,4.9-0.9,9.3-6.1,12.1c6,5.3,6.2,12,6.2,19c0,6.6-0.8,13.3,0.7,19.9
		c0.1,4,1.7,8.1-1.5,11.6c-1.9-0.3-3.7-0.5-5.6-0.8c-8.5,0.6-11.5-2-11.6-10.1c-0.1-8.5,0-17,0-25.5c0-2.8-0.1-5.6-2.1-8.8
		c-1.3,3.9-0.9,7.1-0.4,10.3c1.1,8.1,0.6,16.3,0.5,24.4c0,1.7,0.3,3.8-2,4.6c-2-0.4-4-0.8-6-1.2c-8.9,0.6-11.9-2-11.9-10.8
		c0-7.6,0-15.3,0-22.9c-0.1-7.8-0.1-15.6-0.7-23.4C305.2,469.8,306.4,458.2,307.6,446.6z"/>
	<path class="st18" d="M387.5,557.2c-0.9-0.3-1.7-0.6-2.6-0.8c-8.2,1-10.8-1.2-10.9-9.2c-0.1-7.7,0-15.3,0-23
		c0-3.5-0.5-6.9-1.8-10.8c-1.5,2.1-1.1,3.9-1.1,5.6c-0.1,9.2,0.1,18.3-0.1,27.5c0,2.1,0.8,4.9-2.5,5.7c-1.5-0.8-3-1.3-4.7-1.1
		c-9.8,0.5-12.9-2.3-12.9-11.7c0.1-26.3-0.3-52.5,0.2-78.8c1.1-2.3,0.4-5,1.5-7.3c11.5,2.2,22.9,4.7,32.6,12
		c3.8,3.3,4.9,7.9,5.5,12.4c0.9,6,1.5,12.1,1.1,18.3c-0.3,4.7-1.3,8.9-6.5,11c3.8,3.5,5.5,7.7,6.5,12.3c0.5,10.9,0.3,21.8,0.1,32.7
		C392,554.5,392.8,558.9,387.5,557.2z"/>
	<path class="st18" d="M578.5,557.8c-2.3,0.9-4.5,1.8-6.8,2.6c-0.4,0.3-0.7,0.7-1.2,0.9c-3,1.8-6.4,4-9.7,1.9
		c-2.9-1.8-1.4-5.4-1.2-8.4c1.2-18.1,3-36.1,4.5-54.1c0.9-11.9,1.9-23.8,3.2-35.7c0.6-4.3,3.2-6.4,7.4-6.8
		c5.3-0.9,10.2-2.8,15.2-4.6c2.9-1,4.2-0.5,4.5,2.8c2.3,23.4,4.7,46.9,7,70.3c0.4,4,0.4,8,1.4,11.8c1.6,6.1-0.4,9.7-6.2,11.6
		c-0.5,0.4,0.2,0-0.3,0.4c-2.7,2.2-5.9,5.1-9.3,3.6c-3.3-1.5-2.5-5.7-3-9c-0.2-1.7,1.2-4.8-1.6-4.8c-2.5,0-2.3,3.1-2.6,5.2
		C579.5,549.7,581.2,554,578.5,557.8z"/>
	<path class="st18" d="M280.2,517.9c-0.1,1-0.4,2-0.3,2.9c0.8,4.9-0.8,7-5.9,5.4c-0.8,0.1-1.6,0.2-2.5,0.2c-9-0.8-11.2-3-10.3-11.9
		c2.4-24.2,4-48.5,6.8-72.7c0.2-1.8,0.1-3.7,1.6-5.1c1.5-7,1.5-7.1,8.7-5.2c5.7,1.5,11.4,3.3,17.1,4.9c1.3,3.4,1.5,7.1,1.6,10.6
		c0.1,9.5,3.2,18.5,3.7,28c0.2,3.8-0.2,7.7,1.1,11.3c1.5,13.7,2.7,27.5,4.2,41.2c0.2,1.5,0.2,3-0.1,4.5c-0.6,2.7-2.1,3.2-4.3,1.6
		c-1.2-0.4-2.4-1.5-3.8-0.7c-7.7,0.6-11.3-2.2-11.5-9.3c-0.1-2.6-0.3-5.3-0.9-7.8c-0.3-1.1-0.6-2.5-1.9-2.6
		c-1.7-0.1-1.3,1.5-1.6,2.5C281.4,516.5,281.3,517.6,280.2,517.9z"/>
	<path class="st18" d="M411.9,558.8c-0.3,5.3-4.4,1.4-6.3,2.6c-3.4,0.8-6.5-0.7-9.7-1.5c-2.8-0.8-3.1-3-3-5.5
		c0.2-10.1,1.7-20.2,2.5-30.3c1.5-17.2,3.2-34.4,4.9-51.6c0.2-1.3,1.1-2.4,1.3-3.7c0.3-2.6,1.9-3.3,4.1-2.9
		c6.6,1.1,13.2,2.3,19.8,3.3c0.8,0.1,1.5,0.7,1.9,1.5c1.2,16.2,2.6,32.5,5,48.6c2.8,3.9,2,8.6,2.4,12.9c0.7,9.3,2.4,18.4,2.9,27.7
		c0.2,3.1,1.1,6.5-3.3,7.6c-1.7,0-3.5-0.1-5.1-0.6c-1.7-0.1-3.3-0.4-4.9-0.7c-4-0.7-6.2-2.8-6.2-7.1c0-2.3-0.5-4.6-0.9-6.9
		c-0.3-1.6,0-4-2.1-4c-2.4,0.1-1.9,2.7-2.2,4.3C412.7,554.6,413.3,556.9,411.9,558.8z"/>
	<path class="st18" d="M153.2,419c-0.3-5,2.1-6.5,6.9-5.9c4.4,0.6,9,0.9,13.4,0.7c4.6-0.2,5.4,2,5.8,5.8c2.9,28.6,5.8,57.2,9,85.8
		c0.8,6.8-4.3,2.7-6.5,4c-6.7,2.7-12.4-0.4-12.6-7.5c-0.1-2.2,0-4.3-0.3-6.5c-0.2-1-0.5-2-1.7-2.1c-1.6-0.1-1.9,1.1-2,2.3
		c-0.3,2-0.1,4-0.2,6c-0.1,2.1,0.3,4.4-1.4,6.1c-2,0.3-4.1,0.6-6.1,0.8c-1.9,1.4-4.1,1.2-6.2,1.2c-6.1-0.1-6.7-1.4-6.5-7.5
		c0.6-13.8,2.1-27.4,3.1-41.1c0.9-12.2,2.7-24.4,3.2-36.6C151.2,422.4,151.9,420.6,153.2,419z"/>
	<path class="st18" d="M484.6,478.2c-0.6-4.7,1.8-5.8,6.1-5.9c6,0,12-0.4,17.9-1.2c4-0.5,5.5,0.7,5.1,4.6c2.1,5.3,2.3,10.5-0.3,15.7
		c-1.5,1.1-3.3,1.1-5,1.1c-3.8-0.5-6,0.9-5.5,5.1c0.1,1,0,2,0,3c0.1,2.5-0.7,5.2,0.7,7.3c1.6,2.4,4.3,0.5,6.5,1
		c1.2,0.3,2.3,0.5,3,1.5c1.5,6,1.2,11.9,0.2,17.9c-2.3,3.3-6,1.4-9,2.4c-0.4,0.3-0.7,0.6-1,1c-0.3,4.8-0.2,9.6-0.5,14.3
		c-0.2,3.2,1.2,4.6,4.5,4c2.1-0.4,4.3-0.6,6.4,0.4c1.5,0.9,1.9,2.3,2,3.8c0.4,4.6,0.4,9.3-0.1,13.9c-0.2,1.8-0.7,3.8-3.3,3.3
		c-1.5,0-2.9,0-4.4,0c-6.8,2.3-13.8,1.4-20.7,0.6c-3.1-0.3-3.4-3.4-3.4-5.9c0.1-8.8-0.9-17.6-1-26.4c-0.3-17.3-0.1-34.7-0.1-52
		C483,484.6,482.8,481.2,484.6,478.2z"/>
	<path class="st19" d="M139.2,509.4c-0.8,0-1.7,0.1-2.5,0.1c-5.5,2.8-11.6,2.9-17.5,3.1c-3.2,0.1-4.8-1.9-5.1-5
		c-0.1-1.7-0.2-3.3-0.2-5c0-24.5,0-49,0-73.5c0-2.8-0.3-5.7,1.3-8.3c-0.4-4.1,1.3-5.6,5.6-5.9c11.7-0.9,11.6-1.1,11.6,10.7
		c0,19,0,37.9,0.1,56.9c0,8.1,0.1,8.1,8.4,7.3c2.4-0.3,2.6,1.6,3,3.2c1.1,4.4,1.2,8.9,0.5,13.4C144,509.5,142.2,510.8,139.2,509.4z"
		/>
	<path class="st20" d="M115.3,420.9c0.1,27.5,0.2,55,0.3,82.4c0,8.9,0,8.9,8.7,7.5c4.1-0.6,8.2-1.6,12.4-1.3c0.9,4.6-1.1,5.9-5.7,6
		c-6.1,0.2-12.2,1.2-18.3,2.1c-3,0.5-3.9-0.4-3.9-3.3c0-29.8,0-59.6-0.2-89.4C108.5,419.3,112.8,421.8,115.3,420.9z"/>
	<path class="st0" d="M484.6,478.2c0.1,1.6,0.4,3.3,0.4,4.9c0.1,27.9,0.2,55.8,0.1,83.8c0,3.6,0.8,5,4.6,4.8
		c6.1-0.3,12.3-0.1,18.4-0.1c1.3,4.5-0.3,6.2-5.1,6c-5.8-0.2-11.5,0.3-17.3,0.3c-7.1,0.1-7.1,0-7.5-7.1c0-29.1-0.1-58.3-0.1-87.4
		c0-1.7,0.2-3.3,0.3-5C480.5,478.4,482.6,478.3,484.6,478.2z"/>
	<path class="st21" d="M205.6,423.5c0.8,1.7,0.5,3.6,0.5,5.4c0.1,25.4,0.3,50.8,0.1,76.2c0,5,0.9,7.9,6.4,7.7c0.8,0,1.6,0.4,2.4,0.6
		c-0.4,6.8-0.4,6.8-7.2,5.9c-8.1-1-8.2-1-8.2-9.4c-0.1-26.9-0.2-53.8-0.2-80.7C199.3,423.1,199.4,423.1,205.6,423.5z"/>
	<path class="st2" d="M512.4,529.3c0-6.4,0-12.7,0-19.1c-2.2-6.3-2.3-12.7,0.1-19c2.3-5,0.1-10.3,1.3-15.4c1.9-0.2,3.7-0.5,5.5-0.7
		c0.1,20.1,0.2,40.1,0.3,60.2c0,10,0.2,19.9-0.1,29.9c-0.1,4.6,0.9,6.5,5.7,5.1c1.2-0.4,2.6-0.2,4-0.3c2.3,2.9,2.5,5-2,5.5
		c-3,0.3-6,0.3-8.8,1.2c-4.9,1.5-6.3-0.5-5.8-5c2.8-2.5,2.9-17.9,0.1-20.5C509.9,543.9,510.3,536.6,512.4,529.3z"/>
	<path class="st22" d="M301.5,533.5c2.7,0.6,3.6-0.1,3.3-3.2c-1.6-14.7-3.6-29.3-4.2-44.1c0.5-9.3-1.7-18.6,0.4-27.9
		c0.6-2.5,0-5.2-0.3-7.9c-0.3-1.8-0.3-3.7,1-5.2c1.9,0.4,3.9,0.9,5.9,1.3c0.9,1.6,0.5,3.3,0.5,4.9c0.1,25.8,0.3,51.5,0.1,77.3
		c0,4.8,1.1,7.4,6.1,8c1.6,0.2,3.1,1.1,4.6,1.7c-0.3,7.8-0.3,7.8-8.1,5.6c-0.6-0.2-1.3-0.4-1.9-0.6
		C299.9,540.9,301.5,541.8,301.5,533.5z"/>
	<path class="st0" d="M352.6,460.1c0.1,15.8,0.2,31.6,0.3,47.3c0.1,11.8,0.3,23.6,0.1,35.4c-0.1,3.9,1,5.7,4.9,6.2
		c2.1,0.3,4,1.4,6,2.1c-0.6,7.3-0.6,7.3-7.8,5.5c-0.3-0.1-0.6-0.2-1-0.2c-8.4-2.2-8.4-2.2-8.8-10.9c0-4.3,0.1-8.7,0.1-13
		c-0.5-3.6,0-7.3-0.3-10.9c-1.4-19.7,0.8-39.4-0.3-59.1C345.5,458.2,347.3,457.7,352.6,460.1z"/>
	<path class="st23" d="M269.5,436.6c-1.1,13.2-2.2,26.4-3.4,39.6c-1.2,14-2.3,28.1-3.8,42.1c-0.4,3.6,0.5,5.2,4.1,5.6
		c2.6,0.3,5.2,0.8,7.5,2.3c-0.8,7.2-0.8,7.2-8.1,5.4c-3.4-0.8-6.8-1.7-10.2-2.5c-2.2-5.5-1.9-6.4,2.4-7.3c1.4-5.5,0.4-11.2,0.6-16.8
		c0.2-7.4,0.2-14.9,0.2-22.4c1.2-11.6,2.4-23.3,3.5-34.9c0.2-2.3,0.8-4.6,0.7-6.9C263,435.8,265.5,435.2,269.5,436.6z"/>
	<path class="st24" d="M401.5,472.5c-1.4,16.4-2.9,32.8-4.3,49.2c-1,11.3-1.8,22.5-3,33.8c-0.3,2.7,1,3.2,2.9,3.5
		c2.9,0.5,5.9,0.9,8.5,2.5c-0.4,7-0.4,7-7.4,5.7c-1.3-0.3-2.6-0.9-3.8-0.9c-5.9-0.2-8.1-3.2-6.8-8.9c2.9,0.3,3.4-1.2,3.4-3.8
		c-0.2-11.8-0.1-23.6-0.2-35.4c-0.6-11.7,1-23.2,3.1-34.6c0.5-2.5,0.2-5,0.7-7.4C395.4,471.1,396.7,470.4,401.5,472.5z"/>
	<path class="st24" d="M568.6,464.6c-1.9,23-3.8,46-5.6,69c-0.7,8.9-1.5,17.9-2.3,26.8c-0.3,2.8,0.7,3,3.1,2.3
		c2.7-0.8,5.1-2.5,8-2.3c0.4,2.6-0.4,4.3-3.2,5c-3.6,0.9-7.1,2.4-10.7,3.5c-3.2,1-4.9,0.2-3.7-3.5c2.3-0.4,3.7-1.4,3.6-4.2
		c-0.2-13.1-0.2-26.1-0.3-39.2c-0.9-6.1-0.7-12.3,0.4-18.3c0.8-4.6,1.3-9.2,1.2-13.8c-0.2-7.4,2.5-14.2,2.8-21.5
		C561.9,464.6,565.6,464.5,568.6,464.6z"/>
	<path class="st1" d="M139.2,509.4c2.9-0.1,4.3-1.4,4-4.6c-0.3-3.9-0.2-7.8-0.2-11.8c0-1.4,0.3-3.1-2-3.2c1.1-19.6,3.1-39,5-58.5
		c0.2-2,0.7-4,0.5-5.9c-0.6-5.3,1.7-7.2,6.8-6.5c-2.4,28.4-4.8,56.8-7.3,85.1c-0.3,3.2,0.1,4.6,3.7,4.2c2.6-0.3,5.3,0.1,7.9,0.2
		c0.1,4.5-1.7,6.6-6.5,6c-2.2-0.3-4.6,0.1-6.9,0.4C139.5,515.6,137.9,513.9,139.2,509.4z"/>
	<path class="st25" d="M433.7,566.3c4.3,0.6,2.9-2.6,2.7-4.5c-1-10.9-2.2-21.8-3.3-32.8c-0.3-3.3-0.4-6.6-0.6-10
		c1.1-11.9,1-23.8,0.7-35.7c-0.1-5.1,1.3-7.1,6.3-6c0.1,3.3,0.3,6.6,0.3,9.9c0.1,23.8,0.1,47.6,0.2,71.4c0,8.1,0,8.1,8,9.8
		c-0.3,7-0.3,7-7.6,5.9c-2.3-0.4-4.5-0.9-6.8-1.3C433,570.9,432.5,568.6,433.7,566.3z"/>
	<path class="st26" d="M368.6,552.3c2.3-1.1,1.3-3.2,1.3-4.8c0-11.3-0.1-22.6-0.1-33.8c0-1.2-0.8-3.1,1-3.4c1.8-0.3,3.2,1.1,3.6,2.8
		c0.6,2.7,0.9,5.6,0.9,8.4c0.2,9,0.4,17.9,0.1,26.9c-0.1,4.2,0.9,6.5,5.4,6.8c1.4,0.1,2.8,0.9,4.2,1.3c-0.1,1.2-0.3,2.3-0.2,3.5
		c0.3,3.6-1.7,3.8-4.3,3.1c-1.6-0.4-3.1-1.2-4.8-1.4C367.9,560.2,368.4,560.9,368.6,552.3z"/>
	<path class="st27" d="M325,539.6c1.1-11.3-0.2-22.5,0-33.8c0-1.3-0.2-2.7,0-4c0.3-1.6-1.3-4.3,1.2-4.5c2.4-0.2,3.4,2.2,3.7,4.5
		c1,7.1,0.4,14.3,0.5,21.4c0.1,4.5,0.3,9-0.1,13.4c-0.3,3.7,0.9,5.5,4.7,5.9c1.9,0.2,3.7,1.3,5.6,2c-0.9,7.6-0.9,7.6-8.3,5.5
		c-1.3-0.4-2.5-0.7-3.8-1.1C323.2,547.7,322.2,545.1,325,539.6z"/>
	<path class="st28" d="M534.7,569.5c2.5-0.7,1.9-2.8,1.9-4.5c0-12.3-0.1-24.6,0-36.8c0-1.7-1.8-4.9,1.9-5c3.4,0,3,3.1,3,5.2
		c0.1,11,0.1,21.9,0.1,32.9c0,6.7,0,6.7,6.7,5.3c1-0.2,2-0.2,2.9-0.3c0.6,3.2-0.5,4.9-4,5.3c-2.6,0.3-5.2,1-7.7,1.8
		C536.1,574.4,534.4,573.3,534.7,569.5z"/>
	<path class="st29" d="M220.3,514.1c1.4-1.6,0.8-3.5,0.8-5.3c0-17,0-34,0.4-51c1.3,12.5,2.7,25,4,37.5c0.5,4.8,1.1,9.6,1.4,14.4
		c0.2,3.9,1.5,6.5,5.7,6.9c-0.8,6.7-5.3,8.8-10.8,4.9C219.4,519.6,220.9,516.5,220.3,514.1z"/>
	<path class="st30" d="M237.3,517.4c2.5-10.7,2.1-21.7,3.4-32.5c0.9-7.7,1.5-15.5,3.1-23.2c0,9.6,0,19.2,0,28.8
		c0,7.1,0.4,14.3,0.1,21.4c-0.2,5,1,8,6.4,8.1c0.8,0,1.6,0.4,2.4,0.7c1.4,1.9,1.8,4,0.4,6c-1.5,2.2-4,1.2-5.9,0.8
		c-2.5-0.5-5.1-1.1-7.6-2.1C235.4,523.7,238.2,520,237.3,517.4z"/>
	<path class="st31" d="M454.5,568.9c0-12.9,0-25.8,0-38.7c0.2,0,0.5-0.1,0.7-0.1c1.4,7.1,2.9,14.2,4.3,21.3c0.9,4.4,2,8.7,2.5,13.2
		c0.5,4.4,2.4,6.5,6.9,6.2c0.9-0.1,1.9,0.4,2.9,0.6c0.8,5.2-1.6,6.1-6.5,6.1C459,577.4,455.5,575.1,454.5,568.9z"/>
	<path class="st32" d="M411.9,558.8c0.1-3.3,0-6.7,0.3-10c0.1-1.1-1-4,2.1-3.1c2,0.5,4.9,0,4.7,3.7c-0.2,2.8,0.6,5.7,0.3,8.5
		c-0.5,4.6,1.2,6.8,5.8,6.9c1.5,0,2.9,0.5,4.4,0.8c1.6,1.9,2.4,4.5,1,6.4c-1.3,1.7-3.9,1.1-5.9,0.2c-3.6-1.1-8.1-0.1-10.9-2.6
		C410.9,566.9,413.5,562.3,411.9,558.8z"/>
	<path class="st33" d="M280.2,517.9c0.1-1.3-0.1-2.7,0.3-3.9c0.3-1.1-1.3-3.6,1.6-3c1.8,0.3,4.7-0.4,4.8,3c0.1,3.6,0.7,7.3,0.6,10.9
		c-0.1,3.4,0.9,5.2,4.5,5.7c2,0.3,3.9,1.5,5.8,2.3c0,0.2,0,0.5,0,0.7c0.7,5.7,0.7,5.7-5.4,4.9c-0.2,0-0.3,0.1-0.5,0
		c-11.1-1.9-11.1-1.9-11.3-13C280.4,522.9,280.3,520.4,280.2,517.9z"/>
	<path class="st2" d="M163.6,507.7c0.1-4.5,0.3-9,0.1-13.4c-0.1-3,1.3-3.1,3.6-3.1c2.2,0,3.3,0.5,3.3,3c-0.1,3.1,0.5,6.3,0.3,9.4
		c-0.3,3.8,1.3,5.3,5,5.2c2,0,3.9,0.4,5.9,0.6c0.5,6.1,0.5,6.1-5.8,5.9c-0.8,0-1.7-0.1-2.5-0.1C165.5,515,165.5,515,163.6,507.7z"/>
	<path class="st34" d="M401.5,472.5c-6.1-0.5-6.1-0.5-6.8,7c-1,11.4-2,22.8-3.1,34.3c-0.1,1.5,0,3-0.9,4.3c-1.9-4.4-3.5-9-9.8-11.8
		c7.7-0.1,9.4-4.1,9.6-9.2c0.4-10.9,1.3-21.9-5.2-31.7c5.1,2.8,5,8.1,6.3,12.8c0.4,1.5-0.6,3.3,0.9,4.5c1.5-0.7,1.1-2,1-3
		c-0.1-4.4-0.4-8.9,5.8-9.6c1.2-0.1,1.2-1.4,1.6-2.3c0.7-1.8,1.8-2.8,3.8-2.5c7.1,1.1,14.3,2.2,21.4,3.5c0.6,0.1,0.9,1.2,1.4,1.9
		c-7.3-2.2-14.9-2.9-22.3-4.1C400.3,465.7,403.1,470.7,401.5,472.5z"/>
	<path class="st35" d="M568.6,464.6c-7.2,0.1-6.5,5.6-6.9,10.3c-1.4,15.7-2.8,31.5-4.2,47.2c-1.7-3.6-3.5-7.2-8.6-8.2
		c6.2-3,8-8,8.4-13.7c0.6-7.1,0.7-14.2-0.5-21.3c-0.8-4.6-2.6-8.5-6.3-11.4c4.5,1,6.1,4.6,7.1,8.6c0.3,1,0.2,2.2,1.6,2.1
		c1.3-0.1,1.4-1.2,1.4-2.2c0-1.8,0-3.7,0.1-5.5c0-1-0.1-2,0.2-3c0.6-1.8,11.7-8.9,14-8.9C572,459.7,568.2,460,568.6,464.6z"/>
	<path class="st36" d="M578.5,557.8c0-4.8,0.2-9.6,0.1-14.4c-0.1-3.1,1.3-4.4,4-5.2c2.2-0.7,2.9-0.5,3,1.9c0.1,4.6,0.5,9.2,0.8,14.3
		c3.7-1.5,7-2.8,10.3-4.1c1.1,2.1-0.3,3.1-1.9,3.8c-4.2,2-8.4,3.8-12.5,5.9C579.7,561.3,579.2,559.6,578.5,557.8z"/>
	<path class="st37" d="M463.5,478.5c0.8,11.5,0.2,23-0.2,34.6c-2.7-11-5.8-21.7-7-33C458.2,477.5,461,478.8,463.5,478.5z"/>
	<path class="st38" d="M352.6,460.1c-6.4-1.5-6.3-1.5-6.3,5.5c0.1,22.3,0,44.6,0,66.9c-0.2-7.1-0.4-14.2-0.5-21.4c0-7-2-13.1-9.9-18
		c8.6,1.1,9.3-3.7,9.6-8.7c0.6-9.1,0.7-18.3-2.2-27.1c4.1,1.1,8.1,1.8,9.3-4C352.7,455.6,352.6,457.9,352.6,460.1z"/>
	<path class="st39" d="M235.6,429c-0.7,10-1.4,20.1-2.1,30.1c-0.4,0.7-0.6,1.7-1.8,1c-0.8-10.3-1.6-20.6-2.3-30.9
		C231.3,427.2,233.5,429.2,235.6,429z"/>
	<path class="st40" d="M301.7,445.3c-0.1,11.2-0.3,22.4-0.4,33.6c0,2.5,0.2,5-0.7,7.3c-2-6.4-1.6-13.1-2.4-19.7
		c-1.1-10.1-1.9-20.2-2.8-30.3c2,3.4,2.2,7.1,2.2,10.8c0,4.3,0.7,8.3,2.1,12.4c1.2-2.6,0.9-5.1,0.3-7.8
		C299.4,449.4,298.5,446.7,301.7,445.3z"/>
	<path class="st41" d="M239.6,525.4c1.8,0.3,3.5,0.4,5.3,0.9c7.5,1.9,7.5,1.9,7.8-5.6c1.9,0.4,3.7,0.8,5.5,1.1
		c-4,1.4-1.9,4.8-2.4,7.3c-3.9-1.1-8-0.3-11.8-1.8C242.4,526.8,240.8,526.7,239.6,525.4z"/>
	<path class="st42" d="M424.6,572.1c6.2,0.2,6.2,0.2,4.9-6.6c1.4,0.3,2.8,0.5,4.2,0.8c0,2.3-0.1,4.6-0.1,6.8
		c-1.8-0.8-0.6-2.7-1.5-3.9C430.9,574.3,430,574.6,424.6,572.1z"/>
	<path class="st22" d="M292.3,538.3c3.6,0.3,6.1-0.5,5.4-4.9c1.5,2,1.8,4.8,0.3,6.1C296.5,540.9,294,539.4,292.3,538.3z"/>
	<path class="st43" d="M477.5,307.7c0.2,2-0.4,3.8-3.6,2.1c-2.3-1.2-4.1-0.2-6.1,0.8c-5.3,2.8-10.9,4-16.9,2.8
		c-2.1-0.4-4.9-0.8-4.9-3.3c0-2.6,3-2.2,4.7-2.5c4.3-0.8,8.5-1.6,12.4-3.6c2.9-1.4,3-3.2,1.2-5.5c-3.7-4.9-9.2-6.4-14.8-7.4
		c-9.2-1.6-18.6-0.9-27.8-2.9c-4.2-0.9-8.4-2.1-11.8-5c-0.9-0.7-2-1.6-1.6-2.9c0.5-1.5,2-1.3,3-1c12.6,4,25.8,2.1,38.6,3.9
		c10.9,1.6,19.6,7,25.5,16.6C476.8,302,477.4,304.4,477.5,307.7z"/>
	<path class="st21" d="M538.1,300.5c0,2.3-0.9,2.9-2.5,2.2c-6-2.5-12.2-2.6-18.5-1.9c-1.3,0.2-2.8,0.4-2.5-1.8
		c0.5-4.2,6.4-7.5,12.8-7C533.4,292.3,538.3,296.5,538.1,300.5z"/>
	<path class="st44" d="M231.5,178.5c2.2,0.5,3,2.3,3.9,4.1c0.9,1.8,1.9,3.6,1,5.7c-0.1,0.3-0.4,0.5-0.7,0.7c-1,0.5-2,0.5-2.8-0.2
		c-2.4-2-3.6-4.7-3.9-7.8c-0.1-1,0.5-1.9,1.5-2.4C230.8,178.6,231.1,178.6,231.5,178.5z"/>
	<path class="st45" d="M240.6,211.3c-1.5,0-3.3-0.2-3.8-1.8c-0.6-2.3,1.8-1.7,3-2.3c0.9-0.5,1.7-1,2.6-1.4c1.4-0.5,2.8-2.7,4.2-0.3
		c1.3,2.1-0.4,3.4-1.9,4.5C243.6,210.8,242.2,211.5,240.6,211.3z"/>
	<path class="st46" d="M286.7,178.1c0,1.7,0.1,3-1.2,3.5c-1.3,0.5-2.3-0.3-2.9-1.3c-2.6-3.8-4.2-7.9-4.8-12.4
		c-0.2-1.3-0.2-2.8,1.5-3.3c1.3-0.4,2.2,0.6,2.9,1.6C284.7,169.9,286.2,174.1,286.7,178.1z"/>
	<path class="st47" d="M497.7,210.5c1.2-4.5,2.7-8.9,5.7-12.6c0.7-0.8,1.5-2,2.9-1.2c1.1,0.7,1.3,1.8,1.1,3.1
		c-0.9,4.6-2.7,8.9-5.4,12.7c-0.7,1-1.6,1.9-2.9,1.5C497.4,213.3,497.7,211.8,497.7,210.5z"/>
	<path class="st48" d="M536.6,496.1c0-2.8,0-5.6,0-8.5c0-1.2-0.5-2.9,1.6-3c1.7-0.1,3,0.7,3.2,2.4c0.7,5.6,0.7,11.3-0.1,16.9
		c-0.2,1.8-1.6,3.2-3.4,3.1c-2.4-0.1-1.2-2.3-1.3-3.5C536.4,501.1,536.6,498.6,536.6,496.1z"/>
	<path class="st49" d="M330.5,474c-0.1,1.2-0.1,3.4-0.4,5.5c-0.2,1.8-0.9,3.1-3.2,3c-2.2-0.2-2.1-1.7-2.1-3.2c0-5,0-10,0-14.9
		c0-1.1-0.6-2.7,0.8-3.1c1.6-0.5,2.8,0.8,3.6,2.1C331,466.3,330.3,469.7,330.5,474z"/>
	<path class="st50" d="M369.7,484.3c0-2.5,0-5,0-7.4c0-0.9-0.4-2.1,0.8-2.5c1.3-0.4,2.3,0.4,3,1.4c0.6,0.8,1,1.7,1.2,2.6
		c1,4.7,0.9,9.5,0.1,14.3c-0.3,1.7-1,2.7-2.9,2.7c-2.1,0-2.3-1.4-2.3-3C369.7,489.6,369.7,487,369.7,484.3z"/>
	<path class="st51" d="M582.3,482.3c0.8,11.5,1.5,23.1,2.4,34.6c0.2,2.8-1.3,3.7-3.4,4.5c-2.2,0.8-2.6-0.1-2.4-2.1
		c1-12.4,1.9-24.7,2.9-37.1C581.9,482.2,582.1,482.2,582.3,482.3z"/>
	<path class="st52" d="M282.9,457.7c2.3,9.2,1.4,18.5,2.6,27.5c0.3,2,0.4,4,0.5,6c0,1.3,1.7,3.7-1.5,3.5c-1.9-0.2-4.4-0.2-4.1-3.6
		c0.9-9.8,1.5-19.6,2.2-29.4C282.7,460.4,282.8,459,282.9,457.7z"/>
	<path class="st53" d="M415.3,495.8c1.9,8.3,1.3,16.8,2.2,25.2c0.2,1.6,0.3,3.3,0.2,5c-0.1,1.3,1.7,3.6-1.5,3.5
		c-2.2-0.1-4.2-0.2-3.9-3.6C413.1,515.8,413.4,505.7,415.3,495.8z"/>
	<path class="st54" d="M167.2,440.5c0.7,10.4,1.5,20.9,2.2,31.3c0.1,1.5,0.4,3.2-2,2.9c-1.6-0.2-4,0.6-3.8-2.5
		c0.8-10.5,1.6-21.1,2.4-31.6C166.5,440.5,166.8,440.5,167.2,440.5z"/>
	<path class="st55" d="M512.4,529.3c-3,0.2-6,0.4-9,0.5l-1.4,0.8c0,3.6,0.1,7.2,0,10.8c-0.1,10.9-0.2,10.9,10.6,9.6
		C512.6,543.8,512.5,536.6,512.4,529.3z"/>
	<path class="st56" d="M512.5,491.2c0,6.3-0.1,12.7-0.1,19c-10.5,0.8-10.5,0.8-10.4-9.8c0-1,0.1-8.9,0.1-8.9l5.4,0
		C507.5,491.5,510.8,491.3,512.5,491.2z"/>
	<g>
		<path class="st0" d="M487.8,603.5c-12.2,0-23.5-0.6-33.2-1.3c-16.2-1.3-29.8-3.3-38.4-4.7c-16-2.7-16.3-3.1-17.2-4.3l5.8-3.9
			l-2.9,2l0.9-2.4c0.8,0.2,87.1,19,159.1-0.6l1.7,6.3C538.4,601.4,511.4,603.5,487.8,603.5z"/>
	</g>
</g>
</svg>
