<?xml version="1.0" encoding="utf-8"?>
<!-- Generator: Adobe Illustrator 23.0.3, SVG Export Plug-In . SVG Version: 6.00 Build 0)  -->
<svg version="1.1" id="Layer_1" xmlns="http://www.w3.org/2000/svg" xmlns:xlink="http://www.w3.org/1999/xlink" x="0px" y="0px"
	 viewBox="0 0 512 512" style="enable-background:new 0 0 512 512;" xml:space="preserve">
<style type="text/css">
	.st0{fill:#FFFFFF;}
</style>
<g>
	<g>
		<g>
			<path class="st0" d="M467.2,223.1c56.9-59.3,43.7-167.4,43.1-172l-1.5-11.7l-11.7-1.8C493.2,37,405.3,24.1,342,66.9
				c-27.5-13.6-56.5-20.5-86-20.5c-29.6,0-58.5,6.9-86,20.5C106.8,24.1,18.8,37,14.9,37.6L3.2,39.4L1.7,51.1
				c-0.6,4.6-13.8,112.7,43.1,172l0.2-0.2c-5.4,20-8.3,40.6-8.3,60.9c0,58,22.6,107.2,65.3,142.5c39.4,32.5,94.1,50.4,153.9,50.4
				s114.5-17.9,153.9-50.4c42.7-35.2,65.3-84.5,65.3-142.5c0-20.4-2.9-40.9-8.3-60.9L467.2,223.1z M31.8,67.4
				c21.8-1.5,69-1.8,107.6,17.9c-14,10.1-27.1,21.9-39.2,35.5c-18,20.3-32.5,43.3-43.2,67.7C30.8,149.4,30.5,92.2,31.8,67.4z
				 M390,402.1c-33.8,27.9-81.4,43.2-134,43.2S155.8,430,122,402.1c-35.3-29.1-53.9-70-53.9-118.3c0-50.5,20.3-102.4,55.7-142.3
				c36.5-41.2,83.5-63.8,132.2-63.8s95.7,22.7,132.2,63.8c35.4,39.9,55.7,91.7,55.7,142.3C443.9,332.1,425.3,373,390,402.1z
				 M411.7,120.7c-12-13.5-25.1-25.4-39.2-35.5c38.7-19.7,85.9-19.4,107.7-17.9c0.6,10.1,0.8,25.7-0.9,43.3
				c-3.6,37.5-14,62-24.5,77.8C444.2,164,429.7,141,411.7,120.7z"/>
			<path class="st0" d="M203.8,210.6c11.4,0,20.6-9.3,20.6-20.8c0-11.5-9.2-20.8-20.6-20.8c-11.3,0-20.6,9.3-20.6,20.8
				C183.3,201.3,192.5,210.6,203.8,210.6z"/>
			<path class="st0" d="M308,210.8c11.4,0,20.7-9.4,20.7-21s-9.3-21-20.7-21c-11.4,0-20.7,9.4-20.7,21S296.6,210.8,308,210.8z"/>
			<path class="st0" d="M230.9,323.5c-6.8,0-12.3,5.6-12.3,12.5c0,6.9,5.5,12.5,12.3,12.5c6.8,0,12.4-5.6,12.4-12.5
				C243.3,329.1,237.7,323.5,230.9,323.5z"/>
			<path class="st0" d="M281,323.4c-6.9,0-12.4,5.6-12.4,12.6s5.6,12.6,12.4,12.6c6.9,0,12.4-5.6,12.4-12.6
				C293.4,329.1,287.9,323.4,281,323.4z"/>
			<path class="st0" d="M323.3,279.3c-18.1-13.9-42-21.6-67.3-21.6c-25.2,0-49.1,7.7-67.3,21.6c-19.4,14.9-30,35-30,56.8
				s10.7,41.9,30,56.8c18.1,13.9,42,21.6,67.3,21.6c25.2,0,49.1-7.7,67.3-21.6c19.4-14.9,30-35,30-56.8
				C353.3,314.3,342.6,294.2,323.3,279.3z M304.2,367.9c-12.7,9.7-29.8,15.1-48.2,15.1s-35.5-5.4-48.2-15.1
				c-11.5-8.8-17.8-20.1-17.8-31.9c0-11.8,6.3-23.1,17.8-31.9c12.7-9.7,29.8-15.1,48.2-15.1s35.5,5.4,48.2,15.1
				c11.5,8.8,17.8,20.1,17.8,31.9C322,347.8,315.6,359.1,304.2,367.9z"/>
		</g>
	</g>
</g>
</svg>
