<svg version="1.1" id="Layer_1" xmlns="http://www.w3.org/2000/svg" x="0" y="0" viewBox="0 0 512 512" xml:space="preserve"><style>.st0{fill:#fff}</style><path class="st0" d="M467.2 223.1c56.9-59.3 43.7-167.4 43.1-172l-1.5-11.7-11.7-1.8c-3.9-.6-91.8-13.5-155.1 29.3-27.5-13.6-56.5-20.5-86-20.5-29.6 0-58.5 6.9-86 20.5C106.8 24.1 18.8 37 14.9 37.6L3.2 39.4 1.7 51.1c-.6 4.6-13.8 112.7 43.1 172l.2-.2c-5.4 20-8.3 40.6-8.3 60.9 0 58 22.6 107.2 65.3 142.5 39.4 32.5 94.1 50.4 153.9 50.4s114.5-17.9 153.9-50.4c42.7-35.2 65.3-84.5 65.3-142.5 0-20.4-2.9-40.9-8.3-60.9l.4.2zM31.8 67.4c21.8-1.5 69-1.8 107.6 17.9-14 10.1-27.1 21.9-39.2 35.5-18 20.3-32.5 43.3-43.2 67.7-26.2-39.1-26.5-96.3-25.2-121.1zM390 402.1c-33.8 27.9-81.4 43.2-134 43.2S155.8 430 122 402.1c-35.3-29.1-53.9-70-53.9-118.3 0-50.5 20.3-102.4 55.7-142.3 36.5-41.2 83.5-63.8 132.2-63.8s95.7 22.7 132.2 63.8c35.4 39.9 55.7 91.7 55.7 142.3 0 48.3-18.6 89.2-53.9 118.3zm21.7-281.4c-12-13.5-25.1-25.4-39.2-35.5 38.7-19.7 85.9-19.4 107.7-17.9.6 10.1.8 25.7-.9 43.3-3.6 37.5-14 62-24.5 77.8-10.6-24.4-25.1-47.4-43.1-67.7z"/><path class="st0" d="M203.8 210.6c11.4 0 20.6-9.3 20.6-20.8s-9.2-20.8-20.6-20.8c-11.3 0-20.6 9.3-20.6 20.8.1 11.5 9.3 20.8 20.6 20.8zM308 210.8c11.4 0 20.7-9.4 20.7-21s-9.3-21-20.7-21c-11.4 0-20.7 9.4-20.7 21s9.3 21 20.7 21zM230.9 323.5c-6.8 0-12.3 5.6-12.3 12.5s5.5 12.5 12.3 12.5c6.8 0 12.4-5.6 12.4-12.5s-5.6-12.5-12.4-12.5zM281 323.4c-6.9 0-12.4 5.6-12.4 12.6s5.6 12.6 12.4 12.6c6.9 0 12.4-5.6 12.4-12.6 0-6.9-5.5-12.6-12.4-12.6z"/><path class="st0" d="M323.3 279.3c-18.1-13.9-42-21.6-67.3-21.6-25.2 0-49.1 7.7-67.3 21.6-19.4 14.9-30 35-30 56.8s10.7 41.9 30 56.8c18.1 13.9 42 21.6 67.3 21.6 25.2 0 49.1-7.7 67.3-21.6 19.4-14.9 30-35 30-56.8 0-21.8-10.7-41.9-30-56.8zm-19.1 88.6c-12.7 9.7-29.8 15.1-48.2 15.1s-35.5-5.4-48.2-15.1c-11.5-8.8-17.8-20.1-17.8-31.9 0-11.8 6.3-23.1 17.8-31.9 12.7-9.7 29.8-15.1 48.2-15.1s35.5 5.4 48.2 15.1c11.5 8.8 17.8 20.1 17.8 31.9 0 11.8-6.4 23.1-17.8 31.9z"/></svg>